%TF.GenerationSoftware,KiCad,Pcbnew,7.0.5-0*%
%TF.CreationDate,2025-05-09T23:22:14+02:00*%
%TF.ProjectId,ghost-feather-v1,67686f73-742d-4666-9561-746865722d76,rev?*%
%TF.SameCoordinates,PX519d8e0PY8b6d5c0*%
%TF.FileFunction,Paste,Top*%
%TF.FilePolarity,Positive*%
%FSLAX46Y46*%
G04 Gerber Fmt 4.6, Leading zero omitted, Abs format (unit mm)*
G04 Created by KiCad (PCBNEW 7.0.5-0) date 2025-05-09 23:22:14*
%MOMM*%
%LPD*%
G01*
G04 APERTURE LIST*
G04 Aperture macros list*
%AMRoundRect*
0 Rectangle with rounded corners*
0 $1 Rounding radius*
0 $2 $3 $4 $5 $6 $7 $8 $9 X,Y pos of 4 corners*
0 Add a 4 corners polygon primitive as box body*
4,1,4,$2,$3,$4,$5,$6,$7,$8,$9,$2,$3,0*
0 Add four circle primitives for the rounded corners*
1,1,$1+$1,$2,$3*
1,1,$1+$1,$4,$5*
1,1,$1+$1,$6,$7*
1,1,$1+$1,$8,$9*
0 Add four rect primitives between the rounded corners*
20,1,$1+$1,$2,$3,$4,$5,0*
20,1,$1+$1,$4,$5,$6,$7,0*
20,1,$1+$1,$6,$7,$8,$9,0*
20,1,$1+$1,$8,$9,$2,$3,0*%
%AMOutline5P*
0 Free polygon, 5 corners , with rotation*
0 The origin of the aperture is its center*
0 number of corners: always 5*
0 $1 to $10 corner X, Y*
0 $11 Rotation angle, in degrees counterclockwise*
0 create outline with 5 corners*
4,1,5,$1,$2,$3,$4,$5,$6,$7,$8,$9,$10,$1,$2,$11*%
%AMOutline6P*
0 Free polygon, 6 corners , with rotation*
0 The origin of the aperture is its center*
0 number of corners: always 6*
0 $1 to $12 corner X, Y*
0 $13 Rotation angle, in degrees counterclockwise*
0 create outline with 6 corners*
4,1,6,$1,$2,$3,$4,$5,$6,$7,$8,$9,$10,$11,$12,$1,$2,$13*%
%AMOutline7P*
0 Free polygon, 7 corners , with rotation*
0 The origin of the aperture is its center*
0 number of corners: always 7*
0 $1 to $14 corner X, Y*
0 $15 Rotation angle, in degrees counterclockwise*
0 create outline with 7 corners*
4,1,7,$1,$2,$3,$4,$5,$6,$7,$8,$9,$10,$11,$12,$13,$14,$1,$2,$15*%
%AMOutline8P*
0 Free polygon, 8 corners , with rotation*
0 The origin of the aperture is its center*
0 number of corners: always 8*
0 $1 to $16 corner X, Y*
0 $17 Rotation angle, in degrees counterclockwise*
0 create outline with 8 corners*
4,1,8,$1,$2,$3,$4,$5,$6,$7,$8,$9,$10,$11,$12,$13,$14,$15,$16,$1,$2,$17*%
%AMFreePoly0*
4,1,18,-0.400000,0.075000,-0.396194,0.094134,-0.385355,0.110355,-0.369134,0.121194,-0.350000,0.125000,0.287500,0.125000,0.400000,0.012500,0.400000,-0.075000,0.396194,-0.094134,0.385355,-0.110355,0.369134,-0.121194,0.350000,-0.125000,-0.350000,-0.125000,-0.369134,-0.121194,-0.385355,-0.110355,-0.396194,-0.094134,-0.400000,-0.075000,-0.400000,0.075000,-0.400000,0.075000,$1*%
%AMFreePoly1*
4,1,93,0.915063,0.095106,0.930902,0.095106,0.943715,0.085796,0.958779,0.080902,0.968088,0.068088,0.980902,0.058779,0.985796,0.043715,0.995106,0.030902,0.995106,0.015062,1.000000,0.000000,1.000000,-1.750000,0.995106,-1.765062,0.995106,-1.780902,0.985796,-1.793715,0.980902,-1.808779,0.968088,-1.818088,0.958779,-1.830902,0.943715,-1.835796,0.930902,-1.845106,0.915063,-1.845106,
0.900000,-1.850000,0.000000,-1.850000,-0.015063,-1.845106,-0.030902,-1.845106,-0.043715,-1.835796,-0.058779,-1.830902,-0.068088,-1.818088,-0.080902,-1.808779,-0.085796,-1.793715,-0.095106,-1.780902,-0.095106,-1.765062,-0.100000,-1.750000,-0.100000,-1.700000,-0.095106,-1.684937,-0.095106,-1.669098,-0.085796,-1.656284,-0.080902,-1.641221,-0.068088,-1.631911,-0.058779,-1.619098,-0.043715,-1.614203,
-0.030902,-1.604894,-0.015063,-1.604894,0.000000,-1.600000,0.400000,-1.600000,0.400000,-1.000000,0.000000,-1.000000,-0.015063,-0.995106,-0.030902,-0.995106,-0.043715,-0.985796,-0.058779,-0.980902,-0.068088,-0.968088,-0.080902,-0.958779,-0.085796,-0.943715,-0.095106,-0.930902,-0.095106,-0.915062,-0.100000,-0.900000,-0.100000,-0.850000,-0.095106,-0.834937,-0.095106,-0.819098,-0.085796,-0.806284,
-0.080902,-0.791221,-0.068088,-0.781911,-0.058779,-0.769098,-0.043715,-0.764203,-0.030902,-0.754894,-0.015063,-0.754894,0.000000,-0.750000,0.400000,-0.750000,0.400000,-0.150000,0.000000,-0.150000,-0.015063,-0.145106,-0.030902,-0.145106,-0.043715,-0.135796,-0.058779,-0.130902,-0.068088,-0.118088,-0.080902,-0.108779,-0.085796,-0.093715,-0.095106,-0.080902,-0.095106,-0.065062,-0.100000,-0.050000,
-0.100000,0.000000,-0.095106,0.015062,-0.095106,0.030902,-0.085796,0.043715,-0.080902,0.058779,-0.068088,0.068088,-0.058779,0.080902,-0.043715,0.085796,-0.030902,0.095106,-0.015063,0.095106,0.000000,0.100000,0.900000,0.100000,0.915063,0.095106,0.915063,0.095106,$1*%
G04 Aperture macros list end*
%ADD10RoundRect,0.135000X0.226274X0.035355X0.035355X0.226274X-0.226274X-0.035355X-0.035355X-0.226274X0*%
%ADD11RoundRect,0.135000X0.185000X-0.135000X0.185000X0.135000X-0.185000X0.135000X-0.185000X-0.135000X0*%
%ADD12RoundRect,0.135000X-0.226274X-0.035355X-0.035355X-0.226274X0.226274X0.035355X0.035355X0.226274X0*%
%ADD13RoundRect,0.135000X-0.185000X0.135000X-0.185000X-0.135000X0.185000X-0.135000X0.185000X0.135000X0*%
%ADD14RoundRect,0.135000X-0.035355X0.226274X-0.226274X0.035355X0.035355X-0.226274X0.226274X-0.035355X0*%
%ADD15RoundRect,0.147500X-0.172500X0.147500X-0.172500X-0.147500X0.172500X-0.147500X0.172500X0.147500X0*%
%ADD16RoundRect,0.140000X-0.170000X0.140000X-0.170000X-0.140000X0.170000X-0.140000X0.170000X0.140000X0*%
%ADD17FreePoly0,270.000000*%
%ADD18RoundRect,0.062500X-0.062500X0.487500X-0.062500X-0.487500X0.062500X-0.487500X0.062500X0.487500X0*%
%ADD19FreePoly1,270.000000*%
%ADD20FreePoly1,90.000000*%
%ADD21RoundRect,0.062500X-0.062500X0.287500X-0.062500X-0.287500X0.062500X-0.287500X0.062500X0.287500X0*%
%ADD22RoundRect,0.062500X-0.137500X0.062500X-0.137500X-0.062500X0.137500X-0.062500X0.137500X0.062500X0*%
%ADD23RoundRect,0.062500X-0.487500X0.062500X-0.487500X-0.062500X0.487500X-0.062500X0.487500X0.062500X0*%
%ADD24RoundRect,0.225000X0.250000X-0.225000X0.250000X0.225000X-0.250000X0.225000X-0.250000X-0.225000X0*%
%ADD25RoundRect,0.135000X0.135000X0.185000X-0.135000X0.185000X-0.135000X-0.185000X0.135000X-0.185000X0*%
%ADD26RoundRect,0.135000X0.035355X-0.226274X0.226274X-0.035355X-0.035355X0.226274X-0.226274X0.035355X0*%
%ADD27RoundRect,0.150000X0.521491X-0.309359X-0.309359X0.521491X-0.521491X0.309359X0.309359X-0.521491X0*%
%ADD28RoundRect,0.135000X-0.135000X-0.185000X0.135000X-0.185000X0.135000X0.185000X-0.135000X0.185000X0*%
%ADD29RoundRect,0.140000X0.140000X0.170000X-0.140000X0.170000X-0.140000X-0.170000X0.140000X-0.170000X0*%
%ADD30RoundRect,0.140000X-0.140000X-0.170000X0.140000X-0.170000X0.140000X0.170000X-0.140000X0.170000X0*%
%ADD31RoundRect,0.075000X0.700000X0.075000X-0.700000X0.075000X-0.700000X-0.075000X0.700000X-0.075000X0*%
%ADD32RoundRect,0.075000X0.075000X0.700000X-0.075000X0.700000X-0.075000X-0.700000X0.075000X-0.700000X0*%
%ADD33RoundRect,0.225000X-0.250000X0.225000X-0.250000X-0.225000X0.250000X-0.225000X0.250000X0.225000X0*%
%ADD34RoundRect,0.140000X0.170000X-0.140000X0.170000X0.140000X-0.170000X0.140000X-0.170000X-0.140000X0*%
%ADD35RoundRect,0.150000X-0.512500X-0.150000X0.512500X-0.150000X0.512500X0.150000X-0.512500X0.150000X0*%
%ADD36RoundRect,0.140000X0.021213X-0.219203X0.219203X-0.021213X-0.021213X0.219203X-0.219203X0.021213X0*%
%ADD37RoundRect,0.147500X-0.147500X-0.172500X0.147500X-0.172500X0.147500X0.172500X-0.147500X0.172500X0*%
%ADD38R,2.000000X1.600000*%
%ADD39RoundRect,0.150000X0.309359X0.521491X-0.521491X-0.309359X-0.309359X-0.521491X0.521491X0.309359X0*%
%ADD40RoundRect,0.225000X-0.225000X-0.250000X0.225000X-0.250000X0.225000X0.250000X-0.225000X0.250000X0*%
%ADD41RoundRect,0.225000X0.225000X0.250000X-0.225000X0.250000X-0.225000X-0.250000X0.225000X-0.250000X0*%
%ADD42RoundRect,0.140000X0.219203X0.021213X0.021213X0.219203X-0.219203X-0.021213X-0.021213X-0.219203X0*%
%ADD43R,0.482600X0.254000*%
%ADD44R,0.254000X0.482600*%
%ADD45RoundRect,0.140000X-0.021213X0.219203X-0.219203X0.021213X0.021213X-0.219203X0.219203X-0.021213X0*%
%ADD46RoundRect,0.150000X-0.309359X-0.521491X0.521491X0.309359X0.309359X0.521491X-0.521491X-0.309359X0*%
%ADD47RoundRect,0.325000X-0.775000X0.325000X-0.775000X-0.325000X0.775000X-0.325000X0.775000X0.325000X0*%
%ADD48Outline5P,-0.187500X0.175000X0.065000X0.175000X0.187500X0.052500X0.187500X-0.175000X-0.187500X-0.175000X0.000000*%
%ADD49R,0.300000X0.350000*%
%ADD50R,1.050000X0.600000*%
%ADD51R,1.150000X0.300000*%
%ADD52O,2.100000X1.000000*%
%ADD53O,1.800000X1.000000*%
%ADD54RoundRect,0.150000X-0.521491X0.309359X0.309359X-0.521491X0.521491X-0.309359X-0.309359X0.521491X0*%
%ADD55RoundRect,0.140000X-0.219203X-0.021213X-0.021213X-0.219203X0.219203X0.021213X0.021213X0.219203X0*%
G04 APERTURE END LIST*
D10*
%TO.C,R6*%
X32005754Y85149971D03*
X31284506Y85871219D03*
%TD*%
D11*
%TO.C,R21*%
X81350000Y62930000D03*
X81350000Y63950000D03*
%TD*%
D12*
%TO.C,R10*%
X83209376Y24160624D03*
X83930624Y23439376D03*
%TD*%
D13*
%TO.C,R27*%
X80315000Y42360000D03*
X80315000Y41340000D03*
%TD*%
D14*
%TO.C,R13*%
X27356810Y27815353D03*
X26635562Y27094105D03*
%TD*%
D15*
%TO.C,D3*%
X86005000Y39400000D03*
X86005000Y38430000D03*
%TD*%
D13*
%TO.C,R28*%
X84828000Y39436000D03*
X84828000Y38416000D03*
%TD*%
D10*
%TO.C,R7*%
X31053754Y84201971D03*
X30332506Y84923219D03*
%TD*%
D15*
%TO.C,D2*%
X85970000Y60995000D03*
X85970000Y60025000D03*
%TD*%
D16*
%TO.C,C7*%
X64345000Y50530000D03*
X64345000Y49570000D03*
%TD*%
%TO.C,C3*%
X60670000Y46855000D03*
X60670000Y45895000D03*
%TD*%
D17*
%TO.C,U4*%
X85970000Y65350000D03*
D18*
X85320000Y65200000D03*
X84670000Y65200000D03*
D19*
X84045000Y65650000D03*
D20*
X82295500Y62250000D03*
D18*
X84670000Y62700000D03*
X85320000Y62700000D03*
D21*
X85970000Y62500000D03*
D22*
X87020000Y62525000D03*
X87020000Y63125000D03*
D23*
X86670000Y63700000D03*
X86670000Y64200000D03*
D22*
X87020000Y64775000D03*
X87020000Y65375000D03*
X84995000Y64200000D03*
X84995000Y63700000D03*
%TD*%
D24*
%TO.C,C20*%
X89825000Y42605000D03*
X89825000Y44155000D03*
%TD*%
D25*
%TO.C,R17*%
X15580000Y48660000D03*
X14560000Y48660000D03*
%TD*%
%TO.C,R1*%
X46030000Y49000000D03*
X45010000Y49000000D03*
%TD*%
D26*
%TO.C,R4*%
X86153376Y79899376D03*
X86874624Y80620624D03*
%TD*%
D11*
%TO.C,R26*%
X81388000Y41336000D03*
X81388000Y42356000D03*
%TD*%
D27*
%TO.C,Q3*%
X28136291Y82075931D03*
X29479794Y83419434D03*
X27482217Y84073508D03*
%TD*%
D28*
%TO.C,R15*%
X64547500Y60260000D03*
X65567500Y60260000D03*
%TD*%
%TO.C,R25*%
X87048000Y45096000D03*
X88068000Y45096000D03*
%TD*%
D17*
%TO.C,U5*%
X86000000Y43770000D03*
D18*
X85350000Y43620000D03*
X84700000Y43620000D03*
D19*
X84075000Y44070000D03*
D20*
X82325500Y40670000D03*
D18*
X84700000Y41120000D03*
X85350000Y41120000D03*
D21*
X86000000Y40920000D03*
D22*
X87050000Y40945000D03*
X87050000Y41545000D03*
D23*
X86700000Y42120000D03*
X86700000Y42620000D03*
D22*
X87050000Y43195000D03*
X87050000Y43795000D03*
X85025000Y42620000D03*
X85025000Y42120000D03*
%TD*%
D29*
%TO.C,C4*%
X49500000Y50550000D03*
X48540000Y50550000D03*
%TD*%
D30*
%TO.C,C10*%
X45050000Y47850000D03*
X46010000Y47850000D03*
%TD*%
D12*
%TO.C,R9*%
X82309376Y23260624D03*
X83030624Y22539376D03*
%TD*%
D31*
%TO.C,U1*%
X62595000Y50550000D03*
X62595000Y51050000D03*
X62595000Y51550000D03*
X62595000Y52050000D03*
X62595000Y52550000D03*
X62595000Y53050000D03*
X62595000Y53550000D03*
X62595000Y54050000D03*
X62595000Y54550000D03*
X62595000Y55050000D03*
X62595000Y55550000D03*
X62595000Y56050000D03*
X62595000Y56550000D03*
X62595000Y57050000D03*
X62595000Y57550000D03*
X62595000Y58050000D03*
D32*
X60670000Y59975000D03*
X60170000Y59975000D03*
X59670000Y59975000D03*
X59170000Y59975000D03*
X58670000Y59975000D03*
X58170000Y59975000D03*
X57670000Y59975000D03*
X57170000Y59975000D03*
X56670000Y59975000D03*
X56170000Y59975000D03*
X55670000Y59975000D03*
X55170000Y59975000D03*
X54670000Y59975000D03*
X54170000Y59975000D03*
X53670000Y59975000D03*
X53170000Y59975000D03*
D31*
X51245000Y58050000D03*
X51245000Y57550000D03*
X51245000Y57050000D03*
X51245000Y56550000D03*
X51245000Y56050000D03*
X51245000Y55550000D03*
X51245000Y55050000D03*
X51245000Y54550000D03*
X51245000Y54050000D03*
X51245000Y53550000D03*
X51245000Y53050000D03*
X51245000Y52550000D03*
X51245000Y52050000D03*
X51245000Y51550000D03*
X51245000Y51050000D03*
X51245000Y50550000D03*
D32*
X53170000Y48625000D03*
X53670000Y48625000D03*
X54170000Y48625000D03*
X54670000Y48625000D03*
X55170000Y48625000D03*
X55670000Y48625000D03*
X56170000Y48625000D03*
X56670000Y48625000D03*
X57170000Y48625000D03*
X57670000Y48625000D03*
X58170000Y48625000D03*
X58670000Y48625000D03*
X59170000Y48625000D03*
X59670000Y48625000D03*
X60170000Y48625000D03*
X60670000Y48625000D03*
%TD*%
D26*
%TO.C,R14*%
X30235562Y23494105D03*
X30956810Y24215353D03*
%TD*%
D13*
%TO.C,R22*%
X80250000Y63960000D03*
X80250000Y62940000D03*
%TD*%
D14*
%TO.C,R12*%
X26456810Y28715353D03*
X25735562Y27994105D03*
%TD*%
D33*
%TO.C,C8*%
X62170000Y46575000D03*
X62170000Y45025000D03*
%TD*%
D34*
%TO.C,C9*%
X64320000Y54520000D03*
X64320000Y55480000D03*
%TD*%
D11*
%TO.C,R2*%
X45030000Y50080000D03*
X45030000Y51100000D03*
%TD*%
D13*
%TO.C,R24*%
X88365000Y43626000D03*
X88365000Y42606000D03*
%TD*%
D35*
%TO.C,U3*%
X30882500Y55850000D03*
X30882500Y54900000D03*
X30882500Y53950000D03*
X33157500Y53950000D03*
X33157500Y54900000D03*
X33157500Y55850000D03*
%TD*%
D34*
%TO.C,C5*%
X53170000Y61720000D03*
X53170000Y62680000D03*
%TD*%
D13*
%TO.C,R19*%
X88450000Y65090000D03*
X88450000Y64070000D03*
%TD*%
D36*
%TO.C,C14*%
X81774589Y84378589D03*
X82453411Y85057411D03*
%TD*%
D29*
%TO.C,C11*%
X73700000Y47700000D03*
X72740000Y47700000D03*
%TD*%
D34*
%TO.C,C6*%
X59670000Y61795000D03*
X59670000Y62755000D03*
%TD*%
D25*
%TO.C,R18*%
X15730000Y60856000D03*
X14710000Y60856000D03*
%TD*%
D26*
%TO.C,R3*%
X87053376Y78999376D03*
X87774624Y79720624D03*
%TD*%
D12*
%TO.C,R8*%
X26698506Y81249719D03*
X27419754Y80528471D03*
%TD*%
D37*
%TO.C,D1*%
X64572500Y61530000D03*
X65542500Y61530000D03*
%TD*%
D38*
%TO.C,SW2*%
X42970000Y51100000D03*
X37570000Y51100000D03*
%TD*%
D10*
%TO.C,R11*%
X87530624Y27039376D03*
X86809376Y27760624D03*
%TD*%
D39*
%TO.C,Q1*%
X29430850Y24945890D03*
X28087347Y26289393D03*
X27433273Y24291816D03*
%TD*%
D40*
%TO.C,C2*%
X64920000Y57825000D03*
X66470000Y57825000D03*
%TD*%
D14*
%TO.C,R5*%
X83374624Y84220624D03*
X82653376Y83499376D03*
%TD*%
D41*
%TO.C,C19*%
X83305000Y61050000D03*
X81755000Y61050000D03*
%TD*%
%TO.C,C21*%
X83323000Y39436000D03*
X81773000Y39436000D03*
%TD*%
D13*
%TO.C,R23*%
X84810000Y61040000D03*
X84810000Y60020000D03*
%TD*%
D42*
%TO.C,C15*%
X26484541Y79671184D03*
X25805719Y80350006D03*
%TD*%
D43*
%TO.C,U2*%
X58426500Y65649999D03*
X58426500Y66150000D03*
X58426500Y66650000D03*
X58426500Y67150001D03*
D44*
X57719999Y67352500D03*
X57220000Y67352500D03*
X56720001Y67352500D03*
D43*
X56013500Y67150001D03*
X56013500Y66650000D03*
X56013500Y66150000D03*
X56013500Y65649999D03*
D44*
X56720001Y65447500D03*
X57220000Y65447500D03*
X57719999Y65447500D03*
%TD*%
D30*
%TO.C,C1*%
X64865000Y56550000D03*
X65825000Y56550000D03*
%TD*%
D45*
%TO.C,C17*%
X31835597Y23294140D03*
X31156775Y22615318D03*
%TD*%
D24*
%TO.C,C13*%
X54460000Y61935000D03*
X54460000Y63485000D03*
%TD*%
D46*
%TO.C,Q4*%
X84114000Y82760000D03*
X85457503Y81416497D03*
X86111577Y83414074D03*
%TD*%
D11*
%TO.C,R16*%
X54620000Y65290000D03*
X54620000Y66310000D03*
%TD*%
D47*
%TO.C,X2*%
X70520000Y51907199D03*
X70520000Y47707199D03*
%TD*%
D29*
%TO.C,C12*%
X73700000Y51952199D03*
X72740000Y51952199D03*
%TD*%
D48*
%TO.C,X1*%
X66782500Y53300000D03*
D49*
X65620000Y53300000D03*
X65620000Y52550000D03*
X66820000Y52550000D03*
%TD*%
D50*
%TO.C,J2*%
X15760000Y58000000D03*
X15760000Y57200000D03*
D51*
X15710000Y56050000D03*
X15710000Y55050000D03*
X15710000Y54550000D03*
X15710000Y53550000D03*
D50*
X15760000Y52400000D03*
X15760000Y51600000D03*
X15760000Y51600000D03*
X15760000Y52400000D03*
D51*
X15710000Y53050000D03*
X15710000Y54050000D03*
X15710000Y55550000D03*
X15710000Y56550000D03*
D50*
X15760000Y57200000D03*
X15760000Y58000000D03*
D52*
X15135000Y59120000D03*
D53*
X10955000Y59120000D03*
D52*
X15135000Y50480000D03*
D53*
X10955000Y50480000D03*
%TD*%
D54*
%TO.C,Q2*%
X86078839Y26234664D03*
X84735336Y24891161D03*
X86732913Y24237087D03*
%TD*%
D55*
%TO.C,C16*%
X87830589Y28739411D03*
X88509411Y28060589D03*
%TD*%
D24*
%TO.C,C18*%
X89880000Y64075000D03*
X89880000Y65625000D03*
%TD*%
D28*
%TO.C,R20*%
X87030000Y66690000D03*
X88050000Y66690000D03*
%TD*%
M02*
