M48
; DRILL file {KiCad 7.0.5-0} date 2025 May 09, Friday 23:21:50
; FORMAT={-:-/ absolute / metric / decimal}
; #@! TF.CreationDate,2025-05-09T23:21:50+02:00
; #@! TF.GenerationSoftware,Kicad,Pcbnew,7.0.5-0
; #@! TF.FileFunction,Plated,1,4,PTH
FMAT,2
METRIC
; #@! TA.AperFunction,Plated,PTH,ViaDrill
T1C0.400
; #@! TA.AperFunction,Plated,PTH,ComponentDrill
T2C0.500
; #@! TA.AperFunction,Plated,PTH,ComponentDrill
T3C0.600
; #@! TA.AperFunction,Plated,PTH,ComponentDrill
T4C2.700
%
G90
G05
T1
X5.42Y83.2
X6.42Y23.2
X7.42Y86.2
X7.42Y80.2
X7.42Y26.2
X8.42Y83.2
X8.42Y74.2
X8.42Y29.2
X8.42Y20.2
X9.42Y89.2
X9.42Y77.2
X9.42Y68.2
X9.42Y41.2
X9.42Y32.2
X10.42Y80.2
X10.42Y71.2
X10.42Y44.2
X10.42Y35.2
X10.42Y26.2
X10.42Y17.2
X11.42Y92.2
X11.42Y83.2
X11.42Y74.2
X11.42Y65.2
X11.42Y47.2
X11.42Y38.2
X11.42Y29.2
X11.42Y20.2
X12.42Y95.2
X12.42Y89.2
X12.42Y77.2
X12.42Y68.2
X12.42Y61.2
X12.42Y41.2
X12.42Y32.2
X12.42Y23.2
X12.42Y14.2
X13.42Y80.2
X13.42Y71.2
X13.42Y44.2
X13.42Y35.2
X13.42Y26.2
X13.42Y17.2
X14.42Y92.2
X14.42Y83.2
X14.42Y74.2
X14.42Y65.2
X14.42Y47.2
X14.42Y38.2
X14.42Y29.2
X15.42Y95.2
X15.42Y77.2
X15.42Y68.2
X15.42Y41.2
X15.42Y32.2
X15.42Y14.2
X15.58Y47.45
X15.72Y62.0
X16.42Y98.2
X16.42Y80.2
X16.42Y71.2
X16.42Y44.2
X16.42Y35.2
X16.42Y26.2
X16.42Y17.2
X17.42Y92.2
X17.42Y83.2
X17.42Y74.2
X17.42Y38.2
X17.42Y29.2
X17.42Y11.2
X18.42Y95.2
X18.42Y86.2
X18.42Y77.2
X18.42Y68.2
X18.42Y59.2
X18.42Y41.2
X18.42Y32.2
X18.42Y23.2
X18.42Y14.2
X19.42Y98.2
X19.42Y89.2
X19.42Y80.2
X19.42Y71.2
X19.42Y62.2
X19.42Y44.2
X19.42Y35.2
X19.42Y26.2
X19.42Y17.2
X19.42Y8.2
X20.42Y101.2
X20.42Y92.2
X20.42Y83.2
X20.42Y65.2
X20.42Y47.2
X20.42Y38.2
X20.42Y29.2
X20.42Y11.2
X21.42Y104.2
X21.42Y95.2
X21.42Y77.2
X21.42Y68.2
X21.42Y59.2
X21.42Y50.2
X21.42Y41.2
X21.42Y32.2
X21.42Y23.2
X21.42Y14.2
X21.42Y5.2
X22.42Y98.2
X22.42Y80.2
X22.42Y71.2
X22.42Y62.2
X22.42Y44.2
X22.42Y35.2
X22.42Y26.2
X22.42Y17.2
X22.42Y8.2
X22.695Y24.875
X23.37Y25.575
X23.42Y101.2
X23.42Y92.2
X23.42Y83.2
X23.42Y74.2
X23.42Y65.2
X23.42Y47.2
X23.42Y29.2
X24.07Y26.225
X24.42Y104.2
X24.42Y68.2
X24.42Y59.2
X24.42Y50.2
X24.42Y41.2
X24.42Y32.2
X24.42Y5.2
X24.77Y25.55
X24.81Y27.44
X25.02Y79.6
X25.42Y71.2
X25.42Y62.2
X25.42Y44.2
X25.42Y17.2
X25.46Y26.79
X25.47Y24.85
X26.11Y26.14
X26.42Y92.2
X26.42Y65.2
X26.42Y47.2
X26.42Y2.2
X27.4Y29.63
X27.42Y104.2
X27.42Y95.2
X27.42Y77.2
X27.42Y68.2
X27.42Y59.2
X27.42Y50.2
X27.42Y41.2
X27.42Y32.2
X27.42Y14.2
X27.42Y5.2
X28.02Y86.025
X28.045Y88.8
X28.42Y98.2
X28.42Y71.2
X28.42Y62.2
X28.42Y44.2
X28.42Y17.2
X28.42Y8.2
X28.72Y86.725
X28.745Y88.125
X29.24Y80.97
X29.32Y54.9
X29.37Y85.45
X29.395Y87.425
X29.42Y101.2
X29.42Y92.2
X29.42Y74.2
X29.42Y65.2
X29.42Y47.2
X29.42Y29.2
X29.42Y11.2
X30.02Y86.1
X30.42Y104.2
X30.42Y95.2
X30.42Y77.2
X30.42Y68.2
X30.42Y59.2
X30.42Y50.2
X30.42Y41.2
X30.42Y14.2
X30.42Y5.2
X30.57Y26.08
X30.67Y86.75
X31.42Y98.2
X31.42Y89.2
X31.42Y80.2
X31.42Y71.2
X31.42Y62.2
X31.42Y44.2
X31.42Y35.2
X31.42Y17.2
X31.42Y8.2
X31.91Y21.89
X32.42Y101.2
X32.42Y92.2
X32.42Y74.2
X32.42Y65.2
X32.42Y47.2
X32.42Y38.2
X32.42Y11.2
X33.08Y84.09
X33.42Y104.2
X33.42Y95.2
X33.42Y86.2
X33.42Y77.2
X33.42Y68.2
X33.42Y59.2
X33.42Y50.2
X33.42Y41.2
X33.42Y32.2
X33.42Y14.2
X33.42Y5.2
X34.42Y98.2
X34.42Y89.2
X34.42Y80.2
X34.42Y71.2
X34.42Y62.2
X34.42Y44.2
X34.42Y35.2
X34.42Y17.2
X34.42Y8.2
X35.42Y101.2
X35.42Y92.2
X35.42Y83.2
X35.42Y74.2
X35.42Y65.2
X35.42Y56.2
X35.42Y47.2
X35.42Y29.2
X35.42Y11.2
X35.62Y52.1
X35.62Y51.1
X35.62Y50.1
X36.42Y95.2
X36.42Y77.2
X36.42Y68.2
X36.42Y59.2
X36.42Y41.2
X36.42Y32.2
X36.42Y14.2
X36.42Y5.2
X37.42Y98.2
X37.42Y89.2
X37.42Y71.2
X37.42Y62.2
X37.42Y44.2
X37.42Y35.2
X37.42Y26.2
X37.42Y17.2
X37.42Y8.2
X38.42Y101.2
X38.42Y92.2
X38.42Y83.2
X38.42Y74.2
X38.42Y65.2
X38.42Y56.2
X38.42Y47.2
X38.42Y38.2
X38.42Y29.2
X38.42Y11.2
X39.42Y95.2
X39.42Y86.2
X39.42Y68.2
X39.42Y59.2
X39.42Y32.2
X39.42Y14.2
X40.42Y98.2
X40.42Y89.2
X40.42Y80.2
X40.42Y71.2
X40.42Y62.2
X40.42Y44.2
X40.42Y35.2
X40.42Y26.2
X40.42Y17.2
X40.42Y8.2
X41.42Y101.2
X41.42Y92.2
X41.42Y83.2
X41.42Y74.2
X41.42Y65.2
X41.42Y56.2
X41.42Y47.2
X41.42Y38.2
X41.42Y29.2
X41.42Y11.2
X42.42Y95.2
X42.42Y86.2
X42.42Y77.2
X42.42Y68.2
X42.42Y59.2
X42.42Y41.2
X42.42Y32.2
X42.42Y23.2
X42.42Y14.2
X43.42Y98.2
X43.42Y89.2
X43.42Y80.2
X43.42Y71.2
X43.42Y62.2
X43.42Y44.2
X43.42Y35.2
X43.42Y26.2
X43.42Y17.2
X43.42Y8.2
X44.42Y101.2
X44.42Y92.2
X44.42Y83.2
X44.42Y74.2
X44.42Y65.2
X44.42Y56.2
X44.42Y38.2
X44.42Y29.2
X44.42Y11.2
X45.04Y44.386
X45.42Y95.2
X45.42Y86.2
X45.42Y77.2
X45.42Y68.2
X45.42Y59.2
X45.42Y41.2
X45.42Y32.2
X45.42Y23.2
X45.42Y14.2
X46.42Y98.2
X46.42Y89.2
X46.42Y80.2
X46.42Y62.2
X46.42Y35.2
X46.42Y26.2
X46.42Y17.2
X46.42Y8.2
X47.02Y49.003
X47.02Y47.85
X47.42Y101.2
X47.42Y92.2
X47.42Y83.2
X47.42Y74.2
X47.42Y38.2
X47.42Y29.2
X47.42Y11.2
X47.56Y50.55
X48.42Y95.2
X48.42Y86.2
X48.42Y77.2
X48.42Y41.2
X48.42Y32.2
X48.42Y23.2
X48.42Y14.2
X49.1Y51.89
X49.42Y98.2
X49.42Y89.2
X49.42Y35.2
X49.42Y26.2
X49.42Y17.2
X49.42Y8.2
X49.495Y49.45
X50.42Y92.2
X50.42Y38.2
X50.42Y29.2
X50.42Y11.2
X50.57Y45.755
X51.42Y95.2
X51.42Y86.2
X51.42Y32.2
X51.42Y23.2
X51.42Y14.2
X52.12Y61.725
X52.42Y98.2
X52.42Y89.2
X52.42Y71.2
X52.42Y26.2
X52.42Y17.2
X52.42Y8.2
X52.48Y36.64
X53.15Y63.64
X53.42Y92.2
X53.42Y29.2
X53.42Y11.2
X53.62Y50.55
X53.67Y58.15
X54.42Y95.2
X54.42Y86.2
X54.42Y32.2
X54.42Y23.2
X54.42Y14.2
X54.62Y68.05
X54.62Y52.0
X54.67Y56.65
X55.42Y98.2
X55.42Y89.2
X55.42Y71.2
X55.42Y26.2
X55.42Y17.2
X55.42Y8.2
X55.545Y62.4
X55.62Y50.55
X55.67Y58.15
X56.27Y63.53
X56.42Y92.2
X56.42Y29.2
X56.42Y11.2
X56.87Y52.0
X56.87Y46.91
X56.92Y56.7
X56.95Y45.9
X56.97Y68.47
X56.99Y44.901
X57.42Y95.2
X57.42Y86.2
X57.42Y32.2
X57.42Y23.2
X57.42Y14.2
X58.12Y68.6
X58.12Y50.55
X58.17Y58.15
X58.42Y98.2
X58.42Y89.2
X58.42Y71.2
X58.42Y44.2
X58.42Y26.2
X58.42Y17.2
X58.42Y8.2
X58.67Y63.483
X58.774Y62.45
X59.12Y52.05
X59.17Y56.7
X59.42Y92.2
X59.42Y29.2
X59.42Y11.2
X59.616Y45.301
X59.66Y46.3
X59.67Y63.75
X60.12Y50.55
X60.17Y58.15
X60.42Y95.2
X60.42Y86.2
X60.42Y68.2
X60.42Y32.2
X60.42Y23.2
X60.42Y14.2
X60.67Y44.9
X60.695Y61.8
X61.42Y98.2
X61.42Y89.2
X61.42Y71.2
X61.42Y26.2
X61.42Y17.2
X61.42Y8.2
X61.62Y47.775
X62.17Y43.75
X62.42Y92.2
X62.42Y65.2
X62.42Y29.2
X62.42Y11.2
X62.77Y47.775
X62.795Y49.6
X62.795Y48.7
X63.42Y95.2
X63.42Y86.2
X63.42Y68.2
X63.42Y41.2
X63.42Y32.2
X63.42Y23.2
X63.42Y14.2
X63.492Y61.535
X64.33Y53.54
X64.345Y48.3
X64.42Y98.2
X64.42Y89.2
X64.42Y71.2
X64.42Y44.2
X64.42Y35.2
X64.42Y26.2
X64.42Y17.2
X64.42Y8.2
X64.92Y59.09
X65.42Y101.2
X65.42Y92.2
X65.42Y74.2
X65.42Y65.2
X65.42Y38.2
X65.42Y29.2
X65.42Y11.2
X65.599Y40.989
X65.62Y55.475
X65.62Y54.51
X66.42Y95.2
X66.42Y86.2
X66.42Y77.2
X66.42Y68.2
X66.42Y32.2
X66.42Y23.2
X66.42Y14.2
X66.47Y59.14
X66.72Y54.2
X66.92Y56.55
X67.42Y98.2
X67.42Y89.2
X67.42Y71.2
X67.42Y62.2
X67.42Y44.2
X67.42Y35.2
X67.42Y26.2
X67.42Y17.2
X67.42Y8.2
X67.77Y54.2
X67.77Y53.15
X68.42Y101.2
X68.42Y92.2
X68.42Y83.2
X68.42Y74.2
X68.42Y65.2
X68.42Y56.2
X68.42Y38.2
X68.42Y29.2
X68.42Y11.2
X69.42Y95.2
X69.42Y86.2
X69.42Y77.2
X69.42Y68.2
X69.42Y59.2
X69.42Y41.2
X69.42Y32.2
X69.42Y23.2
X69.42Y14.2
X70.42Y98.2
X70.42Y89.2
X70.42Y71.2
X70.42Y44.2
X70.42Y26.2
X70.42Y17.2
X70.42Y8.2
X71.42Y101.2
X71.42Y92.2
X71.42Y83.2
X71.42Y74.2
X71.42Y65.2
X71.42Y56.2
X71.42Y38.2
X71.42Y29.2
X71.42Y20.2
X71.42Y11.2
X72.42Y95.2
X72.42Y86.2
X72.42Y77.2
X72.42Y68.2
X72.42Y59.2
X72.42Y41.2
X72.42Y32.2
X72.42Y23.2
X72.42Y14.2
X73.42Y98.2
X73.42Y89.2
X73.42Y71.2
X73.42Y62.2
X73.42Y44.2
X73.42Y35.2
X73.42Y17.2
X73.42Y8.2
X73.695Y53.125
X73.695Y50.775
X73.695Y48.875
X73.695Y46.525
X74.42Y101.2
X74.42Y92.2
X74.42Y83.2
X74.42Y74.2
X74.42Y56.2
X74.42Y38.2
X74.42Y29.2
X74.42Y20.2
X74.42Y11.2
X74.72Y51.95
X74.72Y47.698
X75.42Y95.2
X75.42Y77.2
X75.42Y68.2
X75.42Y59.2
X75.42Y50.2
X75.42Y41.2
X75.42Y32.2
X75.42Y14.2
X76.42Y98.2
X76.42Y89.2
X76.42Y71.2
X76.42Y62.2
X76.42Y53.2
X76.42Y44.2
X76.42Y35.2
X76.42Y26.2
X76.42Y17.2
X76.42Y8.2
X77.42Y101.2
X77.42Y92.2
X77.42Y83.2
X77.42Y74.2
X77.42Y65.2
X77.42Y56.2
X77.42Y47.2
X77.42Y38.2
X77.42Y20.2
X77.42Y11.2
X78.42Y95.2
X78.42Y86.2
X78.42Y59.2
X78.42Y50.2
X78.42Y32.2
X78.42Y14.2
X78.42Y5.2
X79.42Y104.2
X79.42Y98.2
X79.42Y89.2
X79.42Y53.2
X79.42Y44.2
X79.42Y35.2
X79.42Y17.2
X79.42Y8.2
X80.245Y62.0
X80.245Y61.05
X80.325Y40.37
X80.325Y39.42
X80.42Y101.2
X80.42Y92.2
X80.42Y74.2
X80.42Y56.2
X80.42Y47.2
X80.42Y38.2
X80.42Y20.2
X80.42Y11.2
X81.336Y24.225
X81.42Y95.2
X81.42Y77.2
X81.42Y68.2
X81.42Y50.2
X81.42Y32.2
X81.42Y14.2
X81.42Y5.2
X81.72Y85.8
X82.42Y104.2
X82.42Y98.2
X82.42Y89.2
X82.42Y71.2
X82.42Y53.2
X82.42Y35.2
X82.42Y26.2
X82.42Y17.2
X82.42Y8.2
X82.47Y66.6
X82.475Y44.995
X82.735Y37.99
X83.05Y81.68
X83.42Y101.2
X83.42Y92.2
X83.42Y47.2
X83.42Y20.2
X83.42Y11.2
X83.57Y66.6
X83.596Y21.565
X83.625Y44.995
X83.735Y37.99
X84.246Y22.215
X84.42Y95.2
X84.42Y77.2
X84.42Y68.2
X84.42Y32.2
X84.42Y14.2
X84.42Y5.2
X84.67Y66.6
X84.7Y44.995
X84.845Y20.725
X84.896Y22.865
X84.976Y27.325
X85.42Y104.2
X85.42Y98.2
X85.42Y89.2
X85.42Y71.2
X85.42Y53.2
X85.42Y35.2
X85.42Y17.2
X85.42Y8.2
X85.495Y20.025
X85.52Y21.425
X85.84Y77.85
X86.195Y19.35
X86.22Y22.125
X86.42Y92.2
X86.42Y56.2
X86.42Y11.2
X86.42Y2.2
X86.97Y61.0
X87.045Y39.42
X87.42Y77.2
X87.42Y59.2
X87.42Y50.2
X87.42Y32.2
X87.42Y14.2
X87.47Y81.6
X88.02Y62.8
X88.07Y67.7
X88.075Y46.12
X88.075Y41.22
X88.12Y80.95
X88.345Y83.05
X88.42Y104.2
X88.42Y98.2
X88.42Y71.2
X88.42Y53.2
X88.42Y17.2
X88.77Y80.3
X89.045Y82.35
X89.27Y66.85
X89.32Y28.9
X89.342Y45.354
X89.42Y92.2
X89.42Y2.2
X89.745Y81.675
X90.32Y66.85
X90.342Y45.354
X90.42Y77.2
X90.42Y68.2
X90.42Y5.2
X90.445Y82.325
X91.12Y83.025
X91.42Y104.2
X91.42Y98.2
X91.42Y80.2
X91.42Y71.2
X91.42Y62.2
X91.42Y8.2
X92.42Y101.2
X92.42Y92.2
X92.42Y83.2
X92.42Y74.2
X92.42Y65.2
X92.42Y47.2
X92.42Y38.2
X92.42Y29.2
X93.22Y60.14
X93.22Y59.14
X93.22Y58.14
X93.22Y57.14
X93.22Y56.14
X93.42Y95.2
X93.42Y77.2
X93.42Y68.2
X93.42Y41.2
X93.42Y32.2
X93.42Y23.2
X93.42Y14.2
X94.42Y98.2
X94.42Y89.2
X94.42Y80.2
X94.42Y71.2
X94.42Y44.2
X94.42Y35.2
X94.42Y26.2
X94.42Y17.2
X94.42Y8.2
X95.42Y92.2
X95.42Y83.2
X95.42Y74.2
X95.42Y65.2
X95.42Y38.2
X95.42Y29.2
X95.42Y20.2
X95.42Y11.2
X96.42Y95.2
X96.42Y77.2
X96.42Y68.2
X96.42Y41.2
X96.42Y32.2
X96.42Y23.2
X96.42Y14.2
X97.42Y98.2
X97.42Y80.2
X97.42Y71.2
X97.42Y44.2
X97.42Y35.2
X97.42Y26.2
X97.42Y17.2
X98.42Y92.2
X98.42Y83.2
X98.42Y74.2
X98.42Y65.2
X98.42Y38.2
X98.42Y29.2
X98.42Y11.2
X99.42Y95.2
X99.42Y77.2
X99.42Y68.2
X99.42Y41.2
X99.42Y32.2
X99.42Y14.2
X100.42Y89.2
X100.42Y80.2
X100.42Y71.2
X100.42Y44.2
X100.42Y35.2
X100.42Y26.2
X100.42Y17.2
X101.42Y92.2
X101.42Y83.2
X101.42Y74.2
X101.42Y65.2
X101.42Y38.2
X101.42Y29.2
X101.42Y20.2
X102.42Y77.2
X102.42Y68.2
X102.42Y41.2
X102.42Y32.2
X103.42Y89.2
X103.42Y80.2
X103.42Y71.2
X103.42Y44.2
X103.42Y35.2
X103.42Y26.2
X103.42Y17.2
X104.42Y83.2
X104.42Y74.2
X104.42Y65.2
X104.42Y38.2
X104.42Y29.2
X104.42Y20.2
X105.42Y77.2
X105.42Y32.2
X106.42Y89.2
X106.42Y80.2
X106.42Y26.2
X107.42Y83.2
X107.42Y29.2
X107.42Y20.2
X108.42Y86.2
X108.42Y23.2
T2
X24.398Y23.013
X24.463Y85.325
X25.282Y22.129
X25.347Y86.209
X26.166Y21.245
X26.231Y87.092
X52.475Y76.45
X53.725Y76.45
X54.975Y76.45
X56.225Y76.45
X57.475Y76.45
X58.725Y76.45
X59.975Y76.45
X61.225Y76.45
X87.654Y86.672
X88.108Y21.053
X88.538Y85.788
X88.992Y21.937
X89.422Y84.904
X89.876Y22.821
T4
X96.62Y58.15
X96.62Y50.95
T3
G00X11.355Y59.12
M15
G01X10.555Y59.12
M16
G05
G00X11.355Y50.48
M15
G01X10.555Y50.48
M16
G05
G00X15.685Y59.12
M15
G01X14.585Y59.12
M16
G05
G00X15.685Y50.48
M15
G01X14.585Y50.48
M16
G05
G00X103.17Y61.3
M15
G01X102.07Y61.3
M16
G05
G00X103.17Y47.8
M15
G01X102.07Y47.8
M16
G05
T0
M30
