%TF.GenerationSoftware,KiCad,Pcbnew,7.0.5-0*%
%TF.CreationDate,2025-05-09T23:22:14+02:00*%
%TF.ProjectId,ghost-feather-v1,67686f73-742d-4666-9561-746865722d76,rev?*%
%TF.SameCoordinates,PX519d8e0PY8b6d5c0*%
%TF.FileFunction,Copper,L3,Inr*%
%TF.FilePolarity,Positive*%
%FSLAX46Y46*%
G04 Gerber Fmt 4.6, Leading zero omitted, Abs format (unit mm)*
G04 Created by KiCad (PCBNEW 7.0.5-0) date 2025-05-09 23:22:14*
%MOMM*%
%LPD*%
G01*
G04 APERTURE LIST*
G04 Aperture macros list*
%AMRoundRect*
0 Rectangle with rounded corners*
0 $1 Rounding radius*
0 $2 $3 $4 $5 $6 $7 $8 $9 X,Y pos of 4 corners*
0 Add a 4 corners polygon primitive as box body*
4,1,4,$2,$3,$4,$5,$6,$7,$8,$9,$2,$3,0*
0 Add four circle primitives for the rounded corners*
1,1,$1+$1,$2,$3*
1,1,$1+$1,$4,$5*
1,1,$1+$1,$6,$7*
1,1,$1+$1,$8,$9*
0 Add four rect primitives between the rounded corners*
20,1,$1+$1,$2,$3,$4,$5,0*
20,1,$1+$1,$4,$5,$6,$7,0*
20,1,$1+$1,$6,$7,$8,$9,0*
20,1,$1+$1,$8,$9,$2,$3,0*%
%AMHorizOval*
0 Thick line with rounded ends*
0 $1 width*
0 $2 $3 position (X,Y) of the first rounded end (center of the circle)*
0 $4 $5 position (X,Y) of the second rounded end (center of the circle)*
0 Add line between two ends*
20,1,$1,$2,$3,$4,$5,0*
0 Add two circle primitives to create the rounded ends*
1,1,$1,$2,$3*
1,1,$1,$4,$5*%
G04 Aperture macros list end*
%TA.AperFunction,ComponentPad*%
%ADD10RoundRect,0.200000X0.200000X0.450000X-0.200000X0.450000X-0.200000X-0.450000X0.200000X-0.450000X0*%
%TD*%
%TA.AperFunction,ComponentPad*%
%ADD11O,0.800000X1.300000*%
%TD*%
%TA.AperFunction,ComponentPad*%
%ADD12R,2.000000X0.900000*%
%TD*%
%TA.AperFunction,ComponentPad*%
%ADD13RoundRect,1.025000X-1.025000X1.025000X-1.025000X-1.025000X1.025000X-1.025000X1.025000X1.025000X0*%
%TD*%
%TA.AperFunction,ComponentPad*%
%ADD14C,4.100000*%
%TD*%
%TA.AperFunction,ComponentPad*%
%ADD15RoundRect,0.200000X-0.459619X-0.176777X-0.176777X-0.459619X0.459619X0.176777X0.176777X0.459619X0*%
%TD*%
%TA.AperFunction,ComponentPad*%
%ADD16HorizOval,0.800000X-0.176777X-0.176777X0.176777X0.176777X0*%
%TD*%
%TA.AperFunction,ComponentPad*%
%ADD17RoundRect,0.200000X0.176777X-0.459619X0.459619X-0.176777X-0.176777X0.459619X-0.459619X0.176777X0*%
%TD*%
%TA.AperFunction,ComponentPad*%
%ADD18HorizOval,0.800000X-0.176777X0.176777X0.176777X-0.176777X0*%
%TD*%
%TA.AperFunction,ComponentPad*%
%ADD19O,2.100000X1.000000*%
%TD*%
%TA.AperFunction,ComponentPad*%
%ADD20O,1.800000X1.000000*%
%TD*%
%TA.AperFunction,ComponentPad*%
%ADD21RoundRect,0.200000X0.459619X0.176777X0.176777X0.459619X-0.459619X-0.176777X-0.176777X-0.459619X0*%
%TD*%
%TA.AperFunction,ComponentPad*%
%ADD22HorizOval,0.800000X0.176777X0.176777X-0.176777X-0.176777X0*%
%TD*%
%TA.AperFunction,ComponentPad*%
%ADD23RoundRect,0.200000X-0.176777X0.459619X-0.459619X0.176777X0.176777X-0.459619X0.459619X-0.176777X0*%
%TD*%
%TA.AperFunction,ViaPad*%
%ADD24C,0.800000*%
%TD*%
%TA.AperFunction,ViaPad*%
%ADD25C,0.900000*%
%TD*%
G04 APERTURE END LIST*
D10*
%TO.N,+5V*%
%TO.C,J7*%
X61225000Y76450000D03*
D11*
%TO.N,/RF_CH0*%
X59975000Y76450000D03*
%TO.N,/RF_CH1*%
X58725000Y76450000D03*
%TO.N,/RF_CH2*%
X57475000Y76450000D03*
%TO.N,/RF_CH3*%
X56225000Y76450000D03*
%TO.N,/RF_CH4*%
X54975000Y76450000D03*
%TO.N,/RF_CH5*%
X53725000Y76450000D03*
%TO.N,GND*%
X52475000Y76450000D03*
%TD*%
D12*
%TO.N,*%
%TO.C,J8*%
X102620000Y61300000D03*
X102620000Y47800000D03*
D13*
%TO.N,GND*%
X96620000Y58150000D03*
D14*
%TO.N,+BATT*%
X96620000Y50950000D03*
%TD*%
D15*
%TO.N,GND*%
%TO.C,J3*%
X24398186Y23012729D03*
D16*
%TO.N,Net-(J3-Pin_2)*%
X25282069Y22128846D03*
%TO.N,+5V*%
X26165953Y21244962D03*
%TD*%
D17*
%TO.N,GND*%
%TO.C,J4*%
X88108464Y21053270D03*
D18*
%TO.N,Net-(J4-Pin_2)*%
X88992347Y21937153D03*
%TO.N,+5V*%
X89876231Y22821037D03*
%TD*%
D19*
%TO.N,GND*%
%TO.C,J2*%
X15135000Y59120000D03*
D20*
X10955000Y59120000D03*
D19*
X15135000Y50480000D03*
D20*
X10955000Y50480000D03*
%TD*%
D21*
%TO.N,GND*%
%TO.C,J6*%
X89421802Y84904035D03*
D22*
%TO.N,Net-(J6-Pin_2)*%
X88537919Y85787918D03*
%TO.N,+5V*%
X87654035Y86671802D03*
%TD*%
D23*
%TO.N,GND*%
%TO.C,J5*%
X26231095Y87092397D03*
D18*
%TO.N,Net-(J5-Pin_2)*%
X25347212Y86208514D03*
%TO.N,+5V*%
X24463328Y85324630D03*
%TD*%
D24*
%TO.N,+3V3*%
X52120000Y61725000D03*
X35620000Y51100000D03*
X30670000Y86750000D03*
X49495000Y49450000D03*
X25460000Y26790000D03*
X88770000Y80300000D03*
X24810000Y27440000D03*
X35620000Y50100000D03*
X66720000Y54200000D03*
X54620000Y68050000D03*
X26110000Y26140000D03*
X83050000Y81680000D03*
X62795000Y49600000D03*
X60695000Y61800000D03*
X82735000Y37990000D03*
X83735000Y37990000D03*
X61620000Y47775000D03*
X62795000Y48700000D03*
X88120000Y80950000D03*
X30570000Y26080000D03*
X64920000Y59090000D03*
X62770000Y47775000D03*
X29240000Y80970000D03*
X29370000Y85450000D03*
X84895571Y22864928D03*
X83595571Y21564928D03*
X35620000Y52100000D03*
X67770000Y53150000D03*
X84975571Y27324928D03*
X87470000Y81600000D03*
X30020000Y86100000D03*
X84245571Y22214928D03*
X52480000Y36640000D03*
X67770000Y54200000D03*
X58120000Y68600000D03*
%TO.N,GND*%
X19420000Y8200000D03*
X83420000Y11200000D03*
X60120000Y50550000D03*
X48420000Y23200000D03*
X8420000Y20200000D03*
X36420000Y32200000D03*
X87420000Y32200000D03*
X20420000Y47200000D03*
X41420000Y47200000D03*
D25*
X55420000Y89200000D03*
D24*
X48420000Y86200000D03*
X12420000Y23200000D03*
X45420000Y14200000D03*
D25*
X47420000Y101200000D03*
D24*
X60420000Y32200000D03*
X29420000Y11200000D03*
X77420000Y38200000D03*
X12420000Y77200000D03*
D25*
X34420000Y98200000D03*
D24*
X27420000Y77200000D03*
D25*
X66420000Y95200000D03*
D24*
X30420000Y59200000D03*
X43420000Y44200000D03*
X49420000Y35200000D03*
X80420000Y47200000D03*
X92420000Y74200000D03*
D25*
X79420000Y98200000D03*
X21420000Y104200000D03*
D24*
X70420000Y71200000D03*
X76420000Y44200000D03*
X83420000Y20200000D03*
X35420000Y65200000D03*
D25*
X32420000Y101200000D03*
D24*
X22420000Y17200000D03*
X40420000Y80200000D03*
X63420000Y86200000D03*
X13420000Y35200000D03*
D25*
X51420000Y95200000D03*
D24*
X17420000Y83200000D03*
X63492500Y61535000D03*
X74420000Y83200000D03*
X72420000Y86200000D03*
X64420000Y71200000D03*
X10420000Y80200000D03*
X58120000Y50550000D03*
X46420000Y62200000D03*
X44420000Y11200000D03*
X32420000Y74200000D03*
X82420000Y53200000D03*
D25*
X82420000Y98200000D03*
D24*
X78420000Y59200000D03*
X100420000Y44200000D03*
X24420000Y5200000D03*
D25*
X91420000Y98200000D03*
D24*
X48420000Y77200000D03*
X27420000Y5200000D03*
X23420000Y74200000D03*
X43420000Y8200000D03*
X21420000Y32200000D03*
X64420000Y26200000D03*
X76420000Y8200000D03*
X16420000Y17200000D03*
X57420000Y32200000D03*
X31420000Y62200000D03*
X105420000Y77200000D03*
X27420000Y32200000D03*
X54670000Y56650000D03*
X74420000Y56200000D03*
D25*
X53420000Y92200000D03*
D24*
X22420000Y44200000D03*
D25*
X97420000Y98200000D03*
D24*
X66420000Y86200000D03*
X19420000Y71200000D03*
X26420000Y65200000D03*
X73695000Y46525000D03*
X22420000Y71200000D03*
D25*
X74420000Y101200000D03*
D24*
X52420000Y26200000D03*
X23420000Y47200000D03*
D25*
X94420000Y98200000D03*
X47420000Y92200000D03*
D24*
X40420000Y71200000D03*
X75420000Y41200000D03*
X107420000Y29200000D03*
X46420000Y35200000D03*
X74420000Y20200000D03*
X101420000Y74200000D03*
D25*
X91420000Y104200000D03*
D24*
X71420000Y29200000D03*
X34420000Y71200000D03*
X23420000Y65200000D03*
X18420000Y32200000D03*
X81420000Y77200000D03*
X91120000Y83025000D03*
X81420000Y14200000D03*
X30420000Y77200000D03*
X44420000Y29200000D03*
X87420000Y50200000D03*
X19420000Y26200000D03*
X88075000Y41220000D03*
X73695000Y50775000D03*
X36420000Y14200000D03*
X37420000Y17200000D03*
X38420000Y47200000D03*
D25*
X29420000Y92200000D03*
X83420000Y92200000D03*
D24*
X86220000Y22125000D03*
X38420000Y83200000D03*
X31420000Y44200000D03*
X41420000Y11200000D03*
D25*
X95420000Y92200000D03*
X49420000Y98200000D03*
D24*
X103420000Y80200000D03*
X69420000Y59200000D03*
X101420000Y29200000D03*
X62170000Y43750000D03*
X91420000Y80200000D03*
X41420000Y65200000D03*
X63420000Y32200000D03*
X82420000Y17200000D03*
X79420000Y35200000D03*
X81420000Y50200000D03*
X40420000Y8200000D03*
X71420000Y20200000D03*
X45420000Y68200000D03*
X55420000Y8200000D03*
X24420000Y68200000D03*
X81420000Y5200000D03*
X46420000Y80200000D03*
X43420000Y35200000D03*
X76420000Y35200000D03*
X10420000Y26200000D03*
X42420000Y14200000D03*
X89342000Y45354000D03*
X40420000Y44200000D03*
X27420000Y50200000D03*
X39420000Y14200000D03*
X72420000Y32200000D03*
X15420000Y41200000D03*
X100420000Y26200000D03*
X71420000Y65200000D03*
X39420000Y68200000D03*
X100420000Y17200000D03*
D25*
X37420000Y98200000D03*
D24*
X64420000Y17200000D03*
X60670000Y44900000D03*
X37420000Y8200000D03*
X33420000Y86200000D03*
X104420000Y74200000D03*
D25*
X106420000Y89200000D03*
D24*
X67420000Y8200000D03*
X33420000Y77200000D03*
X42420000Y77200000D03*
X24770000Y25550000D03*
X14420000Y74200000D03*
D25*
X22420000Y98200000D03*
D24*
X77420000Y65200000D03*
X84420000Y14200000D03*
X6420000Y23200000D03*
X47020000Y49003000D03*
X41420000Y38200000D03*
X21420000Y77200000D03*
X25420000Y17200000D03*
X84420000Y77200000D03*
X16420000Y26200000D03*
D25*
X68420000Y92200000D03*
D24*
X65620000Y54510000D03*
X66420000Y23200000D03*
X52420000Y8200000D03*
X94420000Y80200000D03*
X30420000Y50200000D03*
X80420000Y20200000D03*
X25470000Y24850000D03*
X90342000Y45354000D03*
X16420000Y35200000D03*
X89745000Y81675000D03*
X63420000Y68200000D03*
X78420000Y5200000D03*
X47420000Y11200000D03*
X61420000Y17200000D03*
X90320000Y66850000D03*
X43420000Y80200000D03*
X47020000Y47850000D03*
X40420000Y62200000D03*
X102420000Y68200000D03*
D25*
X20420000Y101200000D03*
D24*
X11420000Y38200000D03*
D25*
X43420000Y89200000D03*
D24*
X17420000Y29200000D03*
X11420000Y20200000D03*
X79420000Y44200000D03*
X71420000Y38200000D03*
X86420000Y56200000D03*
X90420000Y68200000D03*
D25*
X68420000Y101200000D03*
X94420000Y89200000D03*
D24*
X55670000Y58150000D03*
X99420000Y32200000D03*
D25*
X74420000Y92200000D03*
X62420000Y92200000D03*
D24*
X56920000Y56700000D03*
D25*
X71420000Y92200000D03*
D24*
X33420000Y41200000D03*
X57420000Y14200000D03*
D25*
X50420000Y92200000D03*
X79420000Y89200000D03*
D24*
X56420000Y11200000D03*
X45420000Y41200000D03*
X7420000Y80200000D03*
X7420000Y86200000D03*
X52420000Y71200000D03*
X58170000Y58150000D03*
X97420000Y71200000D03*
X51420000Y32200000D03*
X58420000Y26200000D03*
X47420000Y29200000D03*
X69420000Y41200000D03*
X97420000Y80200000D03*
D25*
X49420000Y89200000D03*
D24*
X96420000Y41200000D03*
X79420000Y8200000D03*
X31420000Y71200000D03*
X96420000Y23200000D03*
D25*
X54420000Y95200000D03*
D24*
X92420000Y29200000D03*
X93220000Y58140000D03*
X18420000Y41200000D03*
D25*
X41420000Y101200000D03*
D24*
X42420000Y86200000D03*
X34420000Y8200000D03*
X74420000Y38200000D03*
X30420000Y41200000D03*
X40420000Y17200000D03*
X44420000Y74200000D03*
X33420000Y32200000D03*
X12420000Y32200000D03*
X76420000Y53200000D03*
X11420000Y65200000D03*
X45420000Y59200000D03*
X41420000Y29200000D03*
X66420000Y14200000D03*
X99420000Y14200000D03*
X43420000Y17200000D03*
X39420000Y86200000D03*
D25*
X70420000Y89200000D03*
D24*
X45420000Y32200000D03*
D25*
X21420000Y95200000D03*
D24*
X92420000Y47200000D03*
X82420000Y8200000D03*
X60170000Y58150000D03*
X41420000Y83200000D03*
D25*
X56420000Y92200000D03*
D24*
X33420000Y68200000D03*
X39420000Y32200000D03*
X28745000Y88125000D03*
X80420000Y38200000D03*
X80325000Y40370000D03*
X15580000Y47450000D03*
X72420000Y14200000D03*
X88420000Y17200000D03*
X20420000Y29200000D03*
X18420000Y59200000D03*
X5420000Y83200000D03*
X104420000Y20200000D03*
D25*
X76420000Y89200000D03*
D24*
X93420000Y32200000D03*
X35420000Y83200000D03*
X51420000Y23200000D03*
X91420000Y71200000D03*
D25*
X59420000Y92200000D03*
D24*
X82470000Y66600000D03*
X40420000Y26200000D03*
X84700000Y44995000D03*
X64420000Y8200000D03*
X97420000Y17200000D03*
X65420000Y65200000D03*
X61420000Y71200000D03*
X75420000Y77200000D03*
X32420000Y38200000D03*
X25420000Y71200000D03*
D25*
X67420000Y98200000D03*
D24*
X44420000Y83200000D03*
X94420000Y44200000D03*
D25*
X93420000Y95200000D03*
D24*
X65420000Y38200000D03*
D25*
X58420000Y98200000D03*
D24*
X27420000Y59200000D03*
D25*
X14420000Y92200000D03*
D24*
X43420000Y26200000D03*
X53150000Y63640000D03*
X18420000Y68200000D03*
D25*
X85420000Y98200000D03*
X40420000Y89200000D03*
D24*
X34420000Y62200000D03*
X34420000Y17200000D03*
X36420000Y5200000D03*
D25*
X37420000Y89200000D03*
D24*
X104420000Y38200000D03*
X80420000Y56200000D03*
X84845000Y20725000D03*
D25*
X46420000Y89200000D03*
D24*
X67420000Y35200000D03*
D25*
X73420000Y98200000D03*
D24*
X84420000Y32200000D03*
D25*
X77420000Y92200000D03*
D24*
X45420000Y77200000D03*
X54620000Y52000000D03*
X22420000Y62200000D03*
D25*
X55420000Y98200000D03*
D24*
X37420000Y62200000D03*
X16420000Y80200000D03*
D25*
X19420000Y98200000D03*
D24*
X97420000Y35200000D03*
X99420000Y68200000D03*
X101420000Y65200000D03*
X86970000Y61000000D03*
D25*
X23420000Y92200000D03*
D24*
X49420000Y8200000D03*
X56870000Y52000000D03*
X88075000Y46120000D03*
X22420000Y8200000D03*
X18420000Y77200000D03*
X41420000Y56200000D03*
X24070000Y26225000D03*
D25*
X67420000Y89200000D03*
D24*
X18420000Y14200000D03*
D25*
X20420000Y92200000D03*
D24*
X63420000Y23200000D03*
D25*
X48420000Y95200000D03*
D24*
X20420000Y11200000D03*
X32420000Y65200000D03*
X60420000Y14200000D03*
X28420000Y62200000D03*
X67420000Y62200000D03*
X47560000Y50550000D03*
X73420000Y8200000D03*
X75420000Y32200000D03*
X73420000Y71200000D03*
X74420000Y11200000D03*
X92420000Y65200000D03*
D25*
X42420000Y95200000D03*
X99420000Y95200000D03*
X44420000Y101200000D03*
D24*
X70420000Y17200000D03*
D25*
X65420000Y92200000D03*
D24*
X56970000Y68470000D03*
X75420000Y50200000D03*
X85420000Y53200000D03*
X89270000Y66850000D03*
D25*
X80420000Y101200000D03*
D24*
X95420000Y38200000D03*
X54420000Y14200000D03*
X93220000Y56140000D03*
X93420000Y14200000D03*
X17420000Y11200000D03*
X85495000Y20025000D03*
X20420000Y83200000D03*
X66420000Y77200000D03*
X85420000Y71200000D03*
X22420000Y26200000D03*
X86420000Y11200000D03*
X50420000Y38200000D03*
X59670000Y63750000D03*
X26420000Y2200000D03*
D25*
X88420000Y104200000D03*
D24*
X50420000Y29200000D03*
X68420000Y83200000D03*
X96420000Y68200000D03*
X69420000Y68200000D03*
X44420000Y56200000D03*
X71420000Y83200000D03*
X38420000Y56200000D03*
X53420000Y29200000D03*
D25*
X35420000Y101200000D03*
D24*
X10420000Y44200000D03*
D25*
X33420000Y104200000D03*
X35420000Y92200000D03*
X86420000Y92200000D03*
D24*
X68420000Y29200000D03*
D25*
X85420000Y104200000D03*
D24*
X48420000Y41200000D03*
X72420000Y23200000D03*
X101420000Y38200000D03*
X81420000Y68200000D03*
D25*
X82420000Y89200000D03*
X92420000Y92200000D03*
X46420000Y98200000D03*
X28420000Y98200000D03*
D24*
X99420000Y77200000D03*
X76420000Y26200000D03*
X65420000Y29200000D03*
X104420000Y65200000D03*
X40420000Y35200000D03*
X37420000Y44200000D03*
X89320000Y28900000D03*
X19420000Y44200000D03*
X50420000Y11200000D03*
X77420000Y47200000D03*
X70420000Y26200000D03*
X87420000Y59200000D03*
X68420000Y65200000D03*
X13420000Y26200000D03*
X29420000Y47200000D03*
D25*
X36420000Y95200000D03*
D24*
X108420000Y86200000D03*
X57420000Y86200000D03*
X36420000Y59200000D03*
X101420000Y20200000D03*
X25420000Y44200000D03*
X20420000Y38200000D03*
X15420000Y32200000D03*
X74420000Y29200000D03*
X89420000Y2200000D03*
X11420000Y83200000D03*
X60420000Y23200000D03*
X103420000Y35200000D03*
X29420000Y74200000D03*
X80245000Y62000000D03*
X60420000Y68200000D03*
X90420000Y77200000D03*
D25*
X69420000Y95200000D03*
D24*
X75420000Y14200000D03*
X64420000Y44200000D03*
X30420000Y5200000D03*
D25*
X96420000Y95200000D03*
X33420000Y95200000D03*
D24*
X59420000Y29200000D03*
X24420000Y50200000D03*
X36420000Y68200000D03*
X32420000Y47200000D03*
X77420000Y83200000D03*
X9420000Y77200000D03*
X100420000Y35200000D03*
X93220000Y60140000D03*
X31910000Y21890000D03*
X15420000Y68200000D03*
D25*
X101420000Y92200000D03*
D24*
X86420000Y2200000D03*
X82420000Y35200000D03*
X81420000Y32200000D03*
X67420000Y17200000D03*
X19420000Y80200000D03*
X96420000Y77200000D03*
X12420000Y68200000D03*
X103420000Y44200000D03*
X98420000Y29200000D03*
D25*
X39420000Y95200000D03*
D24*
X82420000Y26200000D03*
X8420000Y83200000D03*
D25*
X24420000Y104200000D03*
X27420000Y104200000D03*
D24*
X24420000Y32200000D03*
X64345000Y48300000D03*
X21420000Y5200000D03*
X45420000Y23200000D03*
X51420000Y14200000D03*
X35420000Y11200000D03*
X46420000Y17200000D03*
X29420000Y65200000D03*
X79420000Y17200000D03*
X94420000Y35200000D03*
X74720000Y51950000D03*
X85420000Y17200000D03*
X29395000Y87425000D03*
X15420000Y14200000D03*
D25*
X34420000Y89200000D03*
D24*
X45420000Y86200000D03*
X68420000Y56200000D03*
X36420000Y41200000D03*
X47420000Y38200000D03*
X51420000Y86200000D03*
D25*
X43420000Y98200000D03*
D24*
X49420000Y26200000D03*
X81720000Y85800000D03*
X29320000Y54900000D03*
X78420000Y86200000D03*
X71420000Y56200000D03*
X48420000Y32200000D03*
X54420000Y86200000D03*
X68420000Y11200000D03*
X66420000Y32200000D03*
D25*
X61420000Y98200000D03*
D24*
X19420000Y62200000D03*
X67420000Y26200000D03*
X34420000Y35200000D03*
X78420000Y50200000D03*
X106420000Y80200000D03*
X47420000Y74200000D03*
X56420000Y29200000D03*
X34420000Y44200000D03*
X92420000Y83200000D03*
X85420000Y8200000D03*
X55620000Y50550000D03*
X21420000Y41200000D03*
X53420000Y11200000D03*
D25*
X52420000Y89200000D03*
D24*
X95420000Y20200000D03*
D25*
X38420000Y92200000D03*
D24*
X75420000Y59200000D03*
X72420000Y59200000D03*
D25*
X82420000Y104200000D03*
X98420000Y92200000D03*
D24*
X87045000Y39420000D03*
X13420000Y44200000D03*
D25*
X89420000Y92200000D03*
D24*
X98420000Y83200000D03*
X39420000Y59200000D03*
X14420000Y83200000D03*
X86195000Y19350000D03*
X58420000Y8200000D03*
X38420000Y38200000D03*
X42420000Y23200000D03*
X77420000Y74200000D03*
X73695000Y48875000D03*
X91420000Y62200000D03*
X42420000Y68200000D03*
X27420000Y41200000D03*
D25*
X61420000Y89200000D03*
D24*
X106420000Y26200000D03*
X53620000Y50550000D03*
X21420000Y23200000D03*
X93220000Y57140000D03*
X77420000Y56200000D03*
X102420000Y32200000D03*
X80420000Y11200000D03*
X79420000Y53200000D03*
X59170000Y56700000D03*
X38420000Y29200000D03*
X62420000Y11200000D03*
D25*
X76420000Y98200000D03*
D24*
X77420000Y20200000D03*
X9420000Y68200000D03*
X100420000Y80200000D03*
X82475000Y44995000D03*
D25*
X73420000Y89200000D03*
D24*
X60420000Y86200000D03*
X9420000Y41200000D03*
D25*
X12420000Y89200000D03*
D24*
X22695000Y24875000D03*
X66470000Y59140000D03*
X102420000Y41200000D03*
X96420000Y14200000D03*
X9420000Y32200000D03*
X62420000Y65200000D03*
X97420000Y26200000D03*
X59420000Y11200000D03*
X66920000Y56550000D03*
X68420000Y74200000D03*
X91420000Y8200000D03*
X84670000Y66600000D03*
X103420000Y71200000D03*
X89045000Y82350000D03*
X88420000Y53200000D03*
D25*
X30420000Y104200000D03*
D24*
X61420000Y8200000D03*
X55420000Y17200000D03*
X28420000Y71200000D03*
X93420000Y23200000D03*
X34420000Y80200000D03*
X107420000Y83200000D03*
X95420000Y11200000D03*
X46420000Y8200000D03*
X76420000Y62200000D03*
X84420000Y5200000D03*
X94420000Y26200000D03*
X44420000Y38200000D03*
X82420000Y71200000D03*
X35420000Y56200000D03*
X88070000Y67700000D03*
X17420000Y38200000D03*
X103420000Y26200000D03*
X14420000Y38200000D03*
D25*
X57420000Y95200000D03*
D24*
X18420000Y23200000D03*
X107420000Y20200000D03*
X55420000Y26200000D03*
X73420000Y17200000D03*
X28045000Y88800000D03*
D25*
X26420000Y92200000D03*
D24*
X13420000Y17200000D03*
X33420000Y50200000D03*
X21420000Y59200000D03*
X11420000Y74200000D03*
X76420000Y17200000D03*
X33420000Y5200000D03*
X80245000Y61050000D03*
X78420000Y14200000D03*
X53670000Y58150000D03*
X98420000Y38200000D03*
D25*
X58420000Y89200000D03*
D24*
X95420000Y83200000D03*
X69420000Y32200000D03*
X57420000Y23200000D03*
X17420000Y74200000D03*
X67420000Y71200000D03*
X46420000Y26200000D03*
X35420000Y74200000D03*
X24420000Y59200000D03*
X69420000Y14200000D03*
X94420000Y8200000D03*
X67420000Y44200000D03*
D25*
X40420000Y98200000D03*
D24*
X38420000Y74200000D03*
X30420000Y14200000D03*
X102420000Y77200000D03*
X54420000Y23200000D03*
X70420000Y8200000D03*
X14420000Y47200000D03*
X13420000Y80200000D03*
X108420000Y23200000D03*
X88020000Y62800000D03*
X8420000Y29200000D03*
D25*
X30420000Y95200000D03*
D24*
X58420000Y17200000D03*
D25*
X45420000Y95200000D03*
D24*
X72420000Y77200000D03*
X42420000Y41200000D03*
X103420000Y17200000D03*
X95420000Y65200000D03*
X38420000Y11200000D03*
X29420000Y29200000D03*
D25*
X81420000Y95200000D03*
D24*
X35420000Y29200000D03*
X42420000Y59200000D03*
D25*
X12420000Y61200000D03*
D24*
X11420000Y29200000D03*
X24420000Y41200000D03*
D25*
X88420000Y98200000D03*
X44420000Y92200000D03*
D24*
X49420000Y17200000D03*
X88420000Y71200000D03*
X8420000Y74200000D03*
X23370000Y25575000D03*
D25*
X100420000Y89200000D03*
X71420000Y101200000D03*
D24*
X69420000Y77200000D03*
X31420000Y8200000D03*
D25*
X70420000Y98200000D03*
D24*
X25420000Y62200000D03*
D25*
X38420000Y101200000D03*
X64420000Y98200000D03*
D24*
X77420000Y11200000D03*
X71420000Y74200000D03*
D25*
X27420000Y95200000D03*
D24*
X15720000Y62000000D03*
D25*
X103420000Y89200000D03*
D24*
X28420000Y44200000D03*
D25*
X9420000Y89200000D03*
D24*
X16420000Y44200000D03*
X15420000Y77200000D03*
X83420000Y47200000D03*
X22420000Y35200000D03*
X98420000Y65200000D03*
D25*
X65420000Y101200000D03*
D24*
X10420000Y17200000D03*
D25*
X12420000Y95200000D03*
D24*
X21420000Y50200000D03*
X99420000Y41200000D03*
X31420000Y80200000D03*
X78420000Y32200000D03*
X90445000Y82325000D03*
X26420000Y47200000D03*
X73420000Y35200000D03*
X70420000Y44200000D03*
X28420000Y8200000D03*
D25*
X79420000Y104200000D03*
D24*
X104420000Y83200000D03*
X65620000Y55475000D03*
X28720000Y86725000D03*
X27420000Y68200000D03*
X90420000Y5200000D03*
X95420000Y74200000D03*
X12420000Y41200000D03*
X36420000Y77200000D03*
D25*
X85420000Y89200000D03*
X52420000Y98200000D03*
D24*
X69420000Y23200000D03*
X97420000Y44200000D03*
X58420000Y71200000D03*
X37420000Y71200000D03*
D25*
X15420000Y95200000D03*
X64420000Y89200000D03*
D24*
X87420000Y77200000D03*
X85520000Y21425000D03*
X7420000Y26200000D03*
X104420000Y29200000D03*
X98420000Y74200000D03*
X19420000Y17200000D03*
X37420000Y26200000D03*
X33420000Y14200000D03*
D25*
X63420000Y95200000D03*
D24*
X47420000Y83200000D03*
X73420000Y44200000D03*
D25*
X31420000Y89200000D03*
D24*
X59120000Y52050000D03*
X20420000Y65200000D03*
X73420000Y62200000D03*
X65420000Y11200000D03*
X21420000Y14200000D03*
X61420000Y26200000D03*
D25*
X72420000Y95200000D03*
D24*
X58420000Y44200000D03*
X93420000Y77200000D03*
X16420000Y71200000D03*
X48420000Y14200000D03*
D25*
X31420000Y98200000D03*
D24*
X28420000Y17200000D03*
D25*
X78420000Y95200000D03*
X83420000Y101200000D03*
D24*
X80325000Y39420000D03*
X93420000Y68200000D03*
X31420000Y17200000D03*
X105420000Y32200000D03*
X80420000Y74200000D03*
X88345000Y83050000D03*
D25*
X16420000Y98200000D03*
D24*
X27420000Y14200000D03*
X14420000Y29200000D03*
X38420000Y65200000D03*
X71420000Y11200000D03*
X28020000Y86025000D03*
X21420000Y68200000D03*
D25*
X11420000Y92200000D03*
D24*
X63420000Y41200000D03*
X73695000Y53125000D03*
D25*
X18420000Y95200000D03*
D24*
X94420000Y17200000D03*
X22420000Y80200000D03*
X98420000Y11200000D03*
X52420000Y17200000D03*
X74420000Y74200000D03*
X23420000Y29200000D03*
D25*
X75420000Y95200000D03*
D24*
X93420000Y41200000D03*
D25*
X19420000Y89200000D03*
D24*
X84420000Y68200000D03*
D25*
X23420000Y101200000D03*
D24*
X83570000Y66600000D03*
X31420000Y35200000D03*
X30420000Y68200000D03*
X33420000Y59200000D03*
X37420000Y35200000D03*
X68420000Y38200000D03*
X85420000Y35200000D03*
X72420000Y68200000D03*
X11420000Y47200000D03*
D25*
X80420000Y92200000D03*
D24*
X43420000Y71200000D03*
X12420000Y14200000D03*
X92420000Y38200000D03*
X54420000Y32200000D03*
X64420000Y35200000D03*
X93220000Y59140000D03*
X10420000Y71200000D03*
X87420000Y14200000D03*
X44420000Y65200000D03*
X25020000Y79600000D03*
X74720000Y47697801D03*
X95420000Y29200000D03*
X100420000Y71200000D03*
D25*
X29420000Y101200000D03*
D24*
X83625000Y44995000D03*
X62420000Y29200000D03*
X42420000Y32200000D03*
X23420000Y83200000D03*
D25*
X17420000Y92200000D03*
X41420000Y92200000D03*
D24*
X94420000Y71200000D03*
D25*
X60420000Y95200000D03*
D24*
X76420000Y71200000D03*
D25*
X32420000Y92200000D03*
X77420000Y101200000D03*
D24*
X10420000Y35200000D03*
X32420000Y11200000D03*
X96420000Y32200000D03*
X14420000Y65200000D03*
D25*
X84420000Y95200000D03*
D24*
X55420000Y71200000D03*
X101420000Y83200000D03*
X66420000Y68200000D03*
X69420000Y86200000D03*
X18420000Y86200000D03*
D25*
X92420000Y101200000D03*
D24*
X75420000Y68200000D03*
X19420000Y35200000D03*
X65420000Y74200000D03*
X35420000Y47200000D03*
X43420000Y62200000D03*
X72420000Y41200000D03*
X41420000Y74200000D03*
X13420000Y71200000D03*
X63420000Y14200000D03*
%TO.N,/SWD_NRST*%
X65599015Y40989015D03*
X64330000Y53540000D03*
%TO.N,/BOOT0*%
X45040000Y44385500D03*
X56990487Y44901318D03*
%TO.N,/SWD_DIO*%
X50570000Y45754500D03*
X49100000Y51890000D03*
%TO.N,/ESC0*%
X56870000Y46910000D03*
X27400000Y29630000D03*
%TO.N,/ESC1*%
X56950000Y45900000D03*
X81335571Y24224928D03*
%TO.N,/ESC2*%
X33080000Y84090000D03*
X59615948Y45301469D03*
%TO.N,/ESC3*%
X85840000Y77850000D03*
X59660000Y46300000D03*
%TO.N,/BMI270_CSB*%
X55545000Y62400000D03*
X58774500Y62450000D03*
%TO.N,/SPI1_SCK*%
X56270000Y63530000D03*
X58670000Y63482528D03*
%TD*%
%TA.AperFunction,Conductor*%
%TO.N,GND*%
G36*
X26225890Y107310244D02*
G01*
X26228378Y107310053D01*
X26467316Y107283506D01*
X26471542Y107282785D01*
X26566798Y107260803D01*
X26694148Y107231415D01*
X26698091Y107230271D01*
X27048256Y107107239D01*
X27496992Y106941916D01*
X27557268Y106919709D01*
X27564561Y106916283D01*
X27566638Y106915547D01*
X27566640Y106915545D01*
X27617860Y106897386D01*
X27642243Y106888402D01*
X27642251Y106888401D01*
X27644642Y106887764D01*
X27647480Y106886885D01*
X28718236Y106507253D01*
X29918081Y106069214D01*
X29927806Y106064705D01*
X29928547Y106064448D01*
X29928549Y106064447D01*
X29979280Y106046871D01*
X30003102Y106038174D01*
X30003114Y106038172D01*
X30007091Y106037124D01*
X30009758Y106036312D01*
X31080011Y105665516D01*
X31192331Y105626602D01*
X31198162Y105623991D01*
X31201120Y105622998D01*
X31201123Y105622996D01*
X31252954Y105605598D01*
X31277936Y105596943D01*
X31277951Y105596941D01*
X31279445Y105596573D01*
X31282382Y105595721D01*
X32625737Y105144805D01*
X32636050Y105139333D01*
X32636403Y105140032D01*
X32642525Y105136950D01*
X32642526Y105136950D01*
X32642527Y105136949D01*
X32689679Y105123308D01*
X32691078Y105122871D01*
X32710773Y105116260D01*
X32711867Y105116107D01*
X32722168Y105113909D01*
X33896412Y104774190D01*
X34284534Y104661903D01*
X35932894Y104160647D01*
X35943068Y104155603D01*
X35943446Y104156403D01*
X35949644Y104153482D01*
X35949646Y104153480D01*
X35985552Y104144094D01*
X35997526Y104140963D01*
X35998934Y104140565D01*
X36019212Y104134398D01*
X36019406Y104134377D01*
X36019786Y104134334D01*
X36030366Y104132378D01*
X37473343Y103755128D01*
X37484520Y103751227D01*
X37486487Y103750359D01*
X37486494Y103750354D01*
X37537230Y103738417D01*
X37537978Y103738231D01*
X37560931Y103732229D01*
X37560938Y103732229D01*
X37564307Y103731674D01*
X37564284Y103731539D01*
X37570426Y103730607D01*
X39233043Y103339402D01*
X39519956Y103271893D01*
X39530683Y103268490D01*
X39535647Y103266489D01*
X39535652Y103266486D01*
X39585373Y103256482D01*
X39586494Y103256237D01*
X39608278Y103251111D01*
X39608280Y103251111D01*
X39611663Y103250639D01*
X39618727Y103249771D01*
X41169018Y102937822D01*
X41170688Y102937323D01*
X41176384Y102936193D01*
X41176386Y102936191D01*
X41230891Y102925371D01*
X41230887Y102925353D01*
X41231080Y102925333D01*
X41244779Y102922577D01*
X41258019Y102919912D01*
X41258021Y102919912D01*
X41258831Y102919749D01*
X41260436Y102919505D01*
X42529762Y102667507D01*
X42540061Y102663573D01*
X42540406Y102664533D01*
X42546856Y102662221D01*
X42596263Y102654281D01*
X42597503Y102654058D01*
X42618794Y102649831D01*
X42618842Y102649831D01*
X42629763Y102648898D01*
X44780433Y102303254D01*
X44790289Y102300800D01*
X44806971Y102298386D01*
X44844658Y102292931D01*
X44869808Y102288889D01*
X44869820Y102288890D01*
X44873553Y102288639D01*
X44876371Y102288342D01*
X47064613Y101971622D01*
X47075076Y101968278D01*
X47075363Y101969231D01*
X47081929Y101967256D01*
X47081931Y101967255D01*
X47131705Y101961888D01*
X47132968Y101961729D01*
X47154512Y101958610D01*
X47154522Y101958611D01*
X47154590Y101958607D01*
X47165469Y101958247D01*
X49115387Y101747962D01*
X49126779Y101745820D01*
X49130157Y101744906D01*
X49130159Y101744905D01*
X49181521Y101740818D01*
X49182415Y101740734D01*
X49205463Y101738247D01*
X49205473Y101738248D01*
X49208892Y101738196D01*
X49208890Y101738120D01*
X49215477Y101738115D01*
X51133513Y101585435D01*
X51144724Y101583668D01*
X51149426Y101582552D01*
X51158238Y101582128D01*
X51200265Y101580103D01*
X51201375Y101580032D01*
X51223911Y101578238D01*
X51223921Y101578240D01*
X51227334Y101578283D01*
X51227334Y101578263D01*
X51234302Y101578462D01*
X52802765Y101502874D01*
X52814034Y101501459D01*
X52818739Y101500497D01*
X52818743Y101500495D01*
X52869700Y101499632D01*
X52870761Y101499597D01*
X52893347Y101498508D01*
X52893359Y101498510D01*
X52896775Y101498660D01*
X52896776Y101498638D01*
X52903719Y101499056D01*
X55172219Y101460606D01*
X55180656Y101459735D01*
X55182624Y101459728D01*
X55182625Y101459727D01*
X55236838Y101459511D01*
X55262748Y101459071D01*
X55262766Y101459075D01*
X55265494Y101459280D01*
X55268412Y101459385D01*
X57676134Y101449754D01*
X57688236Y101448709D01*
X57688820Y101448610D01*
X57688822Y101448609D01*
X57688823Y101448610D01*
X57688824Y101448609D01*
X57741547Y101449484D01*
X57742249Y101449489D01*
X57765757Y101449395D01*
X57766636Y101449391D01*
X57766636Y101449392D01*
X57766642Y101449391D01*
X57766647Y101449393D01*
X57770055Y101449694D01*
X57770073Y101449481D01*
X57775791Y101450053D01*
X60092327Y101488502D01*
X60104352Y101487720D01*
X60105416Y101487563D01*
X60105417Y101487564D01*
X60105418Y101487563D01*
X60157947Y101489585D01*
X60158581Y101489602D01*
X60182827Y101490003D01*
X60182837Y101490006D01*
X60186236Y101490376D01*
X60186256Y101490190D01*
X60192105Y101490898D01*
X61400555Y101537377D01*
X61412624Y101535882D01*
X61412687Y101536503D01*
X61419511Y101535819D01*
X61419511Y101535820D01*
X61419512Y101535819D01*
X61467702Y101539922D01*
X61469311Y101540022D01*
X61489372Y101540792D01*
X61493735Y101541783D01*
X61498767Y101542565D01*
X62822890Y101655256D01*
X62827423Y101655238D01*
X62831575Y101655620D01*
X62831579Y101655619D01*
X62886504Y101660671D01*
X62894375Y101661341D01*
X62913226Y101662944D01*
X62913237Y101662948D01*
X62913739Y101663037D01*
X62916883Y101663464D01*
X64565114Y101815026D01*
X64577112Y101815151D01*
X64578444Y101815058D01*
X64578452Y101815055D01*
X64630570Y101821037D01*
X64631234Y101821106D01*
X64655243Y101823312D01*
X64655249Y101823314D01*
X64655252Y101823314D01*
X64658607Y101823938D01*
X64658638Y101823769D01*
X64664500Y101824930D01*
X67012671Y102094393D01*
X67024245Y102093815D01*
X67024269Y102094624D01*
X67031116Y102094426D01*
X67031122Y102094424D01*
X67079713Y102102055D01*
X67081217Y102102259D01*
X67101921Y102104634D01*
X67102835Y102104917D01*
X67113161Y102107307D01*
X69444508Y102473386D01*
X69455749Y102474281D01*
X69460964Y102474297D01*
X69460970Y102474296D01*
X69510878Y102483791D01*
X69511984Y102483982D01*
X69519431Y102485151D01*
X69534117Y102487456D01*
X69534119Y102487457D01*
X69534122Y102487457D01*
X69534124Y102487458D01*
X69537440Y102488298D01*
X69537441Y102488293D01*
X69544262Y102490141D01*
X71294611Y102823087D01*
X71306782Y102824371D01*
X71306816Y102824373D01*
X71306826Y102824371D01*
X71352027Y102833871D01*
X71358963Y102835328D01*
X71383503Y102839995D01*
X71383505Y102839996D01*
X71383507Y102839996D01*
X71383508Y102839997D01*
X71386798Y102840944D01*
X71386867Y102840704D01*
X71392225Y102842319D01*
X74060364Y103403014D01*
X74071794Y103404498D01*
X74075680Y103404697D01*
X74125547Y103416695D01*
X74126577Y103416928D01*
X74149048Y103421649D01*
X74149057Y103421653D01*
X74152320Y103422660D01*
X74152337Y103422604D01*
X74158721Y103424678D01*
X75399221Y103723145D01*
X75403897Y103723837D01*
X75407843Y103724817D01*
X75407846Y103724816D01*
X75461359Y103738094D01*
X75487366Y103744351D01*
X75487379Y103744357D01*
X75487957Y103744554D01*
X75490996Y103745448D01*
X76731527Y104053250D01*
X76743290Y104055179D01*
X76745053Y104055325D01*
X76745059Y104055324D01*
X76787268Y104066864D01*
X76795410Y104069089D01*
X76796259Y104069310D01*
X76819394Y104075050D01*
X76822622Y104076176D01*
X76822672Y104076032D01*
X76828411Y104078112D01*
X78128768Y104433605D01*
X78140345Y104435796D01*
X78142785Y104436060D01*
X78142791Y104436059D01*
X78183835Y104448409D01*
X78192461Y104451004D01*
X78193322Y104451252D01*
X78216102Y104457479D01*
X78216109Y104457483D01*
X78216111Y104457483D01*
X78219320Y104458687D01*
X78219363Y104458573D01*
X78225224Y104460863D01*
X79266579Y104774191D01*
X79278514Y104776730D01*
X79278792Y104776766D01*
X79278792Y104776767D01*
X79278794Y104776766D01*
X79329453Y104793108D01*
X79353244Y104800266D01*
X79353247Y104800268D01*
X79356417Y104801551D01*
X79356503Y104801338D01*
X79361734Y104803523D01*
X80202527Y105074746D01*
X80208785Y105076174D01*
X80211734Y105077158D01*
X80211736Y105077157D01*
X80263671Y105094469D01*
X80288754Y105102560D01*
X80288761Y105102565D01*
X80290180Y105103171D01*
X80293054Y105104264D01*
X81433605Y105484448D01*
X81992436Y105664716D01*
X81995975Y105665516D01*
X82000433Y105666982D01*
X82000436Y105666981D01*
X82053034Y105684264D01*
X82078754Y105692560D01*
X82078776Y105692573D01*
X82078793Y105692579D01*
X82081813Y105693721D01*
X82694048Y105894883D01*
X82704969Y105896505D01*
X82704796Y105897518D01*
X82711551Y105898675D01*
X82711557Y105898674D01*
X82758417Y105916006D01*
X82759704Y105916455D01*
X82762644Y105917422D01*
X82780254Y105923207D01*
X82780320Y105923244D01*
X82790271Y105927789D01*
X83435449Y106166416D01*
X83444312Y106168858D01*
X83445793Y106169431D01*
X83445798Y106169430D01*
X83496225Y106188894D01*
X83520358Y106197819D01*
X83520365Y106197824D01*
X83523225Y106199193D01*
X83525872Y106200337D01*
X84067942Y106409558D01*
X84068033Y106409559D01*
X84068022Y106409588D01*
X84068023Y106409588D01*
X85049294Y106787001D01*
X85055224Y106788701D01*
X85058241Y106789894D01*
X85058243Y106789894D01*
X85109214Y106810046D01*
X85133861Y106819525D01*
X85133873Y106819533D01*
X85135127Y106820153D01*
X85137934Y106821401D01*
X85535874Y106978727D01*
X85536742Y106979055D01*
X85874145Y107100895D01*
X85878131Y107102085D01*
X85993862Y107129639D01*
X86054515Y107144080D01*
X86057841Y107144713D01*
X86368656Y107189116D01*
X86444842Y107199999D01*
X86448733Y107200347D01*
X86457256Y107200657D01*
X86971512Y107219357D01*
X86973545Y107219373D01*
X87461537Y107209805D01*
X87464288Y107209648D01*
X87768381Y107180961D01*
X87966243Y107162295D01*
X87969613Y107161819D01*
X88467350Y107067907D01*
X88470985Y107067027D01*
X88976792Y106916865D01*
X89083129Y106885296D01*
X89085584Y106884473D01*
X89457904Y106744852D01*
X89461454Y106743303D01*
X89711917Y106618071D01*
X89714843Y106616440D01*
X89786759Y106571920D01*
X89899032Y106502418D01*
X89901759Y106500557D01*
X90035179Y106400491D01*
X90038227Y106397938D01*
X90321151Y106133876D01*
X90321976Y106133081D01*
X107564217Y89010786D01*
X107565089Y89009890D01*
X107903547Y88650278D01*
X108004112Y88543427D01*
X108038825Y88506545D01*
X108039302Y88506027D01*
X108309749Y88206605D01*
X108311266Y88204813D01*
X108387930Y88108150D01*
X108534310Y87923584D01*
X108625798Y87807700D01*
X108674977Y87745407D01*
X108676871Y87742779D01*
X108868818Y87450290D01*
X108870814Y87446860D01*
X108960050Y87272637D01*
X109069709Y87058540D01*
X109070306Y87057319D01*
X109270859Y86627565D01*
X109272201Y86624289D01*
X109372260Y86342306D01*
X109373141Y86339465D01*
X109404657Y86221278D01*
X109405513Y86217124D01*
X109451643Y85903438D01*
X109451840Y85901862D01*
X109509972Y85339930D01*
X109510141Y85337544D01*
X109529301Y84839368D01*
X109529316Y84836972D01*
X109524324Y84647283D01*
X109520564Y84504374D01*
X109520149Y84488620D01*
X109519752Y84484100D01*
X109464204Y84113780D01*
X109463846Y84111772D01*
X109409323Y83848242D01*
X109408338Y83844486D01*
X109264317Y83393219D01*
X109094752Y82884523D01*
X109091862Y82877847D01*
X109074390Y82823436D01*
X109066114Y82798606D01*
X109065649Y82796612D01*
X109064848Y82793722D01*
X108724100Y81732539D01*
X108423841Y80812993D01*
X108419486Y80802476D01*
X108417408Y80798382D01*
X108403067Y80749426D01*
X108402732Y80748344D01*
X108395699Y80726808D01*
X108394944Y80723476D01*
X108394914Y80723483D01*
X108393489Y80716728D01*
X108129282Y79814779D01*
X108127848Y79811130D01*
X108111348Y79753560D01*
X108103789Y79727748D01*
X108103747Y79727529D01*
X108103002Y79724433D01*
X108101522Y79719268D01*
X107641264Y78113261D01*
X107516067Y77681129D01*
X107348735Y77103564D01*
X107343836Y77093334D01*
X107344641Y77092967D01*
X107341799Y77086730D01*
X107329901Y77038664D01*
X107329525Y77037260D01*
X107323622Y77016883D01*
X107323621Y77016879D01*
X107323566Y77016312D01*
X107321748Y77005724D01*
X107093396Y76083184D01*
X107092050Y76079275D01*
X107078102Y76021396D01*
X107071609Y75995161D01*
X107071555Y75994804D01*
X107070947Y75991704D01*
X106878171Y75191684D01*
X106788605Y74833416D01*
X106668431Y74352717D01*
X106662096Y74327378D01*
X106373675Y73173699D01*
X106369900Y73162496D01*
X106369031Y73160470D01*
X106357665Y73109706D01*
X106357455Y73108818D01*
X106351718Y73085870D01*
X106351200Y73082495D01*
X106351068Y73082516D01*
X106350197Y73076344D01*
X106070450Y71826809D01*
X106066904Y71815389D01*
X106066353Y71814019D01*
X106056093Y71762725D01*
X106055918Y71761900D01*
X106050676Y71738482D01*
X106050240Y71735090D01*
X106050076Y71735111D01*
X106049375Y71729137D01*
X105827641Y70620467D01*
X105825932Y70614637D01*
X105815057Y70557545D01*
X105809873Y70531620D01*
X105809728Y70530245D01*
X105809279Y70527208D01*
X105626532Y69567793D01*
X105623361Y69556286D01*
X105622824Y69554814D01*
X105614226Y69503235D01*
X105614076Y69502397D01*
X105609596Y69478871D01*
X105609269Y69475465D01*
X105609108Y69475481D01*
X105608598Y69469467D01*
X105423933Y68361476D01*
X105423519Y68359895D01*
X105417097Y68320778D01*
X105413572Y68299306D01*
X105408865Y68271064D01*
X105408683Y68269532D01*
X105203635Y67020605D01*
X105200865Y67009342D01*
X105199793Y67006104D01*
X105192859Y66955060D01*
X105192707Y66954049D01*
X105188960Y66931219D01*
X105188719Y66927795D01*
X105188639Y66927801D01*
X105188268Y66921251D01*
X105141215Y66574768D01*
X104972235Y65330455D01*
X104772426Y63881843D01*
X104722162Y63529997D01*
X104641420Y62964810D01*
X104639024Y62953946D01*
X104637277Y62948143D01*
X104631860Y62898037D01*
X104631703Y62896782D01*
X104628581Y62874925D01*
X104628493Y62873155D01*
X104628203Y62864208D01*
X104597986Y62584704D01*
X104595860Y62573380D01*
X104594864Y62569692D01*
X104590816Y62518513D01*
X104590717Y62517455D01*
X104588247Y62494617D01*
X104588195Y62491194D01*
X104588133Y62491195D01*
X104588127Y62484512D01*
X104455374Y60806151D01*
X104453424Y60794158D01*
X104453316Y60793727D01*
X104450219Y60741071D01*
X104450168Y60740328D01*
X104448239Y60715931D01*
X104448285Y60712516D01*
X104448074Y60712514D01*
X104448203Y60706812D01*
X104423696Y60290196D01*
X104422209Y60279858D01*
X104422169Y60278938D01*
X104422169Y60278936D01*
X104421383Y60260541D01*
X104419875Y60225231D01*
X104418382Y60199856D01*
X104418516Y60195896D01*
X104418503Y60193077D01*
X104352444Y58645409D01*
X104350964Y58633713D01*
X104349656Y58580085D01*
X104348585Y58554989D01*
X104348642Y58553839D01*
X104348671Y58553586D01*
X104348887Y58548592D01*
X104311118Y57000031D01*
X104310316Y56992855D01*
X104309549Y56935742D01*
X104308910Y56909491D01*
X104309048Y56907459D01*
X104309129Y56904470D01*
X104301174Y56311811D01*
X104290367Y55506712D01*
X104289500Y55497981D01*
X104289500Y55496173D01*
X104289500Y55442044D01*
X104289200Y55419758D01*
X104289153Y55416196D01*
X104289385Y55413268D01*
X104289500Y55410347D01*
X104289500Y53752676D01*
X104288693Y53743216D01*
X104289500Y53687830D01*
X104289500Y53662152D01*
X104289810Y53658803D01*
X104289963Y53655933D01*
X104318618Y51688271D01*
X104317800Y51676167D01*
X104317714Y51675603D01*
X104319563Y51622902D01*
X104319582Y51622146D01*
X104319937Y51597784D01*
X104320302Y51594385D01*
X104320095Y51594363D01*
X104320765Y51588653D01*
X104357486Y50542089D01*
X104356970Y50531607D01*
X104359177Y50488569D01*
X104359770Y50477020D01*
X104360529Y50455390D01*
X104360661Y50451631D01*
X104361166Y50447689D01*
X104361417Y50444884D01*
X104396680Y49757257D01*
X104396360Y49745622D01*
X104396020Y49742437D01*
X104400061Y49691063D01*
X104400126Y49690059D01*
X104401319Y49666806D01*
X104401809Y49663423D01*
X104401721Y49663411D01*
X104402742Y49656969D01*
X104675511Y46188898D01*
X104675460Y46176674D01*
X104675452Y46176587D01*
X104680649Y46123577D01*
X104682607Y46098683D01*
X104683189Y46095313D01*
X104682961Y46095274D01*
X104683964Y46089763D01*
X104824806Y44653176D01*
X104824849Y44648403D01*
X104831028Y44589708D01*
X104833651Y44562971D01*
X104833778Y44562310D01*
X104834238Y44559208D01*
X104877999Y44143487D01*
X104964570Y43321053D01*
X104963923Y43310001D01*
X104964870Y43309960D01*
X104964575Y43303109D01*
X104971635Y43253693D01*
X104971803Y43252336D01*
X104974065Y43230851D01*
X104974103Y43230726D01*
X104976439Y43220063D01*
X105183650Y41769594D01*
X105184384Y41757910D01*
X105184336Y41755052D01*
X105192999Y41704061D01*
X105193149Y41703097D01*
X105196456Y41679947D01*
X105197250Y41676622D01*
X105197149Y41676599D01*
X105198721Y41670374D01*
X105623237Y39171515D01*
X105623275Y39160378D01*
X105624217Y39160397D01*
X105624362Y39153547D01*
X105634545Y39104798D01*
X105634804Y39103430D01*
X105638406Y39082228D01*
X105638410Y39082212D01*
X105638492Y39081990D01*
X105641491Y39071542D01*
X106093036Y36909892D01*
X106094530Y36897946D01*
X106094575Y36896880D01*
X106106430Y36845732D01*
X106106604Y36844943D01*
X106111542Y36821302D01*
X106112547Y36818037D01*
X106112367Y36817982D01*
X106114163Y36812364D01*
X106189673Y36486552D01*
X106633109Y34573207D01*
X106634501Y34563538D01*
X106647771Y34509945D01*
X106653547Y34485024D01*
X106654654Y34481686D01*
X106655448Y34478939D01*
X107153239Y32468632D01*
X107155152Y32456992D01*
X107155349Y32454622D01*
X107169088Y32404571D01*
X107169323Y32403672D01*
X107175002Y32380741D01*
X107176125Y32377519D01*
X107176007Y32377478D01*
X107178148Y32371571D01*
X107713596Y30421010D01*
X107714462Y30416230D01*
X107730498Y30359434D01*
X107737590Y30333603D01*
X107737842Y30332936D01*
X107738824Y30329948D01*
X107953933Y29568103D01*
X107955212Y29556652D01*
X107956030Y29556760D01*
X107956927Y29549967D01*
X107972242Y29503147D01*
X107972676Y29501724D01*
X107978373Y29481549D01*
X107978755Y29480777D01*
X107982776Y29470940D01*
X108038014Y29302071D01*
X108304876Y28486236D01*
X108306152Y28480739D01*
X108324787Y28425364D01*
X108333046Y28400115D01*
X108333498Y28399072D01*
X108334612Y28396173D01*
X108655112Y27443828D01*
X108655210Y27443418D01*
X108675579Y27383013D01*
X108675578Y27383013D01*
X108675592Y27382974D01*
X108684535Y27356403D01*
X108684664Y27356071D01*
X108802860Y27005558D01*
X108945147Y26583604D01*
X108947908Y26572774D01*
X108948908Y26567085D01*
X108966649Y26519772D01*
X108967065Y26518605D01*
X108974149Y26497597D01*
X108975108Y26495437D01*
X108978596Y26487916D01*
X109246570Y25773322D01*
X109247637Y25769460D01*
X109269011Y25713481D01*
X109278414Y25688406D01*
X109278529Y25688169D01*
X109279786Y25685257D01*
X109457854Y25218893D01*
X109460465Y25206390D01*
X109460887Y25206489D01*
X109462460Y25199817D01*
X109481651Y25156429D01*
X109482379Y25154660D01*
X109489199Y25136799D01*
X109491991Y25132241D01*
X109494279Y25127878D01*
X109710412Y24639227D01*
X109711375Y24636826D01*
X109828221Y24313255D01*
X109831100Y24303043D01*
X109892633Y24004164D01*
X109893154Y24000902D01*
X109899023Y23949554D01*
X109930022Y23678311D01*
X109930900Y23670636D01*
X109931004Y23669594D01*
X109959365Y23338722D01*
X109959500Y23335561D01*
X109959500Y22998656D01*
X109959451Y22996761D01*
X109940961Y22636215D01*
X109940446Y22631675D01*
X109885896Y22322562D01*
X109885426Y22320310D01*
X109822041Y22057716D01*
X109820935Y22054000D01*
X109672238Y21635789D01*
X109670904Y21632536D01*
X109549700Y21372812D01*
X109544214Y21363057D01*
X109312742Y21015850D01*
X109309665Y21011854D01*
X108870602Y20515521D01*
X108869327Y20514151D01*
X108429669Y20065219D01*
X100815921Y12290885D01*
X93440619Y4846003D01*
X93431504Y4838187D01*
X93430487Y4837450D01*
X93411825Y4817751D01*
X93394425Y4799385D01*
X93393882Y4798824D01*
X93376921Y4781704D01*
X93374752Y4779066D01*
X93374618Y4779177D01*
X93370885Y4774538D01*
X92672020Y4036847D01*
X92099814Y3435042D01*
X92098096Y3433350D01*
X91632217Y3003308D01*
X91622571Y2995780D01*
X91622524Y2995750D01*
X91584027Y2958826D01*
X91565720Y2941926D01*
X91563435Y2939388D01*
X91563265Y2939541D01*
X91559565Y2935362D01*
X91097783Y2492427D01*
X91096484Y2491239D01*
X90735285Y2176347D01*
X90725724Y2169279D01*
X90404055Y1969322D01*
X90394735Y1964411D01*
X90021634Y1800611D01*
X90018863Y1799525D01*
X89518372Y1626277D01*
X89516900Y1625802D01*
X89033829Y1480881D01*
X89031577Y1480282D01*
X88622342Y1385112D01*
X88620044Y1384654D01*
X88212580Y1316743D01*
X88208849Y1316460D01*
X88149834Y1306285D01*
X88123115Y1301831D01*
X88122972Y1301793D01*
X88119860Y1301118D01*
X87877859Y1259393D01*
X87873679Y1258915D01*
X87737901Y1251156D01*
X87558713Y1240917D01*
X87555252Y1240883D01*
X87431255Y1245475D01*
X87316760Y1249716D01*
X87313343Y1250002D01*
X87141870Y1272368D01*
X87111553Y1276322D01*
X87108795Y1276788D01*
X86895506Y1321223D01*
X86892423Y1322005D01*
X86814353Y1345427D01*
X86619188Y1403976D01*
X86616409Y1404932D01*
X86327491Y1517288D01*
X86323913Y1519062D01*
X86319714Y1520667D01*
X86319713Y1520667D01*
X86268081Y1540392D01*
X86242964Y1550159D01*
X86242698Y1550235D01*
X86239685Y1551240D01*
X85834973Y1705849D01*
X85435802Y1858342D01*
X85425112Y1863440D01*
X85423272Y1864506D01*
X85374226Y1881877D01*
X85373376Y1882190D01*
X85351227Y1890651D01*
X85347939Y1891570D01*
X85347975Y1891701D01*
X85341975Y1893299D01*
X84469530Y2202290D01*
X84465202Y2204271D01*
X84409280Y2223630D01*
X84384069Y2232557D01*
X84383418Y2232722D01*
X84380412Y2233622D01*
X83368643Y2583849D01*
X83368552Y2583923D01*
X83368539Y2583885D01*
X82278226Y2963125D01*
X82268114Y2967512D01*
X82262221Y2970609D01*
X82214289Y2985390D01*
X82213040Y2985799D01*
X82192423Y2992969D01*
X82191891Y2993100D01*
X82181803Y2995405D01*
X81009078Y3356995D01*
X79949560Y3688094D01*
X79938899Y3692359D01*
X79935240Y3694164D01*
X79885904Y3708003D01*
X79884863Y3708312D01*
X79863059Y3715125D01*
X79863056Y3715126D01*
X79863055Y3715126D01*
X79863053Y3715127D01*
X79859709Y3715841D01*
X79859719Y3715891D01*
X79853094Y3717206D01*
X79121611Y3922378D01*
X79116754Y3924217D01*
X79059990Y3939661D01*
X79034336Y3946857D01*
X79033439Y3947021D01*
X79030404Y3947711D01*
X77759540Y4293460D01*
X77756374Y4294636D01*
X77709729Y4307074D01*
X77698174Y4310155D01*
X77671967Y4317285D01*
X77668916Y4317958D01*
X76407982Y4654206D01*
X76398422Y4657643D01*
X76345109Y4670972D01*
X76338951Y4672614D01*
X76320515Y4677531D01*
X76316796Y4678163D01*
X76314028Y4678743D01*
X75323734Y4926315D01*
X75316923Y4928663D01*
X75261346Y4941913D01*
X75235876Y4948280D01*
X75233879Y4948587D01*
X75230923Y4949166D01*
X73810845Y5287728D01*
X73800111Y5291170D01*
X73795253Y5293147D01*
X73745558Y5303312D01*
X73744426Y5303563D01*
X73735813Y5305616D01*
X73722608Y5308765D01*
X73719227Y5309246D01*
X73719227Y5309249D01*
X73712187Y5310139D01*
X72481607Y5561848D01*
X72470699Y5565049D01*
X72417573Y5574946D01*
X72392940Y5579984D01*
X72388414Y5580482D01*
X72385685Y5580886D01*
X71456646Y5753942D01*
X71445142Y5757062D01*
X71443554Y5757634D01*
X71391973Y5765998D01*
X71391122Y5766147D01*
X71367653Y5770518D01*
X71364250Y5770831D01*
X71364264Y5770986D01*
X71358213Y5771473D01*
X70279302Y5946431D01*
X69281272Y6115908D01*
X69270231Y6119709D01*
X69269995Y6118971D01*
X69263466Y6121067D01*
X69214814Y6127226D01*
X69213269Y6127455D01*
X69192860Y6130920D01*
X69192848Y6130921D01*
X69191737Y6130902D01*
X69181221Y6131478D01*
X68420124Y6227820D01*
X68250659Y6252030D01*
X67574541Y6348618D01*
X67565401Y6350729D01*
X67510382Y6357783D01*
X67496526Y6359762D01*
X67484933Y6361418D01*
X67484932Y6361418D01*
X67484925Y6361419D01*
X67481619Y6361583D01*
X67478755Y6361838D01*
X66790454Y6450082D01*
X66784216Y6451444D01*
X66726715Y6458253D01*
X66718594Y6459294D01*
X66700599Y6461601D01*
X66699056Y6461655D01*
X66696010Y6461889D01*
X66027571Y6541046D01*
X66017429Y6543127D01*
X65962916Y6548703D01*
X65937689Y6551690D01*
X65933803Y6551788D01*
X65930981Y6551968D01*
X65543224Y6591626D01*
X65143084Y6632549D01*
X65139509Y6633242D01*
X65079765Y6639025D01*
X65073816Y6639633D01*
X65052865Y6641776D01*
X65052770Y6641776D01*
X65049574Y6641946D01*
X64211509Y6723049D01*
X64208291Y6723656D01*
X64203419Y6724104D01*
X64192084Y6725146D01*
X64148147Y6729182D01*
X64121151Y6731793D01*
X64118101Y6731940D01*
X63229939Y6813506D01*
X63222852Y6814785D01*
X63165895Y6819388D01*
X63139754Y6821788D01*
X63137725Y6821786D01*
X63134725Y6821907D01*
X62287267Y6890388D01*
X86500653Y6890388D01*
X86520542Y6637669D01*
X86579718Y6391181D01*
X86579719Y6391177D01*
X86579720Y6391176D01*
X86658722Y6200448D01*
X86676731Y6156972D01*
X86676735Y6156965D01*
X86805558Y5946746D01*
X86809182Y5940832D01*
X86892697Y5843048D01*
X86968800Y5753942D01*
X86973816Y5748070D01*
X87166578Y5583436D01*
X87382720Y5450984D01*
X87616922Y5353974D01*
X87863416Y5294796D01*
X88052855Y5279887D01*
X88179411Y5279887D01*
X88368850Y5294796D01*
X88615344Y5353974D01*
X88849546Y5450984D01*
X89065688Y5583436D01*
X89258450Y5748070D01*
X89423084Y5940832D01*
X89555536Y6156974D01*
X89652546Y6391176D01*
X89711724Y6637670D01*
X89731613Y6890387D01*
X89711724Y7143104D01*
X89652546Y7389598D01*
X89555536Y7623800D01*
X89423084Y7839942D01*
X89258450Y8032704D01*
X89258447Y8032707D01*
X89180177Y8099555D01*
X89065688Y8197338D01*
X88910700Y8292315D01*
X88849555Y8329785D01*
X88849548Y8329789D01*
X88615339Y8426802D01*
X88368851Y8485978D01*
X88179411Y8500887D01*
X88052855Y8500887D01*
X87863414Y8485978D01*
X87616926Y8426802D01*
X87382717Y8329789D01*
X87382710Y8329785D01*
X87166580Y8197340D01*
X87166579Y8197339D01*
X86973818Y8032707D01*
X86973813Y8032702D01*
X86809181Y7839941D01*
X86809180Y7839940D01*
X86676735Y7623810D01*
X86676731Y7623803D01*
X86579718Y7389594D01*
X86520542Y7143106D01*
X86500653Y6890388D01*
X62287267Y6890388D01*
X62236740Y6894471D01*
X62225271Y6896313D01*
X62222030Y6897099D01*
X62170569Y6899832D01*
X62169553Y6899900D01*
X62146450Y6901766D01*
X62143035Y6901726D01*
X62143034Y6901809D01*
X62136488Y6901642D01*
X61098496Y6956757D01*
X61086454Y6958396D01*
X61085989Y6958499D01*
X61042704Y6959918D01*
X61033269Y6960227D01*
X61032547Y6960258D01*
X61030799Y6960351D01*
X61008123Y6961555D01*
X61004706Y6961420D01*
X61004697Y6961633D01*
X60998986Y6961351D01*
X59872735Y6998278D01*
X59870667Y6998535D01*
X59809320Y7000357D01*
X59781362Y7001274D01*
X59779410Y7001245D01*
X58861579Y7028507D01*
X58852445Y7029562D01*
X58796744Y7030433D01*
X58795233Y7030478D01*
X58771093Y7031195D01*
X58767918Y7030996D01*
X58765029Y7030928D01*
X57577354Y7049485D01*
X57567251Y7050500D01*
X57566173Y7050500D01*
X57512329Y7050500D01*
X57503836Y7050633D01*
X57486854Y7050898D01*
X57486853Y7050898D01*
X57486850Y7050898D01*
X57483088Y7050609D01*
X57480253Y7050500D01*
X56382785Y7050500D01*
X56377535Y7050966D01*
X56318805Y7050500D01*
X56292154Y7050500D01*
X56291214Y7050413D01*
X56288098Y7050257D01*
X55120283Y7040989D01*
X55110797Y7041723D01*
X55055502Y7040475D01*
X55029766Y7040271D01*
X55026383Y7039930D01*
X55023518Y7039755D01*
X54976153Y7038686D01*
X53785903Y7011839D01*
X53777525Y7012371D01*
X53721294Y7010382D01*
X53695388Y7009797D01*
X53692687Y7009485D01*
X53689760Y7009265D01*
X52651987Y6972529D01*
X52641212Y6973054D01*
X52586886Y6970225D01*
X52561541Y6969327D01*
X52557405Y6968796D01*
X52554618Y6968545D01*
X51686995Y6923356D01*
X51675255Y6923678D01*
X51672633Y6923960D01*
X51620962Y6919929D01*
X51620011Y6919867D01*
X51596563Y6918645D01*
X51593181Y6918153D01*
X51593164Y6918264D01*
X51586896Y6917272D01*
X50207136Y6809631D01*
X49200075Y6734337D01*
X49187997Y6734422D01*
X49187153Y6734498D01*
X49134841Y6729468D01*
X49134062Y6729401D01*
X49109824Y6727588D01*
X49106457Y6727020D01*
X49106424Y6727211D01*
X49100681Y6726183D01*
X48153608Y6635118D01*
X48141744Y6634968D01*
X48088424Y6628850D01*
X48063525Y6626456D01*
X48060161Y6625815D01*
X48060115Y6626055D01*
X48054729Y6624983D01*
X47538052Y6565692D01*
X47526374Y6565281D01*
X47523415Y6565411D01*
X47523414Y6565411D01*
X47472210Y6558150D01*
X47471237Y6558025D01*
X47448074Y6555366D01*
X47444729Y6554664D01*
X47444709Y6554760D01*
X47438425Y6553357D01*
X46119858Y6366327D01*
X46111434Y6365863D01*
X46078183Y6360708D01*
X46055953Y6357261D01*
X46040986Y6355138D01*
X46030220Y6353611D01*
X46027529Y6352972D01*
X46024654Y6352409D01*
X44825904Y6166557D01*
X44816894Y6165940D01*
X44761856Y6156626D01*
X44736450Y6152688D01*
X44733455Y6151935D01*
X44730616Y6151339D01*
X43521653Y5946746D01*
X43512339Y5945976D01*
X43457738Y5935929D01*
X43432402Y5931641D01*
X43429238Y5930799D01*
X43426426Y5930168D01*
X42267254Y5716880D01*
X42257261Y5715905D01*
X42203358Y5705124D01*
X42178235Y5700500D01*
X42174673Y5699498D01*
X42171911Y5698835D01*
X40912553Y5446963D01*
X40900869Y5445580D01*
X40898358Y5445484D01*
X40847755Y5434016D01*
X40846837Y5433820D01*
X40831191Y5430690D01*
X40823764Y5429204D01*
X40823763Y5429204D01*
X40823760Y5429203D01*
X40820486Y5428227D01*
X40820452Y5428340D01*
X40814424Y5426460D01*
X38654675Y4936917D01*
X38643150Y4935298D01*
X38590977Y4922480D01*
X38566418Y4916913D01*
X38561899Y4915439D01*
X38559262Y4914687D01*
X36899135Y4506771D01*
X36887101Y4504847D01*
X36886855Y4504829D01*
X36835450Y4491122D01*
X36811250Y4485175D01*
X36808026Y4484058D01*
X36807953Y4484267D01*
X36802622Y4482367D01*
X34943145Y3986507D01*
X34931471Y3984378D01*
X34929502Y3984181D01*
X34879474Y3969539D01*
X34878616Y3969299D01*
X34855663Y3963178D01*
X34852457Y3961996D01*
X34852407Y3962130D01*
X34846664Y3959936D01*
X33295730Y3506004D01*
X33283947Y3503575D01*
X33282835Y3503439D01*
X33232803Y3487595D01*
X33232027Y3487359D01*
X33208863Y3480579D01*
X33205688Y3479322D01*
X33205622Y3479489D01*
X33200157Y3477259D01*
X32030173Y3106762D01*
X31491321Y2937124D01*
X30887731Y2754217D01*
X30872041Y2751969D01*
X30866725Y2751028D01*
X30824535Y2735150D01*
X30822234Y2734369D01*
X30806206Y2729512D01*
X30799346Y2725950D01*
X30795327Y2724158D01*
X29942920Y2403360D01*
X29938288Y2402071D01*
X29883235Y2380898D01*
X29858098Y2371437D01*
X29857452Y2371123D01*
X29854576Y2369875D01*
X29420690Y2202996D01*
X29409560Y2199691D01*
X29406274Y2198991D01*
X29358708Y2179172D01*
X29357761Y2178792D01*
X29336135Y2170475D01*
X29333074Y2168959D01*
X29333037Y2169032D01*
X29327207Y2166046D01*
X28812503Y1951586D01*
X28811811Y1951369D01*
X28753824Y1927136D01*
X28739834Y1921307D01*
X28728721Y1916675D01*
X28728719Y1916675D01*
X28727474Y1916155D01*
X28726904Y1915886D01*
X28084408Y1647379D01*
X27619172Y1453532D01*
X27615880Y1452340D01*
X27228740Y1332510D01*
X27224828Y1331529D01*
X26948459Y1278038D01*
X26945024Y1277539D01*
X26831846Y1266498D01*
X26571603Y1241108D01*
X26567036Y1240946D01*
X26224469Y1249961D01*
X26220852Y1250233D01*
X25927111Y1286951D01*
X25924962Y1287284D01*
X25675002Y1333573D01*
X25672765Y1334059D01*
X25298711Y1427572D01*
X25295287Y1428606D01*
X24871111Y1579424D01*
X24868850Y1580312D01*
X24381103Y1790714D01*
X24378500Y1791959D01*
X23871116Y2059489D01*
X23859584Y2067018D01*
X23546052Y2316236D01*
X23539167Y2322737D01*
X23538023Y2323620D01*
X23495257Y2356611D01*
X23487365Y2362884D01*
X23475188Y2372564D01*
X23472388Y2374395D01*
X23470038Y2376066D01*
X23153670Y2620121D01*
X23151517Y2621916D01*
X22798601Y2939541D01*
X22768106Y2966987D01*
X22766609Y2968413D01*
X18618609Y7150000D01*
X24754520Y7150000D01*
X24774409Y6897282D01*
X24833585Y6650794D01*
X24833586Y6650790D01*
X24833587Y6650789D01*
X24921094Y6439528D01*
X24930598Y6416585D01*
X24930602Y6416578D01*
X25056967Y6210370D01*
X25063049Y6200445D01*
X25227683Y6007683D01*
X25420445Y5843049D01*
X25538810Y5770515D01*
X25628290Y5715681D01*
X25636587Y5710597D01*
X25870789Y5613587D01*
X26117283Y5554409D01*
X26306722Y5539500D01*
X26433278Y5539500D01*
X26622717Y5554409D01*
X26869211Y5613587D01*
X27103413Y5710597D01*
X27319555Y5843049D01*
X27512317Y6007683D01*
X27676951Y6200445D01*
X27809403Y6416587D01*
X27906413Y6650789D01*
X27965591Y6897283D01*
X27985480Y7150000D01*
X27965591Y7402717D01*
X27906413Y7649211D01*
X27809403Y7883413D01*
X27676951Y8099555D01*
X27512317Y8292317D01*
X27512314Y8292320D01*
X27354857Y8426800D01*
X27319555Y8456951D01*
X27319552Y8456953D01*
X27103422Y8589398D01*
X27103415Y8589402D01*
X26869206Y8686415D01*
X26622718Y8745591D01*
X26433278Y8760500D01*
X26306722Y8760500D01*
X26117281Y8745591D01*
X25870793Y8686415D01*
X25636584Y8589402D01*
X25636577Y8589398D01*
X25420447Y8456953D01*
X25420446Y8456952D01*
X25227685Y8292320D01*
X25227680Y8292315D01*
X25063048Y8099554D01*
X25063047Y8099553D01*
X24930602Y7883423D01*
X24930598Y7883416D01*
X24833585Y7649207D01*
X24774409Y7402719D01*
X24754520Y7150000D01*
X18618609Y7150000D01*
X17877641Y7896968D01*
X17875915Y7899056D01*
X17832997Y7941974D01*
X17813732Y7961395D01*
X17813728Y7961398D01*
X17813475Y7961653D01*
X17811617Y7963354D01*
X10506858Y15268113D01*
X10502858Y15272884D01*
X10500567Y15275132D01*
X10500567Y15275133D01*
X10480540Y15294786D01*
X10461478Y15313493D01*
X10442795Y15332176D01*
X10441668Y15333112D01*
X10439392Y15335167D01*
X6755190Y18950597D01*
X6747531Y18959481D01*
X6747339Y18959663D01*
X6708533Y18996382D01*
X6690601Y19013980D01*
X6690600Y19013981D01*
X6686890Y19017003D01*
X6684827Y19018815D01*
X5781432Y19873640D01*
X5780378Y19874678D01*
X5394828Y20269868D01*
X5392785Y20272143D01*
X5035865Y20704206D01*
X5033011Y20708165D01*
X4606647Y21390347D01*
X4604337Y21394651D01*
X4553364Y21506790D01*
X4469401Y21691509D01*
X4468253Y21694340D01*
X4377351Y21948866D01*
X4376504Y21951560D01*
X4373824Y21961385D01*
X4354332Y22032857D01*
X4292775Y22258571D01*
X4292221Y22260892D01*
X4273043Y22354653D01*
X4207312Y22676005D01*
X4206811Y22679135D01*
X4169501Y23000000D01*
X8504520Y23000000D01*
X8524409Y22747282D01*
X8583585Y22500794D01*
X8583586Y22500790D01*
X8583587Y22500789D01*
X8675027Y22280033D01*
X8680598Y22266585D01*
X8680602Y22266578D01*
X8785609Y22095223D01*
X8813049Y22050445D01*
X8914787Y21931325D01*
X8977680Y21857686D01*
X8977685Y21857681D01*
X9006074Y21833435D01*
X9170445Y21693049D01*
X9386587Y21560597D01*
X9620789Y21463587D01*
X9867283Y21404409D01*
X10056722Y21389500D01*
X10183278Y21389500D01*
X10372717Y21404409D01*
X10619211Y21463587D01*
X10853413Y21560597D01*
X11069555Y21693049D01*
X11262317Y21857683D01*
X11426951Y22050445D01*
X11559403Y22266587D01*
X11656413Y22500789D01*
X11715591Y22747283D01*
X11722569Y22835953D01*
X23333389Y22835953D01*
X23354009Y22679323D01*
X23354009Y22679322D01*
X23414467Y22533366D01*
X23486501Y22439490D01*
X23567334Y22358657D01*
X24156248Y22947572D01*
X24162691Y22915184D01*
X24217946Y22832489D01*
X24300641Y22777234D01*
X24333025Y22770793D01*
X23744112Y22181880D01*
X23824951Y22101041D01*
X23918816Y22029013D01*
X23918818Y22029012D01*
X24064778Y21968553D01*
X24221408Y21947933D01*
X24323591Y21961385D01*
X24373010Y21950429D01*
X24403825Y21910270D01*
X24407115Y21892487D01*
X24411205Y21824873D01*
X24461812Y21662468D01*
X24461814Y21662462D01*
X24540295Y21532640D01*
X24549820Y21516884D01*
X24670107Y21396597D01*
X24815686Y21308591D01*
X24879311Y21288765D01*
X24978089Y21257985D01*
X24978090Y21257985D01*
X24978096Y21257983D01*
X25147898Y21247711D01*
X25210088Y21259108D01*
X25259994Y21250653D01*
X25292792Y21212096D01*
X25296214Y21172982D01*
X25284818Y21110794D01*
X25284818Y21110792D01*
X25284818Y21110791D01*
X25285624Y21097466D01*
X25295089Y20940995D01*
X25295091Y20940983D01*
X25345696Y20778584D01*
X25345698Y20778578D01*
X25425693Y20646252D01*
X25433704Y20633000D01*
X25553991Y20512713D01*
X25699570Y20424707D01*
X25775088Y20401175D01*
X25861973Y20374101D01*
X25861974Y20374101D01*
X25861980Y20374099D01*
X26031782Y20363827D01*
X26199108Y20394490D01*
X26199109Y20394491D01*
X26199111Y20394491D01*
X26266244Y20424706D01*
X26354233Y20464307D01*
X26454543Y20542895D01*
X26868020Y20956372D01*
X26946608Y21056682D01*
X27016425Y21211808D01*
X27047088Y21379133D01*
X27036816Y21548935D01*
X27033181Y21560599D01*
X27031833Y21564925D01*
X82889926Y21564925D01*
X82910430Y21396057D01*
X82970752Y21236999D01*
X83067387Y21097000D01*
X83158986Y21015850D01*
X83194719Y20984194D01*
X83345346Y20905138D01*
X83510515Y20864428D01*
X83510519Y20864428D01*
X83680623Y20864428D01*
X83680627Y20864428D01*
X83845796Y20905138D01*
X83996423Y20984194D01*
X84123754Y21096999D01*
X84215591Y21230047D01*
X87043667Y21230047D01*
X87064287Y21073417D01*
X87064287Y21073416D01*
X87124745Y20927460D01*
X87196779Y20833584D01*
X87454389Y20575974D01*
X87866526Y20988112D01*
X87872969Y20955725D01*
X87928224Y20873030D01*
X88010919Y20817775D01*
X88043304Y20811334D01*
X87631167Y20399197D01*
X87888781Y20141583D01*
X87982651Y20069553D01*
X88128609Y20009094D01*
X88285240Y19988474D01*
X88441870Y20009094D01*
X88441871Y20009094D01*
X88587827Y20069552D01*
X88681707Y20141589D01*
X88762537Y20222420D01*
X88173623Y20811334D01*
X88206009Y20817775D01*
X88288704Y20873030D01*
X88343959Y20955725D01*
X88350400Y20988111D01*
X88939314Y20399197D01*
X89020151Y20480035D01*
X89092181Y20573905D01*
X89152640Y20719863D01*
X89152640Y20719864D01*
X89173260Y20876493D01*
X89159808Y20978676D01*
X89170764Y21028095D01*
X89210923Y21058910D01*
X89228705Y21062200D01*
X89296320Y21066290D01*
X89458730Y21116898D01*
X89604309Y21204904D01*
X89724596Y21325191D01*
X89812602Y21470770D01*
X89863210Y21633180D01*
X89873482Y21802982D01*
X89862085Y21865174D01*
X89870540Y21915080D01*
X89909097Y21947877D01*
X89948210Y21951299D01*
X90010402Y21939902D01*
X90180204Y21950174D01*
X90342614Y22000782D01*
X90488193Y22088788D01*
X90608480Y22209075D01*
X90696486Y22354654D01*
X90747094Y22517064D01*
X90757366Y22686866D01*
X90726703Y22854191D01*
X90726702Y22854193D01*
X90726702Y22854195D01*
X90672257Y22975165D01*
X90656886Y23009317D01*
X90578298Y23109627D01*
X90547537Y23140388D01*
X102350653Y23140388D01*
X102370542Y22887669D01*
X102429718Y22641181D01*
X102429719Y22641177D01*
X102429720Y22641176D01*
X102522396Y22417436D01*
X102526731Y22406972D01*
X102526735Y22406965D01*
X102650415Y22205138D01*
X102659182Y22190832D01*
X102740840Y22095223D01*
X102821500Y22000781D01*
X102823816Y21998070D01*
X103016578Y21833436D01*
X103232720Y21700984D01*
X103466922Y21603974D01*
X103713416Y21544796D01*
X103902855Y21529887D01*
X104029411Y21529887D01*
X104218850Y21544796D01*
X104465344Y21603974D01*
X104699546Y21700984D01*
X104915688Y21833436D01*
X105108450Y21998070D01*
X105273084Y22190832D01*
X105405536Y22406974D01*
X105502546Y22641176D01*
X105561724Y22887670D01*
X105581613Y23140387D01*
X105561724Y23393104D01*
X105502546Y23639598D01*
X105405536Y23873800D01*
X105359114Y23949553D01*
X105327648Y24000902D01*
X105273084Y24089942D01*
X105108450Y24282704D01*
X105108447Y24282707D01*
X104990954Y24383055D01*
X104915688Y24447338D01*
X104899352Y24457349D01*
X104699555Y24579785D01*
X104699548Y24579789D01*
X104633973Y24606951D01*
X104465344Y24676800D01*
X104465343Y24676801D01*
X104465339Y24676802D01*
X104218851Y24735978D01*
X104029411Y24750887D01*
X103902855Y24750887D01*
X103713414Y24735978D01*
X103466926Y24676802D01*
X103232717Y24579789D01*
X103232710Y24579785D01*
X103016580Y24447340D01*
X103016579Y24447339D01*
X102823818Y24282707D01*
X102823813Y24282702D01*
X102659181Y24089941D01*
X102659180Y24089940D01*
X102526735Y23873810D01*
X102526731Y23873803D01*
X102429718Y23639594D01*
X102370542Y23393106D01*
X102350653Y23140388D01*
X90547537Y23140388D01*
X90164821Y23523104D01*
X90064511Y23601692D01*
X90064506Y23601694D01*
X90064505Y23601695D01*
X89909389Y23671509D01*
X89742061Y23702172D01*
X89742060Y23702172D01*
X89728510Y23701353D01*
X89572263Y23691901D01*
X89572251Y23691899D01*
X89409852Y23641294D01*
X89409846Y23641292D01*
X89264268Y23553286D01*
X89143982Y23433000D01*
X89055976Y23287422D01*
X89055974Y23287416D01*
X89005369Y23125017D01*
X89005367Y23125005D01*
X88995096Y22955208D01*
X88995095Y22955208D01*
X89006492Y22893018D01*
X88998037Y22843111D01*
X88959479Y22810314D01*
X88920366Y22806892D01*
X88858178Y22818288D01*
X88858176Y22818288D01*
X88833079Y22816770D01*
X88688379Y22808017D01*
X88688367Y22808015D01*
X88525968Y22757410D01*
X88525962Y22757408D01*
X88380384Y22669402D01*
X88260098Y22549116D01*
X88172092Y22403538D01*
X88172090Y22403532D01*
X88121483Y22241127D01*
X88117393Y22173513D01*
X88097239Y22127079D01*
X88051953Y22104463D01*
X88033869Y22104615D01*
X87931687Y22118067D01*
X87775057Y22097447D01*
X87775056Y22097447D01*
X87629100Y22036989D01*
X87535224Y21964955D01*
X87454390Y21884121D01*
X88043304Y21295207D01*
X88010919Y21288765D01*
X87928224Y21233510D01*
X87872969Y21150815D01*
X87866527Y21118430D01*
X87277613Y21707344D01*
X87196775Y21626505D01*
X87124747Y21532640D01*
X87124746Y21532638D01*
X87064287Y21386678D01*
X87064287Y21386677D01*
X87043667Y21230047D01*
X84215591Y21230047D01*
X84220389Y21236998D01*
X84277154Y21386677D01*
X84280710Y21396053D01*
X84280710Y21396054D01*
X84280711Y21396056D01*
X84287830Y21454694D01*
X84310749Y21499823D01*
X84343577Y21517620D01*
X84495796Y21555138D01*
X84646423Y21634194D01*
X84773754Y21746999D01*
X84870389Y21886998D01*
X84930711Y22046056D01*
X84937830Y22104694D01*
X84960749Y22149823D01*
X84993577Y22167620D01*
X85145796Y22205138D01*
X85296423Y22284194D01*
X85423754Y22396999D01*
X85520389Y22536998D01*
X85580711Y22696056D01*
X85587357Y22750789D01*
X85601216Y22864925D01*
X85601216Y22864932D01*
X85580711Y23033800D01*
X85520389Y23192858D01*
X85423754Y23332857D01*
X85296427Y23445659D01*
X85296424Y23445661D01*
X85296423Y23445662D01*
X85145796Y23524718D01*
X85145793Y23524719D01*
X84980629Y23565428D01*
X84980627Y23565428D01*
X84810515Y23565428D01*
X84810512Y23565428D01*
X84645348Y23524719D01*
X84645346Y23524719D01*
X84645346Y23524718D01*
X84642271Y23523104D01*
X84494717Y23445661D01*
X84494714Y23445659D01*
X84367387Y23332857D01*
X84270752Y23192858D01*
X84210430Y23033800D01*
X84203311Y22975165D01*
X84180392Y22930033D01*
X84147560Y22912235D01*
X83995348Y22874719D01*
X83995346Y22874719D01*
X83995346Y22874718D01*
X83935125Y22843111D01*
X83844717Y22795661D01*
X83844714Y22795659D01*
X83717387Y22682857D01*
X83620752Y22542858D01*
X83560430Y22383800D01*
X83553311Y22325165D01*
X83530392Y22280033D01*
X83497560Y22262235D01*
X83345348Y22224719D01*
X83194717Y22145661D01*
X83194714Y22145659D01*
X83067387Y22032857D01*
X82970752Y21892858D01*
X82910430Y21733800D01*
X82889926Y21564932D01*
X82889926Y21564925D01*
X27031833Y21564925D01*
X27010248Y21634196D01*
X26986208Y21711345D01*
X26972633Y21733800D01*
X26926208Y21810597D01*
X26898202Y21856924D01*
X26777915Y21977211D01*
X26749026Y21994675D01*
X26632337Y22065217D01*
X26632331Y22065219D01*
X26469932Y22115824D01*
X26469920Y22115826D01*
X26337768Y22123820D01*
X26300124Y22126097D01*
X26300123Y22126097D01*
X26300121Y22126097D01*
X26237933Y22114701D01*
X26188025Y22123157D01*
X26155229Y22161714D01*
X26151807Y22200826D01*
X26163204Y22263017D01*
X26152932Y22432819D01*
X26102324Y22595229D01*
X26014318Y22740808D01*
X25894031Y22861095D01*
X25887695Y22864925D01*
X25748453Y22949101D01*
X25748447Y22949103D01*
X25586041Y22999710D01*
X25586043Y22999710D01*
X25518428Y23003800D01*
X25471994Y23023954D01*
X25449378Y23069239D01*
X25449530Y23087324D01*
X25462982Y23189507D01*
X25455018Y23250000D01*
X36304520Y23250000D01*
X36324409Y22997282D01*
X36383585Y22750794D01*
X36383586Y22750790D01*
X36383587Y22750789D01*
X36480399Y22517064D01*
X36480598Y22516585D01*
X36480602Y22516578D01*
X36600189Y22321431D01*
X36613049Y22300445D01*
X36706667Y22190832D01*
X36777680Y22107686D01*
X36777685Y22107681D01*
X36792025Y22095434D01*
X36970445Y21943049D01*
X37186587Y21810597D01*
X37420789Y21713587D01*
X37667283Y21654409D01*
X37856722Y21639500D01*
X37983278Y21639500D01*
X38172717Y21654409D01*
X38419211Y21713587D01*
X38653413Y21810597D01*
X38869555Y21943049D01*
X39062317Y22107683D01*
X39226951Y22300445D01*
X39359403Y22516587D01*
X39456413Y22750789D01*
X39515591Y22997283D01*
X39535480Y23250000D01*
X39531545Y23300001D01*
X75104520Y23300001D01*
X75124409Y23047282D01*
X75183585Y22800794D01*
X75183586Y22800790D01*
X75183587Y22800789D01*
X75256478Y22624814D01*
X75280598Y22566585D01*
X75280602Y22566578D01*
X75410470Y22354654D01*
X75413049Y22350445D01*
X75491517Y22258571D01*
X75577680Y22157686D01*
X75577685Y22157681D01*
X75618108Y22123157D01*
X75770445Y21993049D01*
X75857173Y21939902D01*
X75948109Y21884176D01*
X75986587Y21860597D01*
X76220789Y21763587D01*
X76467283Y21704409D01*
X76656722Y21689500D01*
X76783278Y21689500D01*
X76972717Y21704409D01*
X77219211Y21763587D01*
X77453413Y21860597D01*
X77669555Y21993049D01*
X77862317Y22157683D01*
X78026951Y22350445D01*
X78159403Y22566587D01*
X78256413Y22800789D01*
X78315591Y23047283D01*
X78335480Y23300000D01*
X78315591Y23552717D01*
X78256413Y23799211D01*
X78159403Y24033413D01*
X78145006Y24056906D01*
X78092668Y24142315D01*
X78042044Y24224925D01*
X80629926Y24224925D01*
X80650430Y24056057D01*
X80710752Y23896999D01*
X80778254Y23799207D01*
X80807388Y23756999D01*
X80816179Y23749211D01*
X80909198Y23666803D01*
X80934719Y23644194D01*
X81085346Y23565138D01*
X81250515Y23524428D01*
X81250519Y23524428D01*
X81420623Y23524428D01*
X81420627Y23524428D01*
X81585796Y23565138D01*
X81736423Y23644194D01*
X81863754Y23756999D01*
X81960389Y23896998D01*
X82020711Y24056056D01*
X82031185Y24142317D01*
X82041216Y24224925D01*
X82041216Y24224932D01*
X82020711Y24393800D01*
X81960389Y24552858D01*
X81863754Y24692857D01*
X81736427Y24805659D01*
X81736424Y24805661D01*
X81736423Y24805662D01*
X81585796Y24884718D01*
X81585793Y24884719D01*
X81420629Y24925428D01*
X81420627Y24925428D01*
X81250515Y24925428D01*
X81250512Y24925428D01*
X81085348Y24884719D01*
X80934717Y24805661D01*
X80934714Y24805659D01*
X80807387Y24692857D01*
X80710752Y24552858D01*
X80650430Y24393800D01*
X80629926Y24224932D01*
X80629926Y24224925D01*
X78042044Y24224925D01*
X78026951Y24249555D01*
X77862317Y24442317D01*
X77862314Y24442320D01*
X77788675Y24505213D01*
X77669555Y24606951D01*
X77663764Y24610500D01*
X77453422Y24739398D01*
X77453415Y24739402D01*
X77293452Y24805661D01*
X77219211Y24836413D01*
X77219210Y24836414D01*
X77219206Y24836415D01*
X76972718Y24895591D01*
X76783278Y24910500D01*
X76656722Y24910500D01*
X76467281Y24895591D01*
X76220793Y24836415D01*
X75986584Y24739402D01*
X75986577Y24739398D01*
X75770447Y24606953D01*
X75770446Y24606952D01*
X75577685Y24442320D01*
X75577680Y24442315D01*
X75413048Y24249554D01*
X75413047Y24249553D01*
X75280602Y24033423D01*
X75280598Y24033416D01*
X75183585Y23799207D01*
X75124409Y23552719D01*
X75104520Y23300001D01*
X39531545Y23300001D01*
X39515591Y23502717D01*
X39456413Y23749211D01*
X39359403Y23983413D01*
X39347676Y24002549D01*
X39289031Y24098249D01*
X39226951Y24199555D01*
X39104247Y24343223D01*
X39062319Y24392315D01*
X39062314Y24392320D01*
X38938696Y24497899D01*
X38869555Y24556951D01*
X38869552Y24556953D01*
X38653422Y24689398D01*
X38653415Y24689402D01*
X38607767Y24708310D01*
X38419211Y24786413D01*
X38419210Y24786414D01*
X38419206Y24786415D01*
X38172718Y24845591D01*
X37983278Y24860500D01*
X37856722Y24860500D01*
X37667281Y24845591D01*
X37420793Y24786415D01*
X37186584Y24689402D01*
X37186577Y24689398D01*
X36970447Y24556953D01*
X36970446Y24556952D01*
X36777685Y24392320D01*
X36777680Y24392315D01*
X36613048Y24199554D01*
X36613047Y24199553D01*
X36480602Y23983423D01*
X36480598Y23983416D01*
X36383585Y23749207D01*
X36324409Y23502719D01*
X36304520Y23250000D01*
X25455018Y23250000D01*
X25442362Y23346136D01*
X25442362Y23346137D01*
X25381904Y23492093D01*
X25309870Y23585969D01*
X25229036Y23666803D01*
X24640122Y23077890D01*
X24633681Y23110274D01*
X24578426Y23192969D01*
X24495731Y23248224D01*
X24463344Y23254667D01*
X25052258Y23843580D01*
X24971420Y23924418D01*
X24877555Y23996446D01*
X24877553Y23996447D01*
X24731593Y24056906D01*
X24574962Y24077526D01*
X24418332Y24056906D01*
X24418331Y24056906D01*
X24272375Y23996448D01*
X24178499Y23924414D01*
X23920889Y23666803D01*
X24333026Y23254666D01*
X24300641Y23248224D01*
X24217946Y23192969D01*
X24162691Y23110274D01*
X24156249Y23077889D01*
X23744112Y23490026D01*
X23486498Y23232412D01*
X23414468Y23138542D01*
X23354009Y22992584D01*
X23354009Y22992583D01*
X23333389Y22835953D01*
X11722569Y22835953D01*
X11735480Y23000000D01*
X11715591Y23252717D01*
X11656413Y23499211D01*
X11559403Y23733413D01*
X11549724Y23749207D01*
X11473372Y23873803D01*
X11426951Y23949555D01*
X11299955Y24098249D01*
X11262319Y24142315D01*
X11262314Y24142320D01*
X11152519Y24236093D01*
X11069555Y24306951D01*
X11059268Y24313255D01*
X10853422Y24439398D01*
X10853415Y24439402D01*
X10846382Y24442315D01*
X10619211Y24536413D01*
X10619210Y24536414D01*
X10619206Y24536415D01*
X10372718Y24595591D01*
X10183278Y24610500D01*
X10056722Y24610500D01*
X9867281Y24595591D01*
X9620793Y24536415D01*
X9386584Y24439402D01*
X9386577Y24439398D01*
X9170447Y24306953D01*
X9170446Y24306952D01*
X8977685Y24142320D01*
X8977680Y24142315D01*
X8813048Y23949554D01*
X8813047Y23949553D01*
X8680602Y23733423D01*
X8680598Y23733416D01*
X8583585Y23499207D01*
X8524409Y23252719D01*
X8504520Y23000000D01*
X4169501Y23000000D01*
X4160346Y23078734D01*
X4160109Y23082210D01*
X4150657Y23545364D01*
X4150685Y23547727D01*
X4156005Y23670090D01*
X4159237Y23744451D01*
X4159779Y23749346D01*
X4168684Y23799211D01*
X4195530Y23949554D01*
X4203258Y23992829D01*
X4203954Y23995945D01*
X4204089Y23996447D01*
X4268429Y24235428D01*
X4268810Y24236740D01*
X4365006Y24544563D01*
X4365396Y24545734D01*
X4482926Y24878733D01*
X5051841Y26445749D01*
X5426218Y27439997D01*
X24104355Y27439997D01*
X24124859Y27271129D01*
X24185181Y27112071D01*
X24185182Y27112070D01*
X24281817Y26972071D01*
X24409148Y26859266D01*
X24559775Y26780210D01*
X24711991Y26742693D01*
X24754030Y26714501D01*
X24767740Y26679764D01*
X24774859Y26621128D01*
X24835181Y26462071D01*
X24846448Y26445749D01*
X24931817Y26322071D01*
X25059148Y26209266D01*
X25209775Y26130210D01*
X25361991Y26092693D01*
X25404030Y26064501D01*
X25417740Y26029764D01*
X25424859Y25971128D01*
X25485181Y25812071D01*
X25570542Y25688406D01*
X25581817Y25672071D01*
X25709148Y25559266D01*
X25859775Y25480210D01*
X26024944Y25439500D01*
X26024948Y25439500D01*
X26195052Y25439500D01*
X26195056Y25439500D01*
X26360225Y25480210D01*
X26510852Y25559266D01*
X26638183Y25672071D01*
X26734818Y25812070D01*
X26795140Y25971128D01*
X26808359Y26079997D01*
X29864355Y26079997D01*
X29884859Y25911129D01*
X29945181Y25752071D01*
X30000402Y25672071D01*
X30041817Y25612071D01*
X30169148Y25499266D01*
X30319775Y25420210D01*
X30484944Y25379500D01*
X30484948Y25379500D01*
X30655052Y25379500D01*
X30655056Y25379500D01*
X30820225Y25420210D01*
X30970852Y25499266D01*
X31098183Y25612071D01*
X31194818Y25752070D01*
X31255140Y25911128D01*
X31275645Y26080000D01*
X31274491Y26089500D01*
X31255140Y26248872D01*
X31194818Y26407930D01*
X31098183Y26547929D01*
X30970856Y26660731D01*
X30970853Y26660733D01*
X30970852Y26660734D01*
X30820225Y26739790D01*
X30820222Y26739791D01*
X30655058Y26780500D01*
X30655056Y26780500D01*
X30484944Y26780500D01*
X30484941Y26780500D01*
X30319777Y26739791D01*
X30319775Y26739791D01*
X30319775Y26739790D01*
X30283467Y26720734D01*
X30169146Y26660733D01*
X30169143Y26660731D01*
X30041816Y26547929D01*
X29945181Y26407930D01*
X29884859Y26248872D01*
X29864355Y26080004D01*
X29864355Y26079997D01*
X26808359Y26079997D01*
X26809901Y26092694D01*
X26815645Y26139997D01*
X26815645Y26140004D01*
X26795140Y26308872D01*
X26734818Y26467930D01*
X26638183Y26607929D01*
X26510856Y26720731D01*
X26510853Y26720733D01*
X26510852Y26720734D01*
X26360225Y26799790D01*
X26360222Y26799791D01*
X26267056Y26822754D01*
X26208009Y26837308D01*
X26165969Y26865500D01*
X26152260Y26900233D01*
X26145140Y26958872D01*
X26145139Y26958874D01*
X26145139Y26958876D01*
X26084818Y27117930D01*
X25988183Y27257929D01*
X25912560Y27324925D01*
X84269926Y27324925D01*
X84290430Y27156057D01*
X84350752Y26996999D01*
X84377070Y26958872D01*
X84447388Y26856999D01*
X84574719Y26744194D01*
X84725346Y26665138D01*
X84890515Y26624428D01*
X84890519Y26624428D01*
X85060623Y26624428D01*
X85060627Y26624428D01*
X85225796Y26665138D01*
X85376423Y26744194D01*
X85503754Y26856999D01*
X85600389Y26996998D01*
X85660711Y27156056D01*
X85673081Y27257929D01*
X85681216Y27324925D01*
X85681216Y27324932D01*
X85660711Y27493800D01*
X85600389Y27652858D01*
X85503754Y27792857D01*
X85376427Y27905659D01*
X85376424Y27905661D01*
X85376423Y27905662D01*
X85225796Y27984718D01*
X85225793Y27984719D01*
X85060629Y28025428D01*
X85060627Y28025428D01*
X84890515Y28025428D01*
X84890512Y28025428D01*
X84725348Y27984719D01*
X84574717Y27905661D01*
X84574714Y27905659D01*
X84447387Y27792857D01*
X84350752Y27652858D01*
X84290430Y27493800D01*
X84269926Y27324932D01*
X84269926Y27324925D01*
X25912560Y27324925D01*
X25860856Y27370731D01*
X25860853Y27370733D01*
X25860852Y27370734D01*
X25710225Y27449790D01*
X25710222Y27449791D01*
X25617056Y27472754D01*
X25558009Y27487308D01*
X25515969Y27515500D01*
X25502260Y27550233D01*
X25495140Y27608872D01*
X25495139Y27608874D01*
X25495139Y27608876D01*
X25434818Y27767930D01*
X25338183Y27907929D01*
X25210856Y28020731D01*
X25210853Y28020733D01*
X25210852Y28020734D01*
X25060225Y28099790D01*
X25060222Y28099791D01*
X24895058Y28140500D01*
X24895056Y28140500D01*
X24724944Y28140500D01*
X24724941Y28140500D01*
X24559777Y28099791D01*
X24559775Y28099791D01*
X24559775Y28099790D01*
X24548936Y28094101D01*
X24409146Y28020733D01*
X24409143Y28020731D01*
X24281816Y27907929D01*
X24185181Y27767930D01*
X24124859Y27608872D01*
X24104355Y27440004D01*
X24104355Y27439997D01*
X5426218Y27439997D01*
X5639528Y28006492D01*
X5645448Y28016753D01*
X5644811Y28017101D01*
X5648105Y28023115D01*
X5648105Y28023118D01*
X5648108Y28023120D01*
X5663307Y28069551D01*
X5663806Y28070968D01*
X5671036Y28090165D01*
X5671733Y28094109D01*
X5673001Y28099162D01*
X6174167Y29629997D01*
X26694355Y29629997D01*
X26714859Y29461129D01*
X26775181Y29302071D01*
X26775182Y29302070D01*
X26871817Y29162071D01*
X26999148Y29049266D01*
X27149775Y28970210D01*
X27314944Y28929500D01*
X27314948Y28929500D01*
X27485052Y28929500D01*
X27485056Y28929500D01*
X27650225Y28970210D01*
X27800852Y29049266D01*
X27928183Y29162071D01*
X28024818Y29302070D01*
X28085140Y29461128D01*
X28105645Y29630000D01*
X28085140Y29798872D01*
X28024818Y29957930D01*
X27928183Y30097929D01*
X27928182Y30097929D01*
X27800856Y30210731D01*
X27800853Y30210733D01*
X27800852Y30210734D01*
X27650225Y30289790D01*
X27650222Y30289791D01*
X27485058Y30330500D01*
X27485056Y30330500D01*
X27314944Y30330500D01*
X27314941Y30330500D01*
X27149777Y30289791D01*
X26999146Y30210733D01*
X26999143Y30210731D01*
X26871816Y30097929D01*
X26775181Y29957930D01*
X26714859Y29798872D01*
X26694355Y29630004D01*
X26694355Y29629997D01*
X6174167Y29629997D01*
X6746544Y31378347D01*
X6752102Y31389061D01*
X6751513Y31389349D01*
X6754528Y31395504D01*
X6754531Y31395507D01*
X6767499Y31442232D01*
X6767979Y31443821D01*
X6774248Y31462967D01*
X6774815Y31467257D01*
X6775839Y31472285D01*
X7433406Y33841458D01*
X7438651Y33852872D01*
X7438192Y33853069D01*
X7440895Y33859366D01*
X7440899Y33859370D01*
X7451366Y33906000D01*
X7451796Y33907714D01*
X7457001Y33926464D01*
X7457433Y33931493D01*
X7458193Y33936412D01*
X7528590Y34250000D01*
X24804520Y34250000D01*
X24824409Y33997282D01*
X24883585Y33750794D01*
X24980598Y33516585D01*
X24980602Y33516578D01*
X25076188Y33360597D01*
X25113049Y33300445D01*
X25277683Y33107683D01*
X25470445Y32943049D01*
X25686587Y32810597D01*
X25920789Y32713587D01*
X26167283Y32654409D01*
X26356722Y32639500D01*
X26483278Y32639500D01*
X26672717Y32654409D01*
X26919211Y32713587D01*
X27153413Y32810597D01*
X27369555Y32943049D01*
X27562317Y33107683D01*
X27726951Y33300445D01*
X27859403Y33516587D01*
X27956413Y33750789D01*
X28015591Y33997283D01*
X28035480Y34250000D01*
X28015591Y34502717D01*
X27956413Y34749211D01*
X27859403Y34983413D01*
X27726951Y35199555D01*
X27709473Y35220019D01*
X53292050Y35220019D01*
X53318413Y35062036D01*
X53331546Y34983335D01*
X53409462Y34756371D01*
X53413337Y34749211D01*
X53523671Y34545332D01*
X53573209Y34481686D01*
X53671059Y34355968D01*
X53759330Y34274709D01*
X53847603Y34193448D01*
X53948046Y34127826D01*
X54048491Y34062201D01*
X54268231Y33965814D01*
X54268236Y33965813D01*
X54268240Y33965811D01*
X54500859Y33906904D01*
X54608652Y33897972D01*
X54680110Y33892050D01*
X54680118Y33892050D01*
X54799890Y33892050D01*
X54867955Y33897691D01*
X54979141Y33906904D01*
X55211760Y33965811D01*
X55211765Y33965814D01*
X55211768Y33965814D01*
X55431508Y34062201D01*
X55431510Y34062202D01*
X55632397Y34193448D01*
X55808942Y34355969D01*
X55956329Y34545332D01*
X56070538Y34756372D01*
X56148453Y34983331D01*
X56187950Y35220019D01*
X56467050Y35220019D01*
X56493413Y35062036D01*
X56506546Y34983335D01*
X56584462Y34756371D01*
X56588337Y34749211D01*
X56698671Y34545332D01*
X56748209Y34481686D01*
X56846059Y34355968D01*
X56934330Y34274709D01*
X57022603Y34193448D01*
X57123046Y34127826D01*
X57223491Y34062201D01*
X57443231Y33965814D01*
X57443236Y33965813D01*
X57443240Y33965811D01*
X57675859Y33906904D01*
X57783652Y33897972D01*
X57855110Y33892050D01*
X57855118Y33892050D01*
X57974890Y33892050D01*
X58042955Y33897691D01*
X58154141Y33906904D01*
X58386760Y33965811D01*
X58386765Y33965814D01*
X58386768Y33965814D01*
X58606508Y34062201D01*
X58606510Y34062202D01*
X58807397Y34193448D01*
X58983942Y34355969D01*
X59131329Y34545332D01*
X59245538Y34756372D01*
X59260516Y34800001D01*
X86104520Y34800001D01*
X86124409Y34547282D01*
X86183585Y34300794D01*
X86280598Y34066585D01*
X86280602Y34066578D01*
X86377933Y33907749D01*
X86413049Y33850445D01*
X86577683Y33657683D01*
X86770445Y33493049D01*
X86986587Y33360597D01*
X87220789Y33263587D01*
X87467283Y33204409D01*
X87656722Y33189500D01*
X87783278Y33189500D01*
X87972717Y33204409D01*
X88219211Y33263587D01*
X88453413Y33360597D01*
X88669555Y33493049D01*
X88862317Y33657683D01*
X89026951Y33850445D01*
X89159403Y34066587D01*
X89256413Y34300789D01*
X89315591Y34547283D01*
X89335480Y34800000D01*
X89315591Y35052717D01*
X89256413Y35299211D01*
X89159403Y35533413D01*
X89026951Y35749555D01*
X88862317Y35942317D01*
X88862314Y35942320D01*
X88725387Y36059266D01*
X88669555Y36106951D01*
X88642440Y36123567D01*
X88453422Y36239398D01*
X88453415Y36239402D01*
X88277977Y36312071D01*
X88219211Y36336413D01*
X88219210Y36336414D01*
X88219206Y36336415D01*
X87972718Y36395591D01*
X87783278Y36410500D01*
X87656722Y36410500D01*
X87467281Y36395591D01*
X87220793Y36336415D01*
X86986584Y36239402D01*
X86986577Y36239398D01*
X86770447Y36106953D01*
X86770446Y36106952D01*
X86577685Y35942320D01*
X86577680Y35942315D01*
X86413048Y35749554D01*
X86413047Y35749553D01*
X86280602Y35533423D01*
X86280598Y35533416D01*
X86183585Y35299207D01*
X86124409Y35052719D01*
X86104520Y34800001D01*
X59260516Y34800001D01*
X59323453Y34983331D01*
X59362950Y35220019D01*
X59362950Y35459981D01*
X59323453Y35696669D01*
X59245538Y35923628D01*
X59131329Y36134668D01*
X58983942Y36324031D01*
X58970489Y36336415D01*
X58807397Y36486552D01*
X58606508Y36617800D01*
X58386768Y36714187D01*
X58365205Y36719648D01*
X58154141Y36773096D01*
X58134223Y36774747D01*
X57974890Y36787950D01*
X57974882Y36787950D01*
X57855118Y36787950D01*
X57855110Y36787950D01*
X57675859Y36773096D01*
X57443231Y36714187D01*
X57223491Y36617800D01*
X57022602Y36486552D01*
X56846059Y36324033D01*
X56771503Y36228243D01*
X56737065Y36183996D01*
X56698669Y36134665D01*
X56698667Y36134661D01*
X56584462Y35923630D01*
X56506546Y35696666D01*
X56486822Y35578469D01*
X56467050Y35459981D01*
X56467050Y35220019D01*
X56187950Y35220019D01*
X56187950Y35459981D01*
X56148453Y35696669D01*
X56070538Y35923628D01*
X55956329Y36134668D01*
X55808942Y36324031D01*
X55795489Y36336415D01*
X55632397Y36486552D01*
X55431508Y36617800D01*
X55211768Y36714187D01*
X55190205Y36719648D01*
X54979141Y36773096D01*
X54959223Y36774747D01*
X54799890Y36787950D01*
X54799882Y36787950D01*
X54680118Y36787950D01*
X54680110Y36787950D01*
X54500859Y36773096D01*
X54268231Y36714187D01*
X54048491Y36617800D01*
X53847602Y36486552D01*
X53671059Y36324033D01*
X53596503Y36228243D01*
X53562065Y36183996D01*
X53523669Y36134665D01*
X53523667Y36134661D01*
X53409462Y35923630D01*
X53331546Y35696666D01*
X53311822Y35578469D01*
X53292050Y35459981D01*
X53292050Y35220019D01*
X27709473Y35220019D01*
X27562317Y35392317D01*
X27562314Y35392320D01*
X27483092Y35459981D01*
X27369555Y35556951D01*
X27369552Y35556953D01*
X27153422Y35689398D01*
X27153415Y35689402D01*
X27135878Y35696666D01*
X26919211Y35786413D01*
X26919210Y35786414D01*
X26919206Y35786415D01*
X26672718Y35845591D01*
X26483278Y35860500D01*
X26356722Y35860500D01*
X26167281Y35845591D01*
X25920793Y35786415D01*
X25686584Y35689402D01*
X25686577Y35689398D01*
X25470447Y35556953D01*
X25470446Y35556952D01*
X25277685Y35392320D01*
X25277680Y35392315D01*
X25113048Y35199554D01*
X25113047Y35199553D01*
X24980602Y34983423D01*
X24980598Y34983416D01*
X24883585Y34749207D01*
X24824409Y34502719D01*
X24804520Y34250000D01*
X7528590Y34250000D01*
X8065120Y36639997D01*
X51774355Y36639997D01*
X51794859Y36471129D01*
X51855181Y36312071D01*
X51951816Y36172072D01*
X52025322Y36106951D01*
X52079148Y36059266D01*
X52229775Y35980210D01*
X52394944Y35939500D01*
X52394948Y35939500D01*
X52565052Y35939500D01*
X52565056Y35939500D01*
X52730225Y35980210D01*
X52880852Y36059266D01*
X53008183Y36172071D01*
X53104818Y36312070D01*
X53165140Y36471128D01*
X53170266Y36513346D01*
X53185645Y36639997D01*
X53185645Y36640004D01*
X53165140Y36808872D01*
X53161013Y36819754D01*
X59060342Y36819754D01*
X59091023Y36645759D01*
X59161001Y36483529D01*
X59161002Y36483528D01*
X59266509Y36341808D01*
X59266515Y36341803D01*
X59401849Y36228243D01*
X59401852Y36228242D01*
X59401854Y36228240D01*
X59559741Y36148946D01*
X59731660Y36108200D01*
X59864019Y36108200D01*
X59995486Y36123566D01*
X60161511Y36183995D01*
X60309126Y36281082D01*
X60430372Y36409595D01*
X60518712Y36562605D01*
X60569385Y36731863D01*
X60579658Y36908245D01*
X60548977Y37082241D01*
X60478998Y37244472D01*
X60373491Y37386192D01*
X60373484Y37386198D01*
X60238150Y37499758D01*
X60080260Y37579054D01*
X60080256Y37579055D01*
X59908340Y37619800D01*
X59775981Y37619800D01*
X59644511Y37604434D01*
X59478487Y37544005D01*
X59478486Y37544005D01*
X59330874Y37446918D01*
X59209626Y37318403D01*
X59121288Y37165396D01*
X59121287Y37165394D01*
X59070615Y36996140D01*
X59070615Y36996137D01*
X59060342Y36819754D01*
X53161013Y36819754D01*
X53104818Y36967930D01*
X53008183Y37107929D01*
X52880856Y37220731D01*
X52880853Y37220733D01*
X52880852Y37220734D01*
X52730225Y37299790D01*
X52730222Y37299791D01*
X52565058Y37340500D01*
X52565056Y37340500D01*
X52394944Y37340500D01*
X52394941Y37340500D01*
X52229777Y37299791D01*
X52079146Y37220733D01*
X52079143Y37220731D01*
X51951816Y37107929D01*
X51855181Y36967930D01*
X51794859Y36808872D01*
X51774355Y36640004D01*
X51774355Y36639997D01*
X8065120Y36639997D01*
X8209479Y37283049D01*
X8213063Y37294538D01*
X8213488Y37295594D01*
X8213493Y37295600D01*
X8223862Y37347087D01*
X8223997Y37347721D01*
X8229302Y37371347D01*
X8229302Y37371349D01*
X8229739Y37374735D01*
X8229919Y37374712D01*
X8230614Y37380608D01*
X8322286Y37835754D01*
X53980342Y37835754D01*
X54011023Y37661759D01*
X54081001Y37499529D01*
X54081004Y37499525D01*
X54113270Y37456185D01*
X54186509Y37357808D01*
X54186515Y37357803D01*
X54321849Y37244243D01*
X54321852Y37244242D01*
X54321854Y37244240D01*
X54479741Y37164946D01*
X54651660Y37124200D01*
X54784019Y37124200D01*
X54915486Y37139566D01*
X55081511Y37199995D01*
X55229126Y37297082D01*
X55350372Y37425595D01*
X55438712Y37578605D01*
X55489385Y37747863D01*
X55499658Y37924245D01*
X55488064Y37989997D01*
X82029355Y37989997D01*
X82049859Y37821129D01*
X82110181Y37662071D01*
X82206816Y37522072D01*
X82291647Y37446918D01*
X82334148Y37409266D01*
X82484775Y37330210D01*
X82649944Y37289500D01*
X82649948Y37289500D01*
X82820052Y37289500D01*
X82820056Y37289500D01*
X82985225Y37330210D01*
X83135852Y37409266D01*
X83185928Y37453631D01*
X83233013Y37472214D01*
X83281027Y37456185D01*
X83284066Y37453635D01*
X83334148Y37409266D01*
X83484775Y37330210D01*
X83649944Y37289500D01*
X83649948Y37289500D01*
X83820052Y37289500D01*
X83820056Y37289500D01*
X83985225Y37330210D01*
X84135852Y37409266D01*
X84263183Y37522071D01*
X84359818Y37662070D01*
X84420140Y37821128D01*
X84440645Y37990000D01*
X84420140Y38158872D01*
X84359818Y38317930D01*
X84263183Y38457929D01*
X84206905Y38507787D01*
X84135856Y38570731D01*
X84135853Y38570733D01*
X84135852Y38570734D01*
X83985225Y38649790D01*
X83985222Y38649791D01*
X83820058Y38690500D01*
X83820056Y38690500D01*
X83649944Y38690500D01*
X83649941Y38690500D01*
X83484777Y38649791D01*
X83334146Y38570733D01*
X83334143Y38570731D01*
X83284071Y38526370D01*
X83236987Y38507787D01*
X83188973Y38523816D01*
X83185929Y38526370D01*
X83135856Y38570731D01*
X83135853Y38570733D01*
X83135852Y38570734D01*
X82985225Y38649790D01*
X82985222Y38649791D01*
X82820058Y38690500D01*
X82820056Y38690500D01*
X82649944Y38690500D01*
X82649941Y38690500D01*
X82484777Y38649791D01*
X82334146Y38570733D01*
X82334143Y38570731D01*
X82206816Y38457929D01*
X82110181Y38317930D01*
X82049859Y38158872D01*
X82029355Y37990004D01*
X82029355Y37989997D01*
X55488064Y37989997D01*
X55468977Y38098241D01*
X55398998Y38260472D01*
X55293491Y38402192D01*
X55293484Y38402198D01*
X55158150Y38515758D01*
X55000260Y38595054D01*
X55000256Y38595055D01*
X54828340Y38635800D01*
X54695981Y38635800D01*
X54564511Y38620434D01*
X54398487Y38560005D01*
X54398486Y38560005D01*
X54250874Y38462918D01*
X54129626Y38334403D01*
X54041288Y38181396D01*
X54041287Y38181394D01*
X53990615Y38012140D01*
X53990615Y38012137D01*
X53980342Y37835754D01*
X8322286Y37835754D01*
X8526922Y38851754D01*
X59060342Y38851754D01*
X59091023Y38677759D01*
X59161001Y38515529D01*
X59161002Y38515528D01*
X59266509Y38373808D01*
X59266515Y38373803D01*
X59401849Y38260243D01*
X59401852Y38260242D01*
X59401854Y38260240D01*
X59559741Y38180946D01*
X59731660Y38140200D01*
X59864019Y38140200D01*
X59995486Y38155566D01*
X60161511Y38215995D01*
X60309126Y38313082D01*
X60430372Y38441595D01*
X60518712Y38594605D01*
X60569385Y38763863D01*
X60579658Y38940245D01*
X60548977Y39114241D01*
X60478998Y39276472D01*
X60373491Y39418192D01*
X60373484Y39418198D01*
X60238150Y39531758D01*
X60080260Y39611054D01*
X60080256Y39611055D01*
X59908340Y39651800D01*
X59775981Y39651800D01*
X59644511Y39636434D01*
X59478487Y39576005D01*
X59478486Y39576005D01*
X59330874Y39478918D01*
X59209626Y39350403D01*
X59121288Y39197396D01*
X59121287Y39197394D01*
X59070615Y39028140D01*
X59070615Y39028137D01*
X59060342Y38851754D01*
X8526922Y38851754D01*
X8782823Y40122279D01*
X8787378Y40134505D01*
X8787049Y40134617D01*
X8789266Y40141105D01*
X8789265Y40141105D01*
X8789268Y40141108D01*
X8796045Y40187654D01*
X8796380Y40189591D01*
X8800082Y40207962D01*
X8800162Y40213724D01*
X8800545Y40218544D01*
X8812410Y40300019D01*
X53292050Y40300019D01*
X53318413Y40142036D01*
X53331546Y40063335D01*
X53409462Y39836371D01*
X53480456Y39705185D01*
X53523671Y39625332D01*
X53671058Y39435969D01*
X53847603Y39273448D01*
X53948046Y39207826D01*
X54048491Y39142201D01*
X54268231Y39045814D01*
X54268236Y39045813D01*
X54268240Y39045811D01*
X54500859Y38986904D01*
X54608652Y38977972D01*
X54680110Y38972050D01*
X54680118Y38972050D01*
X54799890Y38972050D01*
X54867955Y38977691D01*
X54979141Y38986904D01*
X55211760Y39045811D01*
X55211765Y39045814D01*
X55211768Y39045814D01*
X55431508Y39142201D01*
X55431510Y39142202D01*
X55632397Y39273448D01*
X55808942Y39435969D01*
X55956329Y39625332D01*
X56070538Y39836372D01*
X56148453Y40063331D01*
X56187950Y40300019D01*
X56467050Y40300019D01*
X56493413Y40142036D01*
X56506546Y40063335D01*
X56584462Y39836371D01*
X56655456Y39705185D01*
X56698671Y39625332D01*
X56846058Y39435969D01*
X57022603Y39273448D01*
X57123046Y39207826D01*
X57223491Y39142201D01*
X57443231Y39045814D01*
X57443236Y39045813D01*
X57443240Y39045811D01*
X57675859Y38986904D01*
X57783652Y38977972D01*
X57855110Y38972050D01*
X57855118Y38972050D01*
X57974890Y38972050D01*
X58042955Y38977691D01*
X58154141Y38986904D01*
X58386760Y39045811D01*
X58386765Y39045814D01*
X58386768Y39045814D01*
X58606508Y39142201D01*
X58606510Y39142202D01*
X58807397Y39273448D01*
X58983942Y39435969D01*
X59131329Y39625332D01*
X59245538Y39836372D01*
X59323453Y40063331D01*
X59362950Y40300019D01*
X59362950Y40539981D01*
X59323453Y40776669D01*
X59250556Y40989012D01*
X64893370Y40989012D01*
X64913874Y40820144D01*
X64974196Y40661086D01*
X65057792Y40539978D01*
X65070832Y40521086D01*
X65198163Y40408281D01*
X65348790Y40329225D01*
X65513959Y40288515D01*
X65513963Y40288515D01*
X65684067Y40288515D01*
X65684071Y40288515D01*
X65849240Y40329225D01*
X65999867Y40408281D01*
X66127198Y40521086D01*
X66223833Y40661085D01*
X66284155Y40820143D01*
X66304660Y40989015D01*
X66302885Y41003630D01*
X66284155Y41157887D01*
X66223833Y41316945D01*
X66127198Y41456944D01*
X65999871Y41569746D01*
X65999868Y41569748D01*
X65999867Y41569749D01*
X65849240Y41648805D01*
X65849237Y41648806D01*
X65684073Y41689515D01*
X65684071Y41689515D01*
X65513959Y41689515D01*
X65513956Y41689515D01*
X65348792Y41648806D01*
X65198161Y41569748D01*
X65198158Y41569746D01*
X65070831Y41456944D01*
X64974196Y41316945D01*
X64913874Y41157887D01*
X64893370Y40989019D01*
X64893370Y40989012D01*
X59250556Y40989012D01*
X59245538Y41003628D01*
X59131329Y41214668D01*
X58983942Y41404031D01*
X58807397Y41566552D01*
X58802504Y41569749D01*
X58606508Y41697800D01*
X58386768Y41794187D01*
X58365205Y41799648D01*
X58154141Y41853096D01*
X58134223Y41854747D01*
X57974890Y41867950D01*
X57974882Y41867950D01*
X57855118Y41867950D01*
X57855110Y41867950D01*
X57675859Y41853096D01*
X57443231Y41794187D01*
X57223491Y41697800D01*
X57022602Y41566552D01*
X56846059Y41404033D01*
X56698669Y41214665D01*
X56698667Y41214661D01*
X56584462Y41003630D01*
X56579445Y40989015D01*
X56506547Y40776669D01*
X56467050Y40539981D01*
X56467050Y40300019D01*
X56187950Y40300019D01*
X56187950Y40539981D01*
X56148453Y40776669D01*
X56070538Y41003628D01*
X55956329Y41214668D01*
X55808942Y41404031D01*
X55632397Y41566552D01*
X55627504Y41569749D01*
X55431508Y41697800D01*
X55211768Y41794187D01*
X55190205Y41799648D01*
X54979141Y41853096D01*
X54959223Y41854747D01*
X54799890Y41867950D01*
X54799882Y41867950D01*
X54680118Y41867950D01*
X54680110Y41867950D01*
X54500859Y41853096D01*
X54268231Y41794187D01*
X54048491Y41697800D01*
X53847602Y41566552D01*
X53671059Y41404033D01*
X53523669Y41214665D01*
X53523667Y41214661D01*
X53409462Y41003630D01*
X53404445Y40989015D01*
X53331547Y40776669D01*
X53292050Y40539981D01*
X53292050Y40300019D01*
X8812410Y40300019D01*
X9008835Y41648805D01*
X9088305Y42194499D01*
X9089175Y42198142D01*
X9089817Y42202732D01*
X9089819Y42202735D01*
X9097475Y42257463D01*
X9101376Y42284248D01*
X9101376Y42284253D01*
X9101384Y42284394D01*
X9101691Y42287606D01*
X9358888Y44126088D01*
X9362233Y44136619D01*
X9361266Y44136904D01*
X9363206Y44143481D01*
X9363206Y44143484D01*
X9363208Y44143487D01*
X9368299Y44193178D01*
X9368456Y44194480D01*
X9371460Y44215942D01*
X9371456Y44216027D01*
X9371761Y44226963D01*
X9388007Y44385497D01*
X44334355Y44385497D01*
X44354859Y44216629D01*
X44415181Y44057571D01*
X44415182Y44057570D01*
X44511817Y43917571D01*
X44639148Y43804766D01*
X44789775Y43725710D01*
X44954944Y43685000D01*
X44954948Y43685000D01*
X45125052Y43685000D01*
X45125056Y43685000D01*
X45290225Y43725710D01*
X45440852Y43804766D01*
X45568183Y43917571D01*
X45664818Y44057570D01*
X45725140Y44216628D01*
X45745645Y44385500D01*
X45739830Y44433389D01*
X45725140Y44554372D01*
X45664818Y44713430D01*
X45568183Y44853429D01*
X45440856Y44966231D01*
X45440853Y44966233D01*
X45440852Y44966234D01*
X45290225Y45045290D01*
X45290222Y45045291D01*
X45125058Y45086000D01*
X45125056Y45086000D01*
X44954944Y45086000D01*
X44954941Y45086000D01*
X44789777Y45045291D01*
X44639146Y44966233D01*
X44639143Y44966231D01*
X44511816Y44853429D01*
X44415181Y44713430D01*
X44354859Y44554372D01*
X44334355Y44385504D01*
X44334355Y44385497D01*
X9388007Y44385497D01*
X9528293Y45754497D01*
X49864355Y45754497D01*
X49884859Y45585629D01*
X49945181Y45426571D01*
X50041816Y45286572D01*
X50106521Y45229248D01*
X50169148Y45173766D01*
X50319775Y45094710D01*
X50484944Y45054000D01*
X50484948Y45054000D01*
X50655052Y45054000D01*
X50655056Y45054000D01*
X50820225Y45094710D01*
X50970852Y45173766D01*
X51098183Y45286571D01*
X51194818Y45426570D01*
X51255140Y45585628D01*
X51260455Y45629400D01*
X51275645Y45754497D01*
X51275645Y45754504D01*
X51255140Y45923372D01*
X51194818Y46082430D01*
X51098183Y46222429D01*
X50970856Y46335231D01*
X50970853Y46335233D01*
X50970852Y46335234D01*
X50820225Y46414290D01*
X50820222Y46414291D01*
X50655058Y46455000D01*
X50655056Y46455000D01*
X50484944Y46455000D01*
X50484941Y46455000D01*
X50319777Y46414291D01*
X50169146Y46335233D01*
X50169143Y46335231D01*
X50041816Y46222429D01*
X49945181Y46082430D01*
X49884859Y45923372D01*
X49864355Y45754504D01*
X49864355Y45754497D01*
X9528293Y45754497D01*
X9646701Y46909997D01*
X56164355Y46909997D01*
X56184859Y46741129D01*
X56245181Y46582071D01*
X56332893Y46455000D01*
X56341817Y46442071D01*
X56361673Y46424480D01*
X56374145Y46413431D01*
X56398269Y46368930D01*
X56388143Y46319334D01*
X56385975Y46316004D01*
X56325181Y46227930D01*
X56264859Y46068872D01*
X56244355Y45900004D01*
X56244355Y45899997D01*
X56264859Y45731129D01*
X56325181Y45572071D01*
X56421818Y45432069D01*
X56424778Y45429447D01*
X56448902Y45384945D01*
X56438776Y45335349D01*
X56436608Y45332020D01*
X56365668Y45229248D01*
X56305346Y45070190D01*
X56284842Y44901322D01*
X56284842Y44901315D01*
X56305346Y44732447D01*
X56365668Y44573389D01*
X56375464Y44559198D01*
X56462304Y44433389D01*
X56589635Y44320584D01*
X56740262Y44241528D01*
X56905431Y44200818D01*
X56905435Y44200818D01*
X57075539Y44200818D01*
X57075543Y44200818D01*
X57240712Y44241528D01*
X57391339Y44320584D01*
X57518670Y44433389D01*
X57615305Y44573388D01*
X57675627Y44732446D01*
X57696132Y44901318D01*
X57678650Y45045290D01*
X57675627Y45070190D01*
X57615305Y45229248D01*
X57615304Y45229248D01*
X57565456Y45301466D01*
X58910303Y45301466D01*
X58930807Y45132598D01*
X58991129Y44973540D01*
X59087764Y44833541D01*
X59201875Y44732447D01*
X59215096Y44720735D01*
X59365723Y44641679D01*
X59530892Y44600969D01*
X59530896Y44600969D01*
X59701000Y44600969D01*
X59701004Y44600969D01*
X59866173Y44641679D01*
X60016800Y44720735D01*
X60144131Y44833540D01*
X60240766Y44973539D01*
X60301088Y45132597D01*
X60321593Y45301469D01*
X60317883Y45332020D01*
X60301088Y45470341D01*
X60262508Y45572069D01*
X60240766Y45629399D01*
X60171243Y45730120D01*
X60158470Y45779098D01*
X60180170Y45824830D01*
X60183049Y45827524D01*
X60188183Y45832071D01*
X60284818Y45972070D01*
X60345140Y46131128D01*
X60365645Y46300000D01*
X60363297Y46319334D01*
X60345140Y46468872D01*
X60284818Y46627930D01*
X60188183Y46767929D01*
X60060856Y46880731D01*
X60060853Y46880733D01*
X60060852Y46880734D01*
X59910225Y46959790D01*
X59910222Y46959791D01*
X59745058Y47000500D01*
X59745056Y47000500D01*
X59574944Y47000500D01*
X59574941Y47000500D01*
X59409777Y46959791D01*
X59259146Y46880733D01*
X59259143Y46880731D01*
X59131816Y46767929D01*
X59035181Y46627930D01*
X58974859Y46468872D01*
X58954355Y46300004D01*
X58954355Y46299997D01*
X58974859Y46131129D01*
X59035181Y45972071D01*
X59104703Y45871351D01*
X59117475Y45822370D01*
X59095775Y45776638D01*
X59092877Y45773927D01*
X59087764Y45769398D01*
X58991129Y45629399D01*
X58930807Y45470341D01*
X58910303Y45301473D01*
X58910303Y45301466D01*
X57565456Y45301466D01*
X57518670Y45369247D01*
X57515706Y45371873D01*
X57491584Y45416373D01*
X57501710Y45465969D01*
X57503879Y45469298D01*
X57574815Y45572066D01*
X57574817Y45572069D01*
X57574816Y45572069D01*
X57574818Y45572070D01*
X57635140Y45731128D01*
X57647397Y45832073D01*
X57655645Y45899997D01*
X57655645Y45900004D01*
X57635140Y46068872D01*
X57574818Y46227930D01*
X57478183Y46367929D01*
X57445854Y46396570D01*
X57421730Y46441071D01*
X57431856Y46490667D01*
X57434010Y46493976D01*
X57494818Y46582070D01*
X57555140Y46741128D01*
X57572091Y46880731D01*
X57575645Y46909997D01*
X57575645Y46910004D01*
X57555140Y47078872D01*
X57494818Y47237930D01*
X57398183Y47377929D01*
X57270856Y47490731D01*
X57270853Y47490733D01*
X57270852Y47490734D01*
X57120225Y47569790D01*
X57120222Y47569791D01*
X56955058Y47610500D01*
X56955056Y47610500D01*
X56784944Y47610500D01*
X56784941Y47610500D01*
X56619777Y47569791D01*
X56469146Y47490733D01*
X56469143Y47490731D01*
X56341816Y47377929D01*
X56245181Y47237930D01*
X56184859Y47078872D01*
X56164355Y46910004D01*
X56164355Y46909997D01*
X9646701Y46909997D01*
X9652595Y46967511D01*
X9655622Y46978583D01*
X9654801Y46978789D01*
X9656473Y46985442D01*
X9656475Y46985445D01*
X9659511Y47034712D01*
X9659633Y47036195D01*
X9661773Y47057070D01*
X9661709Y47057844D01*
X9661595Y47068518D01*
X9663400Y47097795D01*
X9705145Y47774997D01*
X60914355Y47774997D01*
X60934859Y47606129D01*
X60995181Y47447071D01*
X61080368Y47323658D01*
X61091817Y47307071D01*
X61219148Y47194266D01*
X61369775Y47115210D01*
X61534944Y47074500D01*
X61534948Y47074500D01*
X61705052Y47074500D01*
X61705056Y47074500D01*
X61870225Y47115210D01*
X62020852Y47194266D01*
X62145930Y47305076D01*
X62193013Y47323658D01*
X62241027Y47307629D01*
X62244052Y47305091D01*
X62369148Y47194266D01*
X62519775Y47115210D01*
X62684944Y47074500D01*
X62684948Y47074500D01*
X62855052Y47074500D01*
X62855056Y47074500D01*
X63020225Y47115210D01*
X63170852Y47194266D01*
X63296000Y47305137D01*
X101319500Y47305137D01*
X101322414Y47280014D01*
X101322415Y47280008D01*
X101360272Y47194270D01*
X101367794Y47177235D01*
X101447235Y47097794D01*
X101550009Y47052415D01*
X101575135Y47049500D01*
X103664864Y47049501D01*
X103689991Y47052415D01*
X103792765Y47097794D01*
X103872206Y47177235D01*
X103917585Y47280009D01*
X103920500Y47305135D01*
X103920499Y48294864D01*
X103917585Y48319991D01*
X103872206Y48422765D01*
X103792765Y48502206D01*
X103689991Y48547585D01*
X103689990Y48547586D01*
X103689988Y48547586D01*
X103668659Y48550060D01*
X103664865Y48550500D01*
X103664864Y48550500D01*
X101575136Y48550500D01*
X101550013Y48547586D01*
X101550007Y48547585D01*
X101447234Y48502206D01*
X101367794Y48422766D01*
X101322414Y48319989D01*
X101319500Y48294865D01*
X101319500Y47305137D01*
X63296000Y47305137D01*
X63298183Y47307071D01*
X63394818Y47447070D01*
X63455140Y47606128D01*
X63475645Y47775000D01*
X63455140Y47943872D01*
X63394818Y48102930D01*
X63343445Y48177355D01*
X63330674Y48226335D01*
X63343447Y48261428D01*
X63419815Y48372066D01*
X63419817Y48372069D01*
X63419816Y48372069D01*
X63419818Y48372070D01*
X63480140Y48531128D01*
X63497575Y48674718D01*
X63500645Y48699997D01*
X63500645Y48700004D01*
X63480140Y48868872D01*
X63419819Y49027927D01*
X63419818Y49027930D01*
X63364573Y49107965D01*
X63351802Y49156944D01*
X63364574Y49192037D01*
X63419818Y49272070D01*
X63480140Y49431128D01*
X63490842Y49519268D01*
X63500645Y49599997D01*
X63500645Y49600004D01*
X63480140Y49768872D01*
X63419818Y49927930D01*
X63323183Y50067929D01*
X63195856Y50180731D01*
X63195853Y50180733D01*
X63195852Y50180734D01*
X63045225Y50259790D01*
X63045222Y50259791D01*
X62880058Y50300500D01*
X62880056Y50300500D01*
X62709944Y50300500D01*
X62709941Y50300500D01*
X62544777Y50259791D01*
X62394146Y50180733D01*
X62394143Y50180731D01*
X62266816Y50067929D01*
X62170181Y49927930D01*
X62109859Y49768872D01*
X62089355Y49600004D01*
X62089355Y49599997D01*
X62109859Y49431129D01*
X62170182Y49272069D01*
X62170183Y49272067D01*
X62225424Y49192036D01*
X62238196Y49143055D01*
X62225424Y49107964D01*
X62170183Y49027934D01*
X62170182Y49027932D01*
X62109859Y48868872D01*
X62089355Y48700004D01*
X62089355Y48699997D01*
X62109859Y48531127D01*
X62148608Y48428953D01*
X62149288Y48378339D01*
X62117273Y48339129D01*
X62067546Y48329671D01*
X62030345Y48347324D01*
X62029711Y48347885D01*
X62020852Y48355734D01*
X61870225Y48434790D01*
X61870222Y48434791D01*
X61705058Y48475500D01*
X61705056Y48475500D01*
X61534944Y48475500D01*
X61534941Y48475500D01*
X61369777Y48434791D01*
X61219146Y48355733D01*
X61219143Y48355731D01*
X61091816Y48242929D01*
X60995181Y48102930D01*
X60934859Y47943872D01*
X60914355Y47775004D01*
X60914355Y47774997D01*
X9705145Y47774997D01*
X9827651Y49762315D01*
X9847857Y49808723D01*
X9893168Y49831287D01*
X9942383Y49819447D01*
X9951026Y49812752D01*
X10023079Y49747875D01*
X10186923Y49653280D01*
X10366844Y49594820D01*
X10507841Y49580000D01*
X10830000Y49580000D01*
X10830000Y50180000D01*
X11080000Y50180000D01*
X11080000Y49580000D01*
X11402159Y49580000D01*
X11543155Y49594820D01*
X11723076Y49653280D01*
X11886920Y49747875D01*
X12027516Y49874469D01*
X12138712Y50027515D01*
X12138718Y50027526D01*
X12215663Y50200348D01*
X12215665Y50200353D01*
X12248537Y50355000D01*
X11631342Y50355000D01*
X11658895Y50451840D01*
X11648546Y50563521D01*
X11627892Y50605000D01*
X12248537Y50605000D01*
X12248537Y50605001D01*
X13691462Y50605001D01*
X13691463Y50605000D01*
X14308658Y50605000D01*
X14281105Y50508160D01*
X14291454Y50396479D01*
X14312108Y50355000D01*
X13691463Y50355000D01*
X13724334Y50200353D01*
X13724335Y50200352D01*
X13801283Y50027523D01*
X13801287Y50027516D01*
X13912483Y49874469D01*
X14053079Y49747875D01*
X14216923Y49653280D01*
X14396844Y49594820D01*
X14537841Y49580000D01*
X15010000Y49580000D01*
X15010000Y50180000D01*
X15260000Y50180000D01*
X15260000Y49580000D01*
X15732159Y49580000D01*
X15873155Y49594820D01*
X16053076Y49653280D01*
X16216920Y49747875D01*
X16357516Y49874469D01*
X16468712Y50027515D01*
X16468718Y50027526D01*
X16500984Y50099997D01*
X34914355Y50099997D01*
X34934859Y49931129D01*
X34995181Y49772071D01*
X35067844Y49666802D01*
X35091817Y49632071D01*
X35219148Y49519266D01*
X35369775Y49440210D01*
X35534944Y49399500D01*
X35534948Y49399500D01*
X35705052Y49399500D01*
X35705056Y49399500D01*
X35870225Y49440210D01*
X35888872Y49449997D01*
X48789355Y49449997D01*
X48809859Y49281129D01*
X48870181Y49122071D01*
X48966816Y48982072D01*
X49048116Y48910046D01*
X49094148Y48869266D01*
X49244775Y48790210D01*
X49409944Y48749500D01*
X49409948Y48749500D01*
X49580052Y48749500D01*
X49580056Y48749500D01*
X49745225Y48790210D01*
X49895852Y48869266D01*
X50023183Y48982071D01*
X50119818Y49122070D01*
X50180140Y49281128D01*
X50194513Y49399501D01*
X50200645Y49449997D01*
X50200645Y49450004D01*
X50180140Y49618872D01*
X50119818Y49777930D01*
X50023183Y49917929D01*
X49895856Y50030731D01*
X49895853Y50030733D01*
X49895852Y50030734D01*
X49745225Y50109790D01*
X49745222Y50109791D01*
X49580058Y50150500D01*
X49580056Y50150500D01*
X49409944Y50150500D01*
X49409941Y50150500D01*
X49244777Y50109791D01*
X49094146Y50030733D01*
X49094143Y50030731D01*
X48966816Y49917929D01*
X48870181Y49777930D01*
X48809859Y49618872D01*
X48789355Y49450004D01*
X48789355Y49449997D01*
X35888872Y49449997D01*
X36020852Y49519266D01*
X36148183Y49632071D01*
X36244818Y49772070D01*
X36305140Y49931128D01*
X36317234Y50030731D01*
X36325645Y50099997D01*
X36325645Y50100004D01*
X36305140Y50268872D01*
X36272476Y50355000D01*
X36244818Y50427930D01*
X36233115Y50444884D01*
X36155062Y50557963D01*
X36142288Y50606944D01*
X36155062Y50642037D01*
X36222325Y50739484D01*
X36244818Y50772070D01*
X36305140Y50931128D01*
X36307431Y50950000D01*
X94264457Y50950000D01*
X94284609Y50642540D01*
X94284609Y50642536D01*
X94284610Y50642533D01*
X94344717Y50340350D01*
X94344721Y50340338D01*
X94443763Y50048570D01*
X94580039Y49772230D01*
X94580045Y49772219D01*
X94749061Y49519270D01*
X94751222Y49516036D01*
X94954380Y49284380D01*
X95186036Y49081222D01*
X95265787Y49027934D01*
X95442218Y48910046D01*
X95442223Y48910043D01*
X95442228Y48910040D01*
X95718573Y48773762D01*
X96010341Y48674720D01*
X96010345Y48674720D01*
X96010349Y48674718D01*
X96161440Y48644665D01*
X96312540Y48614609D01*
X96620000Y48594457D01*
X96927460Y48614609D01*
X97152093Y48659292D01*
X97229650Y48674718D01*
X97229651Y48674719D01*
X97229659Y48674720D01*
X97521427Y48773762D01*
X97797772Y48910040D01*
X98053964Y49081222D01*
X98285620Y49284380D01*
X98488778Y49516036D01*
X98659960Y49772228D01*
X98796238Y50048573D01*
X98895280Y50340341D01*
X98955391Y50642540D01*
X98975543Y50950000D01*
X98955391Y51257460D01*
X98922648Y51422072D01*
X98895282Y51559651D01*
X98895280Y51559655D01*
X98895280Y51559659D01*
X98796238Y51851427D01*
X98659960Y52127771D01*
X98659957Y52127776D01*
X98659954Y52127781D01*
X98488779Y52383962D01*
X98488778Y52383964D01*
X98285620Y52615620D01*
X98053964Y52818778D01*
X98049036Y52822071D01*
X97797781Y52989955D01*
X97797770Y52989961D01*
X97521430Y53126237D01*
X97229662Y53225279D01*
X97229650Y53225283D01*
X96927467Y53285390D01*
X96927464Y53285391D01*
X96927460Y53285391D01*
X96620000Y53305543D01*
X96619999Y53305543D01*
X96582762Y53303103D01*
X96312540Y53285391D01*
X96312536Y53285391D01*
X96312532Y53285390D01*
X96010349Y53225283D01*
X96010337Y53225279D01*
X95718569Y53126237D01*
X95442230Y52989961D01*
X95442219Y52989955D01*
X95186038Y52818780D01*
X94954380Y52615620D01*
X94751220Y52383962D01*
X94580045Y52127781D01*
X94580039Y52127770D01*
X94443763Y51851431D01*
X94344721Y51559663D01*
X94344717Y51559651D01*
X94284610Y51257468D01*
X94284609Y51257464D01*
X94284609Y51257460D01*
X94264457Y50950000D01*
X36307431Y50950000D01*
X36310266Y50973346D01*
X36325645Y51099997D01*
X36325645Y51100004D01*
X36305140Y51268872D01*
X36262995Y51380000D01*
X36244818Y51427930D01*
X36155061Y51557964D01*
X36142288Y51606944D01*
X36155062Y51642037D01*
X36244815Y51772066D01*
X36244817Y51772069D01*
X36244816Y51772069D01*
X36244818Y51772070D01*
X36289541Y51889997D01*
X48394355Y51889997D01*
X48414859Y51721129D01*
X48475181Y51562071D01*
X48571816Y51422072D01*
X48688599Y51318611D01*
X48699148Y51309266D01*
X48849775Y51230210D01*
X49014944Y51189500D01*
X49014948Y51189500D01*
X49185052Y51189500D01*
X49185056Y51189500D01*
X49350225Y51230210D01*
X49500852Y51309266D01*
X49628183Y51422071D01*
X49724818Y51562070D01*
X49785140Y51721128D01*
X49791326Y51772071D01*
X49805645Y51889997D01*
X49805645Y51890004D01*
X49785140Y52058872D01*
X49724818Y52217930D01*
X49628183Y52357929D01*
X49500856Y52470731D01*
X49500853Y52470733D01*
X49500852Y52470734D01*
X49350225Y52549790D01*
X49350222Y52549791D01*
X49185058Y52590500D01*
X49185056Y52590500D01*
X49014944Y52590500D01*
X49014941Y52590500D01*
X48849777Y52549791D01*
X48699146Y52470733D01*
X48699143Y52470731D01*
X48571816Y52357929D01*
X48475181Y52217930D01*
X48414859Y52058872D01*
X48394355Y51890004D01*
X48394355Y51889997D01*
X36289541Y51889997D01*
X36305140Y51931128D01*
X36325645Y52100000D01*
X36305140Y52268872D01*
X36244818Y52427930D01*
X36148183Y52567929D01*
X36094351Y52615620D01*
X36020856Y52680731D01*
X36020853Y52680733D01*
X36020852Y52680734D01*
X35870225Y52759790D01*
X35870222Y52759791D01*
X35705058Y52800500D01*
X35705056Y52800500D01*
X35534944Y52800500D01*
X35534941Y52800500D01*
X35369777Y52759791D01*
X35219146Y52680733D01*
X35219143Y52680731D01*
X35091816Y52567929D01*
X34995181Y52427930D01*
X34934859Y52268872D01*
X34914355Y52100004D01*
X34914355Y52099997D01*
X34934859Y51931129D01*
X34995181Y51772071D01*
X35084938Y51642037D01*
X35097710Y51593056D01*
X35084938Y51557963D01*
X34995181Y51427930D01*
X34934859Y51268872D01*
X34914355Y51100004D01*
X34914355Y51099997D01*
X34934859Y50931129D01*
X34995181Y50772071D01*
X35084938Y50642037D01*
X35097710Y50593056D01*
X35084938Y50557963D01*
X34995181Y50427930D01*
X34934859Y50268872D01*
X34914355Y50100004D01*
X34914355Y50099997D01*
X16500984Y50099997D01*
X16545663Y50200348D01*
X16545665Y50200353D01*
X16578537Y50355000D01*
X15961342Y50355000D01*
X15988895Y50451840D01*
X15978546Y50563521D01*
X15957892Y50605000D01*
X16578537Y50605000D01*
X16578537Y50605001D01*
X16545665Y50759648D01*
X16545664Y50759649D01*
X16468716Y50932478D01*
X16468712Y50932485D01*
X16357516Y51085532D01*
X16216920Y51212126D01*
X16053076Y51306721D01*
X15873155Y51365181D01*
X15732159Y51380000D01*
X15260000Y51380000D01*
X15260000Y50780000D01*
X15010000Y50780000D01*
X15010000Y51396648D01*
X15003153Y51411331D01*
X15016254Y51460226D01*
X15031816Y51476483D01*
X15052583Y51492417D01*
X15146433Y51614724D01*
X15205429Y51757154D01*
X15225552Y51910000D01*
X15205429Y52062846D01*
X15146433Y52205276D01*
X15052583Y52327583D01*
X14930276Y52421433D01*
X14930275Y52421434D01*
X14787845Y52480430D01*
X14700006Y52491994D01*
X14673373Y52495500D01*
X14596627Y52495500D01*
X14572769Y52492359D01*
X14482154Y52480430D01*
X14339724Y52421434D01*
X14217417Y52327583D01*
X14123566Y52205276D01*
X14064570Y52062846D01*
X14044448Y51910000D01*
X14064570Y51757155D01*
X14123566Y51614725D01*
X14143572Y51588653D01*
X14217417Y51492417D01*
X14275699Y51447696D01*
X14302895Y51405005D01*
X14296288Y51354819D01*
X14258967Y51320622D01*
X14253518Y51318611D01*
X14216922Y51306720D01*
X14053079Y51212126D01*
X13912483Y51085532D01*
X13801287Y50932486D01*
X13801281Y50932475D01*
X13724336Y50759653D01*
X13724334Y50759648D01*
X13691462Y50605001D01*
X12248537Y50605001D01*
X12215665Y50759648D01*
X12215664Y50759649D01*
X12138716Y50932478D01*
X12138712Y50932485D01*
X12027516Y51085532D01*
X11886920Y51212126D01*
X11723076Y51306721D01*
X11543155Y51365181D01*
X11402159Y51380000D01*
X11080000Y51380000D01*
X11080000Y50780000D01*
X10830000Y50780000D01*
X10830000Y51380000D01*
X10507841Y51380000D01*
X10366844Y51365181D01*
X10186923Y51306721D01*
X10023079Y51212126D01*
X10001460Y51192660D01*
X9954526Y51173699D01*
X9906385Y51189342D01*
X9879562Y51232270D01*
X9877977Y51249830D01*
X9938525Y53308477D01*
X9939405Y53316011D01*
X9939456Y53318872D01*
X9940420Y53372857D01*
X9941189Y53398997D01*
X9941186Y53399012D01*
X9941047Y53401222D01*
X9940979Y53404227D01*
X9943403Y53539997D01*
X63624355Y53539997D01*
X63644859Y53371129D01*
X63705181Y53212071D01*
X63801816Y53072072D01*
X63904470Y52981128D01*
X63929148Y52959266D01*
X64079775Y52880210D01*
X64244944Y52839500D01*
X64244948Y52839500D01*
X64415052Y52839500D01*
X64415056Y52839500D01*
X64580225Y52880210D01*
X64730852Y52959266D01*
X64858183Y53072071D01*
X64954818Y53212070D01*
X65015140Y53371128D01*
X65028108Y53477930D01*
X65035645Y53539997D01*
X65035645Y53540004D01*
X65015140Y53708872D01*
X64954818Y53867930D01*
X64858183Y54007929D01*
X64730856Y54120731D01*
X64730853Y54120733D01*
X64730852Y54120734D01*
X64580225Y54199790D01*
X64580222Y54199791D01*
X64579386Y54199997D01*
X66014355Y54199997D01*
X66034859Y54031129D01*
X66095181Y53872071D01*
X66185108Y53741791D01*
X66191817Y53732071D01*
X66194999Y53729252D01*
X66316876Y53621278D01*
X66319148Y53619266D01*
X66469775Y53540210D01*
X66634944Y53499500D01*
X66634948Y53499500D01*
X66805052Y53499500D01*
X66805056Y53499500D01*
X66970225Y53540210D01*
X67046539Y53580264D01*
X67096700Y53587040D01*
X67139483Y53559986D01*
X67154867Y53511762D01*
X67146457Y53480363D01*
X67145184Y53477939D01*
X67084859Y53318872D01*
X67064355Y53150004D01*
X67064355Y53149997D01*
X67084859Y52981129D01*
X67145181Y52822071D01*
X67241816Y52682072D01*
X67345179Y52590500D01*
X67369148Y52569266D01*
X67519775Y52490210D01*
X67684944Y52449500D01*
X67684948Y52449500D01*
X67855052Y52449500D01*
X67855056Y52449500D01*
X68020225Y52490210D01*
X68170852Y52569266D01*
X68298183Y52682071D01*
X68394818Y52822070D01*
X68455140Y52981128D01*
X68475645Y53150000D01*
X68468108Y53212070D01*
X68455140Y53318872D01*
X68394818Y53477930D01*
X68379929Y53499500D01*
X68298183Y53617929D01*
X68298180Y53617932D01*
X68296281Y53619615D01*
X68295637Y53620803D01*
X68295216Y53621278D01*
X68295326Y53621376D01*
X68272161Y53664118D01*
X68282289Y53713713D01*
X68296288Y53730393D01*
X68298183Y53732071D01*
X68394818Y53872070D01*
X68455140Y54031128D01*
X68475645Y54200000D01*
X68470727Y54240500D01*
X68455140Y54368872D01*
X68394818Y54527930D01*
X68298183Y54667929D01*
X68170856Y54780731D01*
X68170853Y54780733D01*
X68170852Y54780734D01*
X68020225Y54859790D01*
X68020222Y54859791D01*
X67855058Y54900500D01*
X67855056Y54900500D01*
X67684944Y54900500D01*
X67684941Y54900500D01*
X67519777Y54859791D01*
X67369146Y54780733D01*
X67369143Y54780731D01*
X67294071Y54714222D01*
X67246987Y54695639D01*
X67198973Y54711668D01*
X67195929Y54714222D01*
X67120856Y54780731D01*
X67120853Y54780733D01*
X67120852Y54780734D01*
X66970225Y54859790D01*
X66970222Y54859791D01*
X66805058Y54900500D01*
X66805056Y54900500D01*
X66634944Y54900500D01*
X66634941Y54900500D01*
X66469777Y54859791D01*
X66319146Y54780733D01*
X66319143Y54780731D01*
X66191816Y54667929D01*
X66095181Y54527930D01*
X66034859Y54368872D01*
X66014355Y54200004D01*
X66014355Y54199997D01*
X64579386Y54199997D01*
X64415058Y54240500D01*
X64415056Y54240500D01*
X64244944Y54240500D01*
X64244941Y54240500D01*
X64079777Y54199791D01*
X63929146Y54120733D01*
X63929143Y54120731D01*
X63801816Y54007929D01*
X63705181Y53867930D01*
X63644859Y53708872D01*
X63624355Y53540004D01*
X63624355Y53539997D01*
X9943403Y53539997D01*
X9949335Y53872174D01*
X9951402Y53883288D01*
X9950504Y53883436D01*
X9951622Y53890207D01*
X9951577Y53892316D01*
X9950569Y53939841D01*
X9950568Y53941171D01*
X9950949Y53962474D01*
X9950865Y53962972D01*
X9949852Y53973704D01*
X9949127Y54007929D01*
X9901766Y56243402D01*
X9903448Y56254264D01*
X9902363Y56254402D01*
X9903233Y56261204D01*
X9900353Y56311181D01*
X9900303Y56312447D01*
X9899843Y56334203D01*
X9899840Y56334214D01*
X9898399Y56345095D01*
X9875916Y56735337D01*
X9777798Y58438378D01*
X9792346Y58486858D01*
X9834655Y58514647D01*
X9884928Y58508739D01*
X9901191Y58497624D01*
X10023079Y58387875D01*
X10186923Y58293280D01*
X10366844Y58234820D01*
X10507841Y58220000D01*
X10830000Y58220000D01*
X10830000Y58820000D01*
X11080000Y58820000D01*
X11080000Y58220000D01*
X11402159Y58220000D01*
X11543155Y58234820D01*
X11723076Y58293280D01*
X11886920Y58387875D01*
X12027516Y58514469D01*
X12138712Y58667515D01*
X12138718Y58667526D01*
X12215663Y58840348D01*
X12215665Y58840353D01*
X12248537Y58995000D01*
X11631342Y58995000D01*
X11658895Y59091840D01*
X11648546Y59203521D01*
X11627892Y59245000D01*
X12248537Y59245000D01*
X12248537Y59245001D01*
X13691462Y59245001D01*
X13691463Y59245000D01*
X14308658Y59245000D01*
X14281105Y59148160D01*
X14291454Y59036479D01*
X14312108Y58995000D01*
X13691463Y58995000D01*
X13724334Y58840353D01*
X13724335Y58840352D01*
X13801283Y58667523D01*
X13801287Y58667516D01*
X13912483Y58514469D01*
X14053079Y58387875D01*
X14216924Y58293280D01*
X14253516Y58281390D01*
X14293405Y58250226D01*
X14303929Y58200713D01*
X14280165Y58156019D01*
X14275698Y58152305D01*
X14217421Y58107587D01*
X14217418Y58107584D01*
X14123566Y57985276D01*
X14064570Y57842846D01*
X14044448Y57690000D01*
X14064570Y57537155D01*
X14123566Y57394725D01*
X14123567Y57394724D01*
X14217417Y57272417D01*
X14339724Y57178567D01*
X14482154Y57119571D01*
X14596627Y57104500D01*
X14596629Y57104500D01*
X14673371Y57104500D01*
X14673373Y57104500D01*
X14787846Y57119571D01*
X14930276Y57178567D01*
X15052583Y57272417D01*
X15146433Y57394724D01*
X15205429Y57537154D01*
X15225552Y57690000D01*
X15205429Y57842846D01*
X15146433Y57985276D01*
X15052583Y58107583D01*
X15031820Y58123515D01*
X15004625Y58166203D01*
X15010000Y58207031D01*
X15010000Y58820000D01*
X15260000Y58820000D01*
X15260000Y58220000D01*
X15732159Y58220000D01*
X15873155Y58234820D01*
X15996816Y58275000D01*
X94170000Y58275000D01*
X95275779Y58275000D01*
X95264843Y58150000D01*
X95275779Y58025000D01*
X94170001Y58025000D01*
X94170001Y57028004D01*
X94172895Y56973493D01*
X94218956Y56735337D01*
X94304601Y56508391D01*
X94304603Y56508388D01*
X94427371Y56299182D01*
X94583729Y56113731D01*
X94583730Y56113730D01*
X94769181Y55957372D01*
X94978387Y55834604D01*
X94978390Y55834602D01*
X95205336Y55748957D01*
X95443495Y55702896D01*
X95443488Y55702896D01*
X95498003Y55700001D01*
X96494999Y55700001D01*
X96495000Y55700002D01*
X96494999Y56805780D01*
X96561055Y56800000D01*
X96678945Y56800000D01*
X96745000Y56805780D01*
X96745000Y55700001D01*
X97741996Y55700001D01*
X97796507Y55702896D01*
X98034663Y55748957D01*
X98261609Y55834602D01*
X98261612Y55834604D01*
X98470818Y55957372D01*
X98656269Y56113730D01*
X98656270Y56113731D01*
X98812628Y56299182D01*
X98935396Y56508388D01*
X98935398Y56508391D01*
X99021043Y56735337D01*
X99067104Y56973493D01*
X99069999Y57028004D01*
X99070000Y58025000D01*
X97964221Y58025000D01*
X97975157Y58150000D01*
X97964221Y58275000D01*
X99069999Y58275000D01*
X99069999Y59271997D01*
X99067104Y59326508D01*
X99021043Y59564664D01*
X98935398Y59791610D01*
X98935396Y59791613D01*
X98812628Y60000819D01*
X98656270Y60186270D01*
X98656269Y60186271D01*
X98470818Y60342629D01*
X98261612Y60465397D01*
X98261609Y60465399D01*
X98034663Y60551044D01*
X97796504Y60597105D01*
X97796511Y60597105D01*
X97741997Y60600000D01*
X96745000Y60600000D01*
X96745000Y59494221D01*
X96678945Y59500000D01*
X96561055Y59500000D01*
X96495000Y59494221D01*
X96495000Y60600000D01*
X95498002Y60600000D01*
X95443492Y60597105D01*
X95205336Y60551044D01*
X94978390Y60465399D01*
X94978387Y60465397D01*
X94769181Y60342629D01*
X94583730Y60186271D01*
X94583729Y60186270D01*
X94427371Y60000819D01*
X94304603Y59791613D01*
X94304601Y59791610D01*
X94218956Y59564664D01*
X94172895Y59326508D01*
X94170000Y59271997D01*
X94170000Y58275000D01*
X15996816Y58275000D01*
X16053076Y58293280D01*
X16216920Y58387875D01*
X16357516Y58514469D01*
X16468712Y58667515D01*
X16468718Y58667526D01*
X16545663Y58840348D01*
X16545665Y58840353D01*
X16578537Y58995000D01*
X15961342Y58995000D01*
X15988371Y59089997D01*
X64214355Y59089997D01*
X64234859Y58921129D01*
X64295181Y58762071D01*
X64391816Y58622072D01*
X64439209Y58580085D01*
X64519148Y58509266D01*
X64669775Y58430210D01*
X64834944Y58389500D01*
X64834948Y58389500D01*
X65005052Y58389500D01*
X65005056Y58389500D01*
X65170225Y58430210D01*
X65320852Y58509266D01*
X65448183Y58622071D01*
X65544818Y58762070D01*
X65605140Y58921128D01*
X65617276Y59021078D01*
X65625645Y59089997D01*
X65625645Y59090004D01*
X65605140Y59258872D01*
X65544818Y59417930D01*
X65448183Y59557929D01*
X65320856Y59670731D01*
X65320853Y59670733D01*
X65320852Y59670734D01*
X65170225Y59749790D01*
X65170222Y59749791D01*
X65005058Y59790500D01*
X65005056Y59790500D01*
X64834944Y59790500D01*
X64834941Y59790500D01*
X64669777Y59749791D01*
X64519146Y59670733D01*
X64519143Y59670731D01*
X64391816Y59557929D01*
X64295181Y59417930D01*
X64234859Y59258872D01*
X64214355Y59090004D01*
X64214355Y59089997D01*
X15988371Y59089997D01*
X15988895Y59091840D01*
X15978546Y59203521D01*
X15957892Y59245000D01*
X16578537Y59245000D01*
X16578537Y59245001D01*
X16545665Y59399648D01*
X16545664Y59399649D01*
X16468716Y59572478D01*
X16468712Y59572485D01*
X16357516Y59725532D01*
X16216920Y59852126D01*
X16053076Y59946721D01*
X15873155Y60005181D01*
X15732159Y60020000D01*
X15260000Y60020000D01*
X15260000Y59420000D01*
X15010000Y59420000D01*
X15010000Y60020000D01*
X14537841Y60020000D01*
X14396844Y60005181D01*
X14216923Y59946721D01*
X14053079Y59852126D01*
X13912483Y59725532D01*
X13801287Y59572486D01*
X13801281Y59572475D01*
X13724336Y59399653D01*
X13724334Y59399648D01*
X13691462Y59245001D01*
X12248537Y59245001D01*
X12215665Y59399648D01*
X12215664Y59399649D01*
X12138716Y59572478D01*
X12138712Y59572485D01*
X12027516Y59725532D01*
X11886920Y59852126D01*
X11723076Y59946721D01*
X11543155Y60005181D01*
X11402159Y60020000D01*
X11080000Y60020000D01*
X11080000Y59420000D01*
X10830000Y59420000D01*
X10830000Y60020000D01*
X10507841Y60020000D01*
X10366844Y60005181D01*
X10186923Y59946721D01*
X10023079Y59852126D01*
X9882485Y59725534D01*
X9824531Y59645768D01*
X9782565Y59617463D01*
X9732224Y59622755D01*
X9697061Y59659167D01*
X9690866Y59683807D01*
X9634300Y60449642D01*
X9634409Y60459347D01*
X9629525Y60514289D01*
X9629515Y60514416D01*
X9627633Y60539904D01*
X9627629Y60539918D01*
X9627052Y60543360D01*
X9626688Y60546191D01*
X9603671Y60805137D01*
X101319500Y60805137D01*
X101322414Y60780014D01*
X101322415Y60780008D01*
X101358024Y60699361D01*
X101367794Y60677235D01*
X101447235Y60597794D01*
X101550009Y60552415D01*
X101575135Y60549500D01*
X103664864Y60549501D01*
X103689991Y60552415D01*
X103792765Y60597794D01*
X103872206Y60677235D01*
X103917585Y60780009D01*
X103920500Y60805135D01*
X103920499Y61794864D01*
X103917585Y61819991D01*
X103872206Y61922765D01*
X103792765Y62002206D01*
X103689991Y62047585D01*
X103689990Y62047586D01*
X103689988Y62047586D01*
X103668659Y62050060D01*
X103664865Y62050500D01*
X103664864Y62050500D01*
X101575136Y62050500D01*
X101550013Y62047586D01*
X101550007Y62047585D01*
X101447234Y62002206D01*
X101367794Y61922766D01*
X101322414Y61819989D01*
X101319500Y61794865D01*
X101319500Y60805137D01*
X9603671Y60805137D01*
X9554873Y61354127D01*
X9554758Y61365756D01*
X9554981Y61368998D01*
X9554983Y61369005D01*
X9549014Y61420199D01*
X9548916Y61421144D01*
X9546855Y61444341D01*
X9546853Y61444346D01*
X9546240Y61447700D01*
X9546324Y61447716D01*
X9545057Y61454137D01*
X9533166Y61556129D01*
X9513477Y61724997D01*
X51414355Y61724997D01*
X51434859Y61556129D01*
X51495181Y61397071D01*
X51516797Y61365756D01*
X51591817Y61257071D01*
X51719148Y61144266D01*
X51869775Y61065210D01*
X52034944Y61024500D01*
X52034948Y61024500D01*
X52205052Y61024500D01*
X52205056Y61024500D01*
X52370225Y61065210D01*
X52520852Y61144266D01*
X52648183Y61257071D01*
X52744818Y61397070D01*
X52805140Y61556128D01*
X52825645Y61725000D01*
X52823798Y61740210D01*
X52805140Y61893872D01*
X52744818Y62052930D01*
X52648183Y62192929D01*
X52520856Y62305731D01*
X52520853Y62305733D01*
X52520852Y62305734D01*
X52370225Y62384790D01*
X52370222Y62384791D01*
X52308528Y62399997D01*
X54839355Y62399997D01*
X54859859Y62231129D01*
X54920181Y62072071D01*
X55016816Y61932072D01*
X55143331Y61819989D01*
X55144148Y61819266D01*
X55294775Y61740210D01*
X55459944Y61699500D01*
X55459948Y61699500D01*
X55630052Y61699500D01*
X55630056Y61699500D01*
X55795225Y61740210D01*
X55945852Y61819266D01*
X56073183Y61932071D01*
X56169818Y62072070D01*
X56230140Y62231128D01*
X56239199Y62305734D01*
X56250645Y62399997D01*
X56250645Y62400004D01*
X56230140Y62568872D01*
X56169314Y62729259D01*
X56168634Y62779874D01*
X56200648Y62819083D01*
X56238505Y62829500D01*
X56355052Y62829500D01*
X56355056Y62829500D01*
X56520225Y62870210D01*
X56670852Y62949266D01*
X56798183Y63062071D01*
X56894818Y63202070D01*
X56955140Y63361128D01*
X56960266Y63403347D01*
X56969881Y63482525D01*
X57964355Y63482525D01*
X57984859Y63313657D01*
X58045181Y63154599D01*
X58110624Y63059790D01*
X58141817Y63014599D01*
X58198998Y62963941D01*
X58223121Y62919441D01*
X58212997Y62869845D01*
X58210828Y62866515D01*
X58149681Y62777930D01*
X58089359Y62618872D01*
X58068855Y62450004D01*
X58068855Y62449997D01*
X58089359Y62281129D01*
X58149681Y62122071D01*
X58246316Y61982072D01*
X58302755Y61932071D01*
X58373648Y61869266D01*
X58524275Y61790210D01*
X58689444Y61749500D01*
X58689448Y61749500D01*
X58859552Y61749500D01*
X58859556Y61749500D01*
X59024725Y61790210D01*
X59043372Y61799997D01*
X59989355Y61799997D01*
X60009859Y61631129D01*
X60070181Y61472071D01*
X60166816Y61332072D01*
X60251473Y61257072D01*
X60294148Y61219266D01*
X60444775Y61140210D01*
X60609944Y61099500D01*
X60609948Y61099500D01*
X60780052Y61099500D01*
X60780056Y61099500D01*
X60945225Y61140210D01*
X61095852Y61219266D01*
X61223183Y61332071D01*
X61319818Y61472070D01*
X61380140Y61631128D01*
X61394513Y61749501D01*
X61400645Y61799997D01*
X61400645Y61800004D01*
X61380140Y61968872D01*
X61319818Y62127930D01*
X61223183Y62267929D01*
X61095856Y62380731D01*
X61095853Y62380733D01*
X61095852Y62380734D01*
X60945225Y62459790D01*
X60945222Y62459791D01*
X60780058Y62500500D01*
X60780056Y62500500D01*
X60609944Y62500500D01*
X60609941Y62500500D01*
X60444777Y62459791D01*
X60294146Y62380733D01*
X60294143Y62380731D01*
X60166816Y62267929D01*
X60070181Y62127930D01*
X60009859Y61968872D01*
X59989355Y61800004D01*
X59989355Y61799997D01*
X59043372Y61799997D01*
X59175352Y61869266D01*
X59302683Y61982071D01*
X59399318Y62122070D01*
X59459640Y62281128D01*
X59471734Y62380731D01*
X59480145Y62449997D01*
X59480145Y62450004D01*
X59459640Y62618872D01*
X59399318Y62777930D01*
X59302683Y62917929D01*
X59268578Y62948143D01*
X59245500Y62968589D01*
X59221378Y63013088D01*
X59231502Y63062684D01*
X59233652Y63065986D01*
X59294818Y63154598D01*
X59355140Y63313656D01*
X59375645Y63482528D01*
X59369881Y63529997D01*
X59355140Y63651400D01*
X59294818Y63810458D01*
X59198183Y63950457D01*
X59070856Y64063259D01*
X59070853Y64063261D01*
X59070852Y64063262D01*
X58920225Y64142318D01*
X58920222Y64142319D01*
X58755058Y64183028D01*
X58755056Y64183028D01*
X58584944Y64183028D01*
X58584941Y64183028D01*
X58419777Y64142319D01*
X58269146Y64063261D01*
X58269143Y64063259D01*
X58141816Y63950457D01*
X58045181Y63810458D01*
X57984859Y63651400D01*
X57964355Y63482532D01*
X57964355Y63482525D01*
X56969881Y63482525D01*
X56975645Y63529997D01*
X56975645Y63530004D01*
X56955140Y63698872D01*
X56894818Y63857930D01*
X56798183Y63997929D01*
X56670856Y64110731D01*
X56670853Y64110733D01*
X56670852Y64110734D01*
X56520225Y64189790D01*
X56520222Y64189791D01*
X56355058Y64230500D01*
X56355056Y64230500D01*
X56184944Y64230500D01*
X56184941Y64230500D01*
X56019777Y64189791D01*
X55869146Y64110733D01*
X55869143Y64110731D01*
X55741816Y63997929D01*
X55645181Y63857930D01*
X55584859Y63698872D01*
X55564355Y63530004D01*
X55564355Y63529997D01*
X55584859Y63361129D01*
X55645686Y63200741D01*
X55646366Y63150126D01*
X55614352Y63110917D01*
X55576495Y63100500D01*
X55459941Y63100500D01*
X55294777Y63059791D01*
X55144146Y62980733D01*
X55144143Y62980731D01*
X55016816Y62867929D01*
X54920181Y62727930D01*
X54859859Y62568872D01*
X54839355Y62400004D01*
X54839355Y62399997D01*
X52308528Y62399997D01*
X52205058Y62425500D01*
X52205056Y62425500D01*
X52034944Y62425500D01*
X52034941Y62425500D01*
X51869777Y62384791D01*
X51719146Y62305733D01*
X51719143Y62305731D01*
X51591816Y62192929D01*
X51495181Y62052930D01*
X51434859Y61893872D01*
X51414355Y61725004D01*
X51414355Y61724997D01*
X9513477Y61724997D01*
X9295721Y63592675D01*
X9296289Y63603911D01*
X9295360Y63603939D01*
X9295565Y63610791D01*
X9295567Y63610796D01*
X9287907Y63659915D01*
X9287728Y63661226D01*
X9285254Y63682457D01*
X9285129Y63682858D01*
X9282687Y63693391D01*
X8836338Y66555844D01*
X8836428Y66567917D01*
X8835775Y66567906D01*
X8835667Y66574764D01*
X8835668Y66574769D01*
X8826023Y66622253D01*
X8825724Y66623917D01*
X8825086Y66628006D01*
X8822622Y66643810D01*
X8821180Y66647894D01*
X8819806Y66652858D01*
X8536012Y68049997D01*
X53914355Y68049997D01*
X53934859Y67881129D01*
X53995181Y67722071D01*
X53995182Y67722070D01*
X54091817Y67582071D01*
X54219148Y67469266D01*
X54369775Y67390210D01*
X54534944Y67349500D01*
X54534948Y67349500D01*
X54705052Y67349500D01*
X54705056Y67349500D01*
X54870225Y67390210D01*
X55020852Y67469266D01*
X55148183Y67582071D01*
X55244818Y67722070D01*
X55305140Y67881128D01*
X55321913Y68019266D01*
X55325645Y68049997D01*
X55325645Y68050004D01*
X55305140Y68218872D01*
X55244818Y68377930D01*
X55148183Y68517929D01*
X55055547Y68599997D01*
X57414355Y68599997D01*
X57434859Y68431129D01*
X57495181Y68272071D01*
X57591816Y68132072D01*
X57684459Y68049997D01*
X57719148Y68019266D01*
X57869775Y67940210D01*
X58034944Y67899500D01*
X58034948Y67899500D01*
X58205052Y67899500D01*
X58205056Y67899500D01*
X58370225Y67940210D01*
X58520852Y68019266D01*
X58648183Y68132071D01*
X58744818Y68272070D01*
X58805140Y68431128D01*
X58825645Y68600000D01*
X58821913Y68630733D01*
X58805140Y68768872D01*
X58744818Y68927930D01*
X58648183Y69067929D01*
X58520856Y69180731D01*
X58520853Y69180733D01*
X58520852Y69180734D01*
X58370225Y69259790D01*
X58370222Y69259791D01*
X58205058Y69300500D01*
X58205056Y69300500D01*
X58034944Y69300500D01*
X58034941Y69300500D01*
X57869777Y69259791D01*
X57719146Y69180733D01*
X57719143Y69180731D01*
X57591816Y69067929D01*
X57495181Y68927930D01*
X57434859Y68768872D01*
X57414355Y68600004D01*
X57414355Y68599997D01*
X55055547Y68599997D01*
X55020856Y68630731D01*
X55020853Y68630733D01*
X55020852Y68630734D01*
X54870225Y68709790D01*
X54870222Y68709791D01*
X54705058Y68750500D01*
X54705056Y68750500D01*
X54534944Y68750500D01*
X54534941Y68750500D01*
X54369777Y68709791D01*
X54219146Y68630733D01*
X54219143Y68630731D01*
X54091816Y68517929D01*
X53995181Y68377930D01*
X53934859Y68218872D01*
X53914355Y68050004D01*
X53914355Y68049997D01*
X8536012Y68049997D01*
X8536011Y68050000D01*
X8186973Y69768343D01*
X8185558Y69779945D01*
X8185431Y69782923D01*
X8185432Y69782929D01*
X8173796Y69833276D01*
X8173589Y69834232D01*
X8168944Y69857104D01*
X8168939Y69857116D01*
X8167956Y69860378D01*
X8168050Y69860407D01*
X8166103Y69866567D01*
X7636639Y72157699D01*
X7635881Y72169533D01*
X7635161Y72169470D01*
X7634570Y72176299D01*
X7634571Y72176303D01*
X7621507Y72223331D01*
X7621120Y72224856D01*
X7616514Y72244789D01*
X7614901Y72248481D01*
X7613162Y72253374D01*
X7100210Y74100000D01*
X24354520Y74100000D01*
X24374409Y73847282D01*
X24433585Y73600794D01*
X24530598Y73366585D01*
X24530602Y73366578D01*
X24663047Y73150448D01*
X24663049Y73150445D01*
X24726337Y73076344D01*
X24827680Y72957686D01*
X24827685Y72957681D01*
X24876777Y72915753D01*
X25020445Y72793049D01*
X25236587Y72660597D01*
X25470789Y72563587D01*
X25717283Y72504409D01*
X25906722Y72489500D01*
X26033278Y72489500D01*
X26222717Y72504409D01*
X26469211Y72563587D01*
X26703413Y72660597D01*
X26919555Y72793049D01*
X27112317Y72957683D01*
X27276951Y73150445D01*
X27409403Y73366587D01*
X27506413Y73600789D01*
X27565591Y73847283D01*
X27569740Y73900000D01*
X85904520Y73900000D01*
X85924409Y73647282D01*
X85983585Y73400794D01*
X86080598Y73166585D01*
X86080602Y73166578D01*
X86208615Y72957681D01*
X86213049Y72950445D01*
X86314787Y72831325D01*
X86347477Y72793049D01*
X86377683Y72757683D01*
X86570445Y72593049D01*
X86786587Y72460597D01*
X87020789Y72363587D01*
X87267283Y72304409D01*
X87456722Y72289500D01*
X87583278Y72289500D01*
X87772717Y72304409D01*
X88019211Y72363587D01*
X88253413Y72460597D01*
X88469555Y72593049D01*
X88662317Y72757683D01*
X88826951Y72950445D01*
X88959403Y73166587D01*
X89056413Y73400789D01*
X89115591Y73647283D01*
X89135480Y73900000D01*
X89115591Y74152717D01*
X89056413Y74399211D01*
X88959403Y74633413D01*
X88826951Y74849555D01*
X88662317Y75042317D01*
X88662314Y75042320D01*
X88487430Y75191684D01*
X88469555Y75206951D01*
X88469552Y75206953D01*
X88253422Y75339398D01*
X88253415Y75339402D01*
X88085333Y75409024D01*
X88019211Y75436413D01*
X88019210Y75436414D01*
X88019206Y75436415D01*
X87772718Y75495591D01*
X87583278Y75510500D01*
X87456722Y75510500D01*
X87267281Y75495591D01*
X87020793Y75436415D01*
X86786584Y75339402D01*
X86786577Y75339398D01*
X86570447Y75206953D01*
X86570446Y75206952D01*
X86377685Y75042320D01*
X86377680Y75042315D01*
X86213048Y74849554D01*
X86213047Y74849553D01*
X86080602Y74633423D01*
X86080598Y74633416D01*
X85983585Y74399207D01*
X85924409Y74152719D01*
X85904520Y73900000D01*
X27569740Y73900000D01*
X27585480Y74100000D01*
X27565591Y74352717D01*
X27506413Y74599211D01*
X27409403Y74833413D01*
X27276951Y75049555D01*
X27112317Y75242317D01*
X27112314Y75242320D01*
X27038675Y75305213D01*
X26919555Y75406951D01*
X26916172Y75409024D01*
X26703422Y75539398D01*
X26703415Y75539402D01*
X26701464Y75540210D01*
X26469211Y75636413D01*
X26469210Y75636414D01*
X26469206Y75636415D01*
X26222718Y75695591D01*
X26033278Y75710500D01*
X25906722Y75710500D01*
X25717281Y75695591D01*
X25470793Y75636415D01*
X25236584Y75539402D01*
X25236577Y75539398D01*
X25020447Y75406953D01*
X25020446Y75406952D01*
X24827685Y75242320D01*
X24827680Y75242315D01*
X24663048Y75049554D01*
X24663047Y75049553D01*
X24530602Y74833423D01*
X24530598Y74833416D01*
X24433585Y74599207D01*
X24374409Y74352719D01*
X24354520Y74100000D01*
X7100210Y74100000D01*
X6536384Y76129776D01*
X6534220Y76140696D01*
X6533490Y76146731D01*
X6530859Y76155080D01*
X51675000Y76155080D01*
X51690123Y76020857D01*
X51690126Y76020846D01*
X51749663Y75850698D01*
X51845574Y75698056D01*
X51973055Y75570575D01*
X52125697Y75474664D01*
X52295848Y75415126D01*
X52295853Y75415125D01*
X52350000Y75409024D01*
X52350000Y76232850D01*
X52377455Y76214505D01*
X52450376Y76200000D01*
X52499624Y76200000D01*
X52572545Y76214505D01*
X52600000Y76232850D01*
X52600000Y75409024D01*
X52654146Y75415125D01*
X52654151Y75415126D01*
X52824302Y75474664D01*
X52976944Y75570575D01*
X53104423Y75698053D01*
X53104772Y75698607D01*
X53105020Y75698801D01*
X53107015Y75701301D01*
X53107618Y75700820D01*
X53144736Y75729674D01*
X53195319Y75727785D01*
X53216503Y75714631D01*
X53304790Y75636415D01*
X53324148Y75619266D01*
X53474775Y75540210D01*
X53639944Y75499500D01*
X53639948Y75499500D01*
X53810052Y75499500D01*
X53810056Y75499500D01*
X53975225Y75540210D01*
X54125852Y75619266D01*
X54253183Y75732071D01*
X54289100Y75784107D01*
X54330368Y75813416D01*
X54380823Y75809343D01*
X54410899Y75784107D01*
X54446817Y75732071D01*
X54485216Y75698053D01*
X54554790Y75636415D01*
X54574148Y75619266D01*
X54724775Y75540210D01*
X54889944Y75499500D01*
X54889948Y75499500D01*
X55060052Y75499500D01*
X55060056Y75499500D01*
X55225225Y75540210D01*
X55375852Y75619266D01*
X55503183Y75732071D01*
X55539100Y75784107D01*
X55580366Y75813416D01*
X55630821Y75809344D01*
X55660899Y75784105D01*
X55696813Y75732075D01*
X55696815Y75732073D01*
X55804790Y75636415D01*
X55824148Y75619266D01*
X55974775Y75540210D01*
X56139944Y75499500D01*
X56139948Y75499500D01*
X56310052Y75499500D01*
X56310056Y75499500D01*
X56475225Y75540210D01*
X56625852Y75619266D01*
X56753183Y75732071D01*
X56789100Y75784107D01*
X56830368Y75813416D01*
X56880823Y75809343D01*
X56910899Y75784107D01*
X56946817Y75732071D01*
X56985216Y75698053D01*
X57054790Y75636415D01*
X57074148Y75619266D01*
X57224775Y75540210D01*
X57389944Y75499500D01*
X57389948Y75499500D01*
X57560052Y75499500D01*
X57560056Y75499500D01*
X57725225Y75540210D01*
X57875852Y75619266D01*
X58003183Y75732071D01*
X58039100Y75784107D01*
X58080368Y75813416D01*
X58130823Y75809343D01*
X58160899Y75784107D01*
X58196817Y75732071D01*
X58235216Y75698053D01*
X58304790Y75636415D01*
X58324148Y75619266D01*
X58474775Y75540210D01*
X58639944Y75499500D01*
X58639948Y75499500D01*
X58810052Y75499500D01*
X58810056Y75499500D01*
X58975225Y75540210D01*
X59125852Y75619266D01*
X59253183Y75732071D01*
X59289100Y75784107D01*
X59330368Y75813416D01*
X59380823Y75809343D01*
X59410899Y75784107D01*
X59446817Y75732071D01*
X59485216Y75698053D01*
X59554790Y75636415D01*
X59574148Y75619266D01*
X59724775Y75540210D01*
X59889944Y75499500D01*
X59889948Y75499500D01*
X60060052Y75499500D01*
X60060056Y75499500D01*
X60225225Y75540210D01*
X60375852Y75619266D01*
X60498345Y75727785D01*
X60501463Y75730547D01*
X60548547Y75749130D01*
X60596561Y75733101D01*
X60609774Y75719504D01*
X60667454Y75642454D01*
X60763472Y75570575D01*
X60782669Y75556204D01*
X60782670Y75556203D01*
X60893605Y75514828D01*
X60917517Y75505909D01*
X60977127Y75499500D01*
X61472872Y75499501D01*
X61532483Y75505909D01*
X61622272Y75539398D01*
X61667329Y75556203D01*
X61667329Y75556204D01*
X61667331Y75556204D01*
X61782546Y75642454D01*
X61868796Y75757669D01*
X61919091Y75892517D01*
X61925500Y75952127D01*
X61925499Y76947872D01*
X61919091Y77007483D01*
X61919090Y77007486D01*
X61868797Y77142330D01*
X61868796Y77142331D01*
X61863429Y77149500D01*
X61782546Y77257546D01*
X61667331Y77343796D01*
X61667330Y77343797D01*
X61667329Y77343798D01*
X61532487Y77394090D01*
X61532484Y77394091D01*
X61532483Y77394091D01*
X61472873Y77400500D01*
X60977127Y77400500D01*
X60917514Y77394091D01*
X60782670Y77343798D01*
X60782669Y77343797D01*
X60667454Y77257546D01*
X60609774Y77180496D01*
X60567408Y77152793D01*
X60517147Y77158803D01*
X60501463Y77169453D01*
X60375856Y77280731D01*
X60375853Y77280733D01*
X60375852Y77280734D01*
X60225225Y77359790D01*
X60225222Y77359791D01*
X60060058Y77400500D01*
X60060056Y77400500D01*
X59889944Y77400500D01*
X59889941Y77400500D01*
X59724777Y77359791D01*
X59574146Y77280733D01*
X59574143Y77280731D01*
X59446816Y77167929D01*
X59410901Y77115896D01*
X59369632Y77086585D01*
X59319177Y77090658D01*
X59289099Y77115896D01*
X59253183Y77167929D01*
X59125856Y77280731D01*
X59125853Y77280733D01*
X59125852Y77280734D01*
X58975225Y77359790D01*
X58975222Y77359791D01*
X58810058Y77400500D01*
X58810056Y77400500D01*
X58639944Y77400500D01*
X58639941Y77400500D01*
X58474777Y77359791D01*
X58324146Y77280733D01*
X58324143Y77280731D01*
X58196816Y77167929D01*
X58160901Y77115896D01*
X58119632Y77086585D01*
X58069177Y77090658D01*
X58039099Y77115896D01*
X58003183Y77167929D01*
X57875856Y77280731D01*
X57875853Y77280733D01*
X57875852Y77280734D01*
X57725225Y77359790D01*
X57725222Y77359791D01*
X57560058Y77400500D01*
X57560056Y77400500D01*
X57389944Y77400500D01*
X57389941Y77400500D01*
X57224777Y77359791D01*
X57074146Y77280733D01*
X57074143Y77280731D01*
X56946816Y77167929D01*
X56910901Y77115896D01*
X56869632Y77086585D01*
X56819177Y77090658D01*
X56789099Y77115896D01*
X56753183Y77167929D01*
X56625856Y77280731D01*
X56625853Y77280733D01*
X56625852Y77280734D01*
X56475225Y77359790D01*
X56475222Y77359791D01*
X56310058Y77400500D01*
X56310056Y77400500D01*
X56139944Y77400500D01*
X56139941Y77400500D01*
X55974777Y77359791D01*
X55824146Y77280733D01*
X55824143Y77280731D01*
X55696816Y77167929D01*
X55660901Y77115896D01*
X55619632Y77086585D01*
X55569177Y77090658D01*
X55539099Y77115896D01*
X55503183Y77167929D01*
X55375856Y77280731D01*
X55375853Y77280733D01*
X55375852Y77280734D01*
X55225225Y77359790D01*
X55225222Y77359791D01*
X55060058Y77400500D01*
X55060056Y77400500D01*
X54889944Y77400500D01*
X54889941Y77400500D01*
X54724777Y77359791D01*
X54574146Y77280733D01*
X54574143Y77280731D01*
X54446816Y77167929D01*
X54410901Y77115896D01*
X54369632Y77086585D01*
X54319177Y77090658D01*
X54289099Y77115896D01*
X54253183Y77167929D01*
X54125856Y77280731D01*
X54125853Y77280733D01*
X54125852Y77280734D01*
X53975225Y77359790D01*
X53975222Y77359791D01*
X53810058Y77400500D01*
X53810056Y77400500D01*
X53639944Y77400500D01*
X53639941Y77400500D01*
X53474777Y77359791D01*
X53324146Y77280733D01*
X53324143Y77280730D01*
X53216503Y77185370D01*
X53169418Y77166787D01*
X53121405Y77182816D01*
X53107112Y77198778D01*
X53107015Y77198699D01*
X53105647Y77200414D01*
X53104776Y77201387D01*
X53104424Y77201947D01*
X52976944Y77329426D01*
X52824302Y77425337D01*
X52654154Y77484874D01*
X52654143Y77484877D01*
X52600000Y77490978D01*
X52600000Y76667151D01*
X52572545Y76685495D01*
X52499624Y76700000D01*
X52450376Y76700000D01*
X52377455Y76685495D01*
X52350000Y76667151D01*
X52350000Y77490978D01*
X52295856Y77484877D01*
X52295845Y77484874D01*
X52125697Y77425337D01*
X51973055Y77329426D01*
X51845574Y77201945D01*
X51749663Y77049303D01*
X51690126Y76879155D01*
X51690123Y76879144D01*
X51675000Y76744921D01*
X51675000Y76575000D01*
X52257850Y76575000D01*
X52239505Y76547545D01*
X52220102Y76450000D01*
X52239505Y76352455D01*
X52257850Y76325000D01*
X51675000Y76325000D01*
X51675000Y76155080D01*
X6530859Y76155080D01*
X6518350Y76194781D01*
X6517989Y76195999D01*
X6516878Y76200000D01*
X6512085Y76217255D01*
X6512080Y76217264D01*
X6511465Y76218883D01*
X6508125Y76227232D01*
X6305448Y76870512D01*
X6302811Y76882020D01*
X6302469Y76884349D01*
X6302470Y76884355D01*
X6285626Y76933465D01*
X6285341Y76934331D01*
X6281075Y76947872D01*
X6278244Y76956859D01*
X6278241Y76956865D01*
X6276920Y76960011D01*
X6277035Y76960060D01*
X6274529Y76965821D01*
X5971278Y77849997D01*
X85134355Y77849997D01*
X85154859Y77681129D01*
X85215181Y77522071D01*
X85311816Y77382072D01*
X85426207Y77280730D01*
X85439148Y77269266D01*
X85589775Y77190210D01*
X85754944Y77149500D01*
X85754948Y77149500D01*
X85925052Y77149500D01*
X85925056Y77149500D01*
X86090225Y77190210D01*
X86240852Y77269266D01*
X86368183Y77382071D01*
X86464818Y77522070D01*
X86525140Y77681128D01*
X86545645Y77850000D01*
X86540441Y77892856D01*
X86525140Y78018872D01*
X86464818Y78177930D01*
X86368183Y78317929D01*
X86240856Y78430731D01*
X86240853Y78430733D01*
X86240852Y78430734D01*
X86090225Y78509790D01*
X86090222Y78509791D01*
X85925058Y78550500D01*
X85925056Y78550500D01*
X85754944Y78550500D01*
X85754941Y78550500D01*
X85589777Y78509791D01*
X85439146Y78430733D01*
X85439143Y78430731D01*
X85311816Y78317929D01*
X85215181Y78177930D01*
X85154859Y78018872D01*
X85134355Y77850004D01*
X85134355Y77849997D01*
X5971278Y77849997D01*
X5474578Y79298206D01*
X5472091Y79308121D01*
X5471197Y79310600D01*
X5453473Y79359743D01*
X5445213Y79383827D01*
X5445207Y79383837D01*
X5443647Y79387308D01*
X5442584Y79389936D01*
X5371758Y79586316D01*
X4872725Y80969997D01*
X28534355Y80969997D01*
X28554859Y80801129D01*
X28615181Y80642071D01*
X28664180Y80571085D01*
X28711817Y80502071D01*
X28839148Y80389266D01*
X28989775Y80310210D01*
X29154944Y80269500D01*
X29154948Y80269500D01*
X29325052Y80269500D01*
X29325056Y80269500D01*
X29490225Y80310210D01*
X29640852Y80389266D01*
X29768183Y80502071D01*
X29864818Y80642070D01*
X29925140Y80801128D01*
X29937085Y80899500D01*
X29945645Y80969997D01*
X29945645Y80970004D01*
X29925140Y81138872D01*
X29864818Y81297930D01*
X29768183Y81437929D01*
X29640856Y81550731D01*
X29640853Y81550733D01*
X29640852Y81550734D01*
X29490225Y81629790D01*
X29490222Y81629791D01*
X29325058Y81670500D01*
X29325056Y81670500D01*
X29154944Y81670500D01*
X29154941Y81670500D01*
X28989777Y81629791D01*
X28989775Y81629791D01*
X28989775Y81629790D01*
X28951669Y81609790D01*
X28839146Y81550733D01*
X28839143Y81550731D01*
X28711816Y81437929D01*
X28615181Y81297930D01*
X28554859Y81138872D01*
X28534355Y80970004D01*
X28534355Y80969997D01*
X4872725Y80969997D01*
X4616659Y81679997D01*
X82344355Y81679997D01*
X82364859Y81511129D01*
X82425181Y81352071D01*
X82521816Y81212072D01*
X82627012Y81118876D01*
X82649148Y81099266D01*
X82799775Y81020210D01*
X82964944Y80979500D01*
X82964948Y80979500D01*
X83135052Y80979500D01*
X83135056Y80979500D01*
X83300225Y81020210D01*
X83450852Y81099266D01*
X83578183Y81212071D01*
X83674818Y81352070D01*
X83735140Y81511128D01*
X83745931Y81599997D01*
X86764355Y81599997D01*
X86784859Y81431129D01*
X86845181Y81272071D01*
X86937123Y81138872D01*
X86941817Y81132071D01*
X87069148Y81019266D01*
X87219775Y80940210D01*
X87371991Y80902693D01*
X87414030Y80874501D01*
X87427740Y80839764D01*
X87434859Y80781128D01*
X87495181Y80622071D01*
X87591816Y80482072D01*
X87696572Y80389266D01*
X87719148Y80369266D01*
X87869775Y80290210D01*
X88021991Y80252693D01*
X88064030Y80224501D01*
X88077740Y80189764D01*
X88084859Y80131128D01*
X88145181Y79972071D01*
X88241816Y79832072D01*
X88363315Y79724433D01*
X88369148Y79719266D01*
X88519775Y79640210D01*
X88684944Y79599500D01*
X88684948Y79599500D01*
X88855052Y79599500D01*
X88855056Y79599500D01*
X89020225Y79640210D01*
X89170852Y79719266D01*
X89298183Y79832071D01*
X89394818Y79972070D01*
X89455140Y80131128D01*
X89471942Y80269501D01*
X89475645Y80299997D01*
X89475645Y80300004D01*
X89455140Y80468872D01*
X89394818Y80627930D01*
X89298183Y80767929D01*
X89170856Y80880731D01*
X89170853Y80880733D01*
X89170852Y80880734D01*
X89020225Y80959790D01*
X89020222Y80959791D01*
X88927056Y80982754D01*
X88868009Y80997308D01*
X88825969Y81025500D01*
X88812260Y81060233D01*
X88805140Y81118872D01*
X88805139Y81118874D01*
X88805139Y81118876D01*
X88744818Y81277930D01*
X88648183Y81417929D01*
X88520856Y81530731D01*
X88520853Y81530733D01*
X88520852Y81530734D01*
X88370225Y81609790D01*
X88370222Y81609791D01*
X88277056Y81632754D01*
X88218009Y81647308D01*
X88175969Y81675500D01*
X88162260Y81710233D01*
X88155140Y81768872D01*
X88155139Y81768874D01*
X88155139Y81768876D01*
X88094818Y81927930D01*
X87998183Y82067929D01*
X87870856Y82180731D01*
X87870853Y82180733D01*
X87870852Y82180734D01*
X87720225Y82259790D01*
X87720222Y82259791D01*
X87555058Y82300500D01*
X87555056Y82300500D01*
X87384944Y82300500D01*
X87384941Y82300500D01*
X87219777Y82259791D01*
X87069146Y82180733D01*
X87069143Y82180731D01*
X86941816Y82067929D01*
X86845181Y81927930D01*
X86784859Y81768872D01*
X86764355Y81600004D01*
X86764355Y81599997D01*
X83745931Y81599997D01*
X83747120Y81609791D01*
X83755645Y81679997D01*
X83755645Y81680004D01*
X83735140Y81848872D01*
X83674818Y82007930D01*
X83578183Y82147929D01*
X83450856Y82260731D01*
X83450853Y82260733D01*
X83450852Y82260734D01*
X83300225Y82339790D01*
X83300222Y82339791D01*
X83135058Y82380500D01*
X83135056Y82380500D01*
X82964944Y82380500D01*
X82964941Y82380500D01*
X82799777Y82339791D01*
X82649146Y82260733D01*
X82649143Y82260731D01*
X82521816Y82147929D01*
X82425181Y82007930D01*
X82364859Y81848872D01*
X82344355Y81680004D01*
X82344355Y81679997D01*
X4616659Y81679997D01*
X4593948Y81742968D01*
X4591823Y81750963D01*
X4572056Y81803671D01*
X4563230Y81828144D01*
X4562106Y81830540D01*
X4560959Y81833264D01*
X4413413Y82226721D01*
X4411923Y82232093D01*
X4410634Y82235442D01*
X4410635Y82235445D01*
X4390919Y82286707D01*
X4381590Y82311584D01*
X4381587Y82311588D01*
X4381112Y82312569D01*
X4379874Y82315421D01*
X4097347Y83049992D01*
X4096071Y83053972D01*
X4034336Y83292092D01*
X4033700Y83295038D01*
X4017271Y83389501D01*
X3998149Y83499449D01*
X3997790Y83502083D01*
X3997072Y83509266D01*
X3980100Y83678976D01*
X3979941Y83681364D01*
X3979781Y83685993D01*
X3972491Y83897419D01*
X3972590Y83899146D01*
X3971330Y83933126D01*
X3970309Y83960694D01*
X3969362Y83988183D01*
X3969361Y83988186D01*
X3969333Y83989014D01*
X3969201Y83990597D01*
X3950381Y84498777D01*
X3940631Y84957020D01*
X3940643Y84958994D01*
X3949857Y85226197D01*
X3950073Y85229096D01*
X3998373Y85650000D01*
X8254520Y85650000D01*
X8274409Y85397282D01*
X8333585Y85150794D01*
X8333586Y85150790D01*
X8333587Y85150789D01*
X8427451Y84924181D01*
X8430598Y84916585D01*
X8430602Y84916578D01*
X8532810Y84749790D01*
X8563049Y84700445D01*
X8655343Y84592382D01*
X8727680Y84507686D01*
X8727685Y84507681D01*
X8738113Y84498775D01*
X8920445Y84343049D01*
X8920447Y84343048D01*
X9072347Y84249963D01*
X9136587Y84210597D01*
X9370789Y84113587D01*
X9617283Y84054409D01*
X9806722Y84039500D01*
X9933278Y84039500D01*
X10122717Y84054409D01*
X10270952Y84089997D01*
X32374355Y84089997D01*
X32394859Y83921129D01*
X32455181Y83762071D01*
X32539544Y83639852D01*
X32551817Y83622071D01*
X32561395Y83613586D01*
X32645020Y83539500D01*
X32679148Y83509266D01*
X32829775Y83430210D01*
X32994944Y83389500D01*
X32994948Y83389500D01*
X33165052Y83389500D01*
X33165056Y83389500D01*
X33330225Y83430210D01*
X33480852Y83509266D01*
X33608183Y83622071D01*
X33704818Y83762070D01*
X33765140Y83921128D01*
X33779513Y84039500D01*
X33785645Y84089997D01*
X33785645Y84090004D01*
X33765140Y84258872D01*
X33704818Y84417930D01*
X33608183Y84557929D01*
X33480856Y84670731D01*
X33480853Y84670733D01*
X33480852Y84670734D01*
X33330225Y84749790D01*
X33330222Y84749791D01*
X33165058Y84790500D01*
X33165056Y84790500D01*
X32994944Y84790500D01*
X32994941Y84790500D01*
X32829777Y84749791D01*
X32829775Y84749791D01*
X32829775Y84749790D01*
X32786846Y84727259D01*
X32679146Y84670733D01*
X32679143Y84670731D01*
X32551816Y84557929D01*
X32455181Y84417930D01*
X32394859Y84258872D01*
X32374355Y84090004D01*
X32374355Y84089997D01*
X10270952Y84089997D01*
X10369211Y84113587D01*
X10603413Y84210597D01*
X10819555Y84343049D01*
X11012317Y84507683D01*
X11176951Y84700445D01*
X11309403Y84916587D01*
X11406413Y85150789D01*
X11465591Y85397283D01*
X11470433Y85458801D01*
X23582193Y85458801D01*
X23612856Y85291472D01*
X23682670Y85136356D01*
X23682673Y85136350D01*
X23761261Y85036040D01*
X24174738Y84622563D01*
X24275048Y84543975D01*
X24289828Y84537323D01*
X24430170Y84474159D01*
X24430172Y84474159D01*
X24430174Y84474158D01*
X24597499Y84443495D01*
X24767301Y84453767D01*
X24929711Y84504375D01*
X25075290Y84592381D01*
X25195577Y84712668D01*
X25283583Y84858247D01*
X25334191Y85020657D01*
X25344463Y85190459D01*
X25333066Y85252651D01*
X25341521Y85302557D01*
X25380078Y85335354D01*
X25419191Y85338776D01*
X25481383Y85327379D01*
X25651185Y85337651D01*
X25813595Y85388259D01*
X25915722Y85449997D01*
X28664355Y85449997D01*
X28684859Y85281129D01*
X28745181Y85122071D01*
X28815179Y85020663D01*
X28841817Y84982071D01*
X28864494Y84961981D01*
X28968784Y84869588D01*
X28969148Y84869266D01*
X29119775Y84790210D01*
X29284944Y84749500D01*
X29284948Y84749500D01*
X29455052Y84749500D01*
X29455056Y84749500D01*
X29620225Y84790210D01*
X29770852Y84869266D01*
X29898183Y84982071D01*
X29994818Y85122070D01*
X30041279Y85244580D01*
X30055139Y85281125D01*
X30055139Y85281126D01*
X30055140Y85281128D01*
X30062259Y85339766D01*
X30085178Y85384895D01*
X30118006Y85402692D01*
X30270225Y85440210D01*
X30420852Y85519266D01*
X30511982Y85600000D01*
X35354520Y85600000D01*
X35374409Y85347282D01*
X35433585Y85100794D01*
X35433586Y85100790D01*
X35433587Y85100789D01*
X35529486Y84869268D01*
X35530598Y84866585D01*
X35530602Y84866578D01*
X35632409Y84700445D01*
X35663049Y84650445D01*
X35731218Y84570629D01*
X35827680Y84457686D01*
X35827685Y84457681D01*
X35844294Y84443496D01*
X36020445Y84293049D01*
X36236587Y84160597D01*
X36470789Y84063587D01*
X36717283Y84004409D01*
X36906722Y83989500D01*
X37033278Y83989500D01*
X37222717Y84004409D01*
X37469211Y84063587D01*
X37703413Y84160597D01*
X37919555Y84293049D01*
X38112317Y84457683D01*
X38276951Y84650445D01*
X38409403Y84866587D01*
X38423243Y84900000D01*
X74404520Y84900000D01*
X74424409Y84647282D01*
X74483585Y84400794D01*
X74483586Y84400790D01*
X74483587Y84400789D01*
X74562367Y84210597D01*
X74580598Y84166585D01*
X74580602Y84166578D01*
X74706768Y83960694D01*
X74713049Y83950445D01*
X74877683Y83757683D01*
X75070445Y83593049D01*
X75286587Y83460597D01*
X75520789Y83363587D01*
X75767283Y83304409D01*
X75956722Y83289500D01*
X76083278Y83289500D01*
X76272717Y83304409D01*
X76519211Y83363587D01*
X76753413Y83460597D01*
X76969555Y83593049D01*
X77162317Y83757683D01*
X77326951Y83950445D01*
X77459403Y84166587D01*
X77556413Y84400789D01*
X77615591Y84647283D01*
X77635480Y84900000D01*
X77615591Y85152717D01*
X77556413Y85399211D01*
X77459403Y85633413D01*
X77449724Y85649207D01*
X77392781Y85742130D01*
X77326951Y85849555D01*
X77192912Y86006495D01*
X77162319Y86042315D01*
X77162314Y86042320D01*
X77042225Y86144885D01*
X76969555Y86206951D01*
X76949524Y86219226D01*
X76753422Y86339398D01*
X76753415Y86339402D01*
X76750105Y86340773D01*
X76519211Y86436413D01*
X76519210Y86436414D01*
X76519206Y86436415D01*
X76272718Y86495591D01*
X76083278Y86510500D01*
X75956722Y86510500D01*
X75767281Y86495591D01*
X75520793Y86436415D01*
X75286584Y86339402D01*
X75286577Y86339398D01*
X75070447Y86206953D01*
X75070446Y86206952D01*
X74877685Y86042320D01*
X74877680Y86042315D01*
X74713048Y85849554D01*
X74713047Y85849553D01*
X74580602Y85633423D01*
X74580598Y85633416D01*
X74483585Y85399207D01*
X74424409Y85152719D01*
X74404520Y84900000D01*
X38423243Y84900000D01*
X38506413Y85100789D01*
X38565591Y85347283D01*
X38585480Y85600000D01*
X38565591Y85852717D01*
X38506413Y86099211D01*
X38409403Y86333413D01*
X38405735Y86339398D01*
X38351483Y86427930D01*
X38284258Y86537631D01*
X86772900Y86537631D01*
X86774017Y86519162D01*
X86783171Y86367835D01*
X86783173Y86367823D01*
X86833778Y86205424D01*
X86833780Y86205418D01*
X86913019Y86074343D01*
X86921786Y86059840D01*
X87042073Y85939553D01*
X87134939Y85883413D01*
X87185716Y85852717D01*
X87187652Y85851547D01*
X87281231Y85822388D01*
X87350055Y85800941D01*
X87350056Y85800941D01*
X87350062Y85800939D01*
X87519864Y85790667D01*
X87582054Y85802064D01*
X87631960Y85793609D01*
X87664758Y85755052D01*
X87668180Y85715938D01*
X87656784Y85653750D01*
X87656784Y85653748D01*
X87656784Y85653747D01*
X87658014Y85633416D01*
X87667055Y85483951D01*
X87667057Y85483939D01*
X87717662Y85321540D01*
X87717664Y85321534D01*
X87796901Y85190461D01*
X87805670Y85175956D01*
X87925957Y85055669D01*
X88071536Y84967663D01*
X88152199Y84942528D01*
X88233939Y84917057D01*
X88233940Y84917057D01*
X88233946Y84917055D01*
X88301558Y84912965D01*
X88347992Y84892812D01*
X88370609Y84847526D01*
X88370457Y84829442D01*
X88357005Y84727259D01*
X88377625Y84570629D01*
X88377625Y84570628D01*
X88438083Y84424672D01*
X88510117Y84330796D01*
X88590951Y84249962D01*
X89179865Y84838876D01*
X89186307Y84806490D01*
X89241562Y84723795D01*
X89324257Y84668540D01*
X89356641Y84662099D01*
X88767728Y84073186D01*
X88848567Y83992347D01*
X88942432Y83920319D01*
X88942434Y83920318D01*
X89088394Y83859859D01*
X89245025Y83839239D01*
X89401655Y83859859D01*
X89401656Y83859859D01*
X89547612Y83920317D01*
X89641488Y83992351D01*
X89899098Y84249962D01*
X89899098Y84249963D01*
X89486961Y84662099D01*
X89519347Y84668540D01*
X89602042Y84723795D01*
X89657297Y84806490D01*
X89663738Y84838876D01*
X90075875Y84426739D01*
X90333489Y84684353D01*
X90405519Y84778223D01*
X90465978Y84924181D01*
X90465978Y84924182D01*
X90486598Y85080812D01*
X90477489Y85150001D01*
X102204520Y85150001D01*
X102224409Y84897282D01*
X102283585Y84650794D01*
X102283586Y84650790D01*
X102283587Y84650789D01*
X102373526Y84433657D01*
X102380598Y84416585D01*
X102380602Y84416578D01*
X102506828Y84210597D01*
X102513049Y84200445D01*
X102587931Y84112769D01*
X102677680Y84007686D01*
X102677685Y84007681D01*
X102726777Y83965753D01*
X102870445Y83843049D01*
X103086587Y83710597D01*
X103320789Y83613587D01*
X103567283Y83554409D01*
X103756722Y83539500D01*
X103883278Y83539500D01*
X104072717Y83554409D01*
X104319211Y83613587D01*
X104553413Y83710597D01*
X104769555Y83843049D01*
X104962317Y84007683D01*
X105126951Y84200445D01*
X105259403Y84416587D01*
X105356413Y84650789D01*
X105415591Y84897283D01*
X105435480Y85150000D01*
X105415591Y85402717D01*
X105356413Y85649211D01*
X105259403Y85883413D01*
X105256743Y85887753D01*
X105169125Y86030733D01*
X105126951Y86099555D01*
X104962317Y86292317D01*
X104962314Y86292320D01*
X104855657Y86383413D01*
X104769555Y86456951D01*
X104769552Y86456953D01*
X104553422Y86589398D01*
X104553415Y86589402D01*
X104528908Y86599553D01*
X104319211Y86686413D01*
X104319210Y86686414D01*
X104319206Y86686415D01*
X104072718Y86745591D01*
X103883278Y86760500D01*
X103756722Y86760500D01*
X103567281Y86745591D01*
X103320793Y86686415D01*
X103086584Y86589402D01*
X103086577Y86589398D01*
X102870447Y86456953D01*
X102870446Y86456952D01*
X102677685Y86292320D01*
X102677680Y86292315D01*
X102513048Y86099554D01*
X102513047Y86099553D01*
X102380602Y85883423D01*
X102380598Y85883416D01*
X102283585Y85649207D01*
X102224409Y85402719D01*
X102204520Y85150001D01*
X90477489Y85150001D01*
X90465978Y85237442D01*
X90465978Y85237443D01*
X90405520Y85383399D01*
X90333486Y85477275D01*
X90252652Y85558109D01*
X89663738Y84969196D01*
X89657297Y85001580D01*
X89602042Y85084275D01*
X89519347Y85139530D01*
X89486961Y85145972D01*
X90075875Y85734886D01*
X89995036Y85815724D01*
X89901171Y85887752D01*
X89901169Y85887753D01*
X89755209Y85948212D01*
X89598578Y85968832D01*
X89496395Y85955380D01*
X89446976Y85966336D01*
X89416162Y86006495D01*
X89412872Y86024279D01*
X89412482Y86030733D01*
X89408782Y86091891D01*
X89406394Y86099553D01*
X89373298Y86205765D01*
X89358174Y86254301D01*
X89349365Y86268872D01*
X89306690Y86339465D01*
X89270168Y86399880D01*
X89149881Y86520167D01*
X89101271Y86549553D01*
X89004303Y86608173D01*
X89004297Y86608175D01*
X88841898Y86658780D01*
X88841886Y86658782D01*
X88709734Y86666776D01*
X88672090Y86669053D01*
X88672089Y86669053D01*
X88672087Y86669053D01*
X88609899Y86657657D01*
X88559991Y86666113D01*
X88527195Y86704670D01*
X88523773Y86743782D01*
X88535170Y86805973D01*
X88524898Y86975775D01*
X88518953Y86994852D01*
X88488558Y87092397D01*
X88474290Y87138185D01*
X88456875Y87166992D01*
X88409360Y87245591D01*
X88386284Y87283764D01*
X88265997Y87404051D01*
X88256502Y87409791D01*
X88120419Y87492057D01*
X88120413Y87492059D01*
X87958014Y87542664D01*
X87958002Y87542666D01*
X87815305Y87551298D01*
X87788206Y87552937D01*
X87788205Y87552937D01*
X87788204Y87552937D01*
X87620877Y87522274D01*
X87465760Y87452460D01*
X87465752Y87452455D01*
X87365444Y87373869D01*
X86951968Y86960393D01*
X86873382Y86860085D01*
X86873377Y86860077D01*
X86803563Y86704961D01*
X86774303Y86545287D01*
X86772900Y86537631D01*
X38284258Y86537631D01*
X38276951Y86549555D01*
X38112317Y86742317D01*
X38112314Y86742320D01*
X37978155Y86856902D01*
X37919555Y86906951D01*
X37919552Y86906953D01*
X37703422Y87039398D01*
X37703415Y87039402D01*
X37656135Y87058986D01*
X37469211Y87136413D01*
X37469210Y87136414D01*
X37469206Y87136415D01*
X37222718Y87195591D01*
X37033278Y87210500D01*
X36906722Y87210500D01*
X36717281Y87195591D01*
X36470793Y87136415D01*
X36236584Y87039402D01*
X36236577Y87039398D01*
X36020447Y86906953D01*
X36020446Y86906952D01*
X35827685Y86742320D01*
X35827680Y86742315D01*
X35663048Y86549554D01*
X35663047Y86549553D01*
X35530602Y86333423D01*
X35530598Y86333416D01*
X35433585Y86099207D01*
X35374409Y85852719D01*
X35354520Y85600000D01*
X30511982Y85600000D01*
X30548183Y85632071D01*
X30644818Y85772070D01*
X30705140Y85931128D01*
X30712259Y85989766D01*
X30735178Y86034895D01*
X30768006Y86052692D01*
X30920225Y86090210D01*
X31070852Y86169266D01*
X31198183Y86282071D01*
X31294818Y86422070D01*
X31355140Y86581128D01*
X31362124Y86638648D01*
X31375645Y86749997D01*
X31375645Y86750004D01*
X31355140Y86918872D01*
X31294818Y87077930D01*
X31198183Y87217929D01*
X31070856Y87330731D01*
X31070853Y87330733D01*
X31070852Y87330734D01*
X30920225Y87409790D01*
X30920222Y87409791D01*
X30755058Y87450500D01*
X30755056Y87450500D01*
X30584944Y87450500D01*
X30584941Y87450500D01*
X30419777Y87409791D01*
X30269146Y87330733D01*
X30269143Y87330731D01*
X30141816Y87217929D01*
X30045181Y87077930D01*
X29984859Y86918872D01*
X29977740Y86860237D01*
X29954821Y86815105D01*
X29921989Y86797307D01*
X29769777Y86759791D01*
X29619146Y86680733D01*
X29619143Y86680731D01*
X29491816Y86567929D01*
X29395181Y86427930D01*
X29334859Y86268872D01*
X29327740Y86210237D01*
X29304821Y86165105D01*
X29271989Y86147307D01*
X29119777Y86109791D01*
X28969146Y86030733D01*
X28969143Y86030731D01*
X28841816Y85917929D01*
X28745181Y85777930D01*
X28684859Y85618872D01*
X28664355Y85450004D01*
X28664355Y85449997D01*
X25915722Y85449997D01*
X25959174Y85476265D01*
X26079461Y85596552D01*
X26167467Y85742131D01*
X26218075Y85904541D01*
X26222165Y85972155D01*
X26242318Y86018588D01*
X26287604Y86041205D01*
X26305689Y86041053D01*
X26407872Y86027601D01*
X26564501Y86048221D01*
X26564502Y86048221D01*
X26710458Y86108679D01*
X26804338Y86180716D01*
X26885168Y86261547D01*
X26296254Y86850461D01*
X26328640Y86856902D01*
X26411335Y86912157D01*
X26466590Y86994852D01*
X26473031Y87027238D01*
X27061945Y86438324D01*
X27142782Y86519162D01*
X27214812Y86613032D01*
X27275271Y86758990D01*
X27275271Y86758991D01*
X27295891Y86915621D01*
X27275271Y87072251D01*
X27275271Y87072252D01*
X27214813Y87218208D01*
X27142779Y87312084D01*
X26885168Y87569694D01*
X26473031Y87157558D01*
X26466590Y87189942D01*
X26411335Y87272637D01*
X26328640Y87327892D01*
X26296253Y87334335D01*
X26708391Y87746471D01*
X26450777Y88004085D01*
X26356907Y88076115D01*
X26210949Y88136574D01*
X26054318Y88157194D01*
X25897688Y88136574D01*
X25897687Y88136574D01*
X25751731Y88076116D01*
X25657855Y88004082D01*
X25577021Y87923248D01*
X26165935Y87334334D01*
X26133550Y87327892D01*
X26050855Y87272637D01*
X25995600Y87189942D01*
X25989158Y87157557D01*
X25400244Y87746471D01*
X25319406Y87665632D01*
X25247378Y87571767D01*
X25247377Y87571765D01*
X25186918Y87425805D01*
X25186918Y87425804D01*
X25166298Y87269174D01*
X25179750Y87166992D01*
X25168794Y87117572D01*
X25128635Y87086758D01*
X25110852Y87083468D01*
X25043238Y87079378D01*
X24880833Y87028771D01*
X24880827Y87028769D01*
X24735249Y86940763D01*
X24614963Y86820477D01*
X24526957Y86674899D01*
X24526955Y86674893D01*
X24476350Y86512494D01*
X24476348Y86512482D01*
X24466077Y86342685D01*
X24466076Y86342685D01*
X24477473Y86280495D01*
X24469018Y86230588D01*
X24430460Y86197791D01*
X24391347Y86194369D01*
X24329159Y86205765D01*
X24329157Y86205765D01*
X24304060Y86204247D01*
X24159360Y86195494D01*
X24159348Y86195492D01*
X23996949Y86144887D01*
X23996943Y86144885D01*
X23851365Y86056879D01*
X23731079Y85936593D01*
X23643073Y85791015D01*
X23643071Y85791009D01*
X23592466Y85628610D01*
X23592464Y85628598D01*
X23582193Y85458801D01*
X11470433Y85458801D01*
X11485480Y85650000D01*
X11465591Y85902717D01*
X11406413Y86149211D01*
X11309403Y86383413D01*
X11275753Y86438324D01*
X11216920Y86534331D01*
X11176951Y86599555D01*
X11012317Y86792317D01*
X11012314Y86792320D01*
X10910570Y86879217D01*
X10819555Y86956951D01*
X10813938Y86960393D01*
X10603422Y87089398D01*
X10603415Y87089402D01*
X10596184Y87092397D01*
X10369211Y87186413D01*
X10369210Y87186414D01*
X10369206Y87186415D01*
X10122718Y87245591D01*
X9933278Y87260500D01*
X9806722Y87260500D01*
X9617281Y87245591D01*
X9370793Y87186415D01*
X9136584Y87089402D01*
X9136577Y87089398D01*
X8920447Y86956953D01*
X8920446Y86956952D01*
X8727685Y86792320D01*
X8727680Y86792315D01*
X8563048Y86599554D01*
X8563047Y86599553D01*
X8430602Y86383423D01*
X8430598Y86383416D01*
X8333585Y86149207D01*
X8274409Y85902719D01*
X8254520Y85650000D01*
X3998373Y85650000D01*
X4016465Y85807659D01*
X4017130Y85811575D01*
X4150828Y86403668D01*
X4151384Y86405819D01*
X4287229Y86871576D01*
X4287494Y86872442D01*
X4453221Y87389121D01*
X4453897Y87391041D01*
X4594630Y87756946D01*
X4596054Y87760174D01*
X4699382Y87966827D01*
X4701685Y87970795D01*
X4820496Y88149013D01*
X4822740Y88152032D01*
X4959252Y88317501D01*
X5132266Y88527216D01*
X5134441Y88529628D01*
X17289803Y100854230D01*
X17292401Y100856427D01*
X17295773Y100859881D01*
X17334558Y100899608D01*
X17353501Y100918813D01*
X17353502Y100918815D01*
X17353534Y100918847D01*
X17355607Y100921167D01*
X18311272Y101900000D01*
X24104520Y101900000D01*
X24124409Y101647282D01*
X24183585Y101400794D01*
X24280598Y101166585D01*
X24280602Y101166578D01*
X24413047Y100950448D01*
X24413049Y100950445D01*
X24577683Y100757683D01*
X24770445Y100593049D01*
X24986587Y100460597D01*
X25220789Y100363587D01*
X25467283Y100304409D01*
X25656722Y100289500D01*
X25783278Y100289500D01*
X25972717Y100304409D01*
X26219211Y100363587D01*
X26453413Y100460597D01*
X26669555Y100593049D01*
X26862317Y100757683D01*
X27026951Y100950445D01*
X27057318Y101000000D01*
X85954520Y101000000D01*
X85962420Y100899616D01*
X85974409Y100747282D01*
X86033585Y100500794D01*
X86130598Y100266585D01*
X86130602Y100266578D01*
X86263047Y100050448D01*
X86263049Y100050445D01*
X86427683Y99857683D01*
X86620445Y99693049D01*
X86836587Y99560597D01*
X87070789Y99463587D01*
X87317283Y99404409D01*
X87506722Y99389500D01*
X87633278Y99389500D01*
X87822717Y99404409D01*
X88069211Y99463587D01*
X88303413Y99560597D01*
X88519555Y99693049D01*
X88712317Y99857683D01*
X88876951Y100050445D01*
X89009403Y100266587D01*
X89106413Y100500789D01*
X89165591Y100747283D01*
X89185480Y101000000D01*
X89165591Y101252717D01*
X89106413Y101499211D01*
X89009403Y101733413D01*
X88876951Y101949555D01*
X88748136Y102100378D01*
X88712319Y102142315D01*
X88712314Y102142320D01*
X88575312Y102259330D01*
X88519555Y102306951D01*
X88519552Y102306953D01*
X88303422Y102439398D01*
X88303415Y102439402D01*
X88219171Y102474297D01*
X88069211Y102536413D01*
X88069210Y102536414D01*
X88069206Y102536415D01*
X87822718Y102595591D01*
X87633278Y102610500D01*
X87506722Y102610500D01*
X87317281Y102595591D01*
X87070793Y102536415D01*
X86836584Y102439402D01*
X86836577Y102439398D01*
X86620447Y102306953D01*
X86620446Y102306952D01*
X86427685Y102142320D01*
X86427680Y102142315D01*
X86263048Y101949554D01*
X86263047Y101949553D01*
X86130602Y101733423D01*
X86130598Y101733416D01*
X86033585Y101499207D01*
X85974409Y101252719D01*
X85967630Y101166585D01*
X85954520Y101000000D01*
X27057318Y101000000D01*
X27159403Y101166587D01*
X27256413Y101400789D01*
X27315591Y101647283D01*
X27335480Y101900000D01*
X27315591Y102152717D01*
X27256413Y102399211D01*
X27159403Y102633413D01*
X27149379Y102649770D01*
X27042384Y102824371D01*
X27026951Y102849555D01*
X26862317Y103042317D01*
X26862314Y103042320D01*
X26788675Y103105213D01*
X26669555Y103206951D01*
X26597863Y103250884D01*
X26453422Y103339398D01*
X26453415Y103339402D01*
X26266244Y103416931D01*
X26219211Y103436413D01*
X26219210Y103436414D01*
X26219206Y103436415D01*
X25972718Y103495591D01*
X25783278Y103510500D01*
X25656722Y103510500D01*
X25467281Y103495591D01*
X25220793Y103436415D01*
X24986584Y103339402D01*
X24986577Y103339398D01*
X24770447Y103206953D01*
X24770446Y103206952D01*
X24577685Y103042320D01*
X24577680Y103042315D01*
X24413048Y102849554D01*
X24413047Y102849553D01*
X24280602Y102633423D01*
X24280598Y102633416D01*
X24183585Y102399207D01*
X24124409Y102152719D01*
X24104520Y101900000D01*
X18311272Y101900000D01*
X18941026Y102545021D01*
X18942365Y102546161D01*
X18985261Y102590327D01*
X19005037Y102610582D01*
X19006123Y102611807D01*
X19027109Y102633413D01*
X19883080Y103514709D01*
X20671948Y104326916D01*
X20672754Y104327721D01*
X20784979Y104436364D01*
X22540624Y106135978D01*
X22542494Y106137667D01*
X22675575Y106249736D01*
X22685084Y106256535D01*
X22687654Y106258084D01*
X22687657Y106258084D01*
X22726308Y106292442D01*
X22727011Y106293049D01*
X22744861Y106308080D01*
X22744868Y106308088D01*
X22747273Y106310525D01*
X22747342Y106310457D01*
X22751809Y106315109D01*
X22889091Y106437138D01*
X22897677Y106443711D01*
X23150496Y106609351D01*
X23153687Y106611219D01*
X23332876Y106704398D01*
X23336648Y106705948D01*
X23340578Y106708023D01*
X23340582Y106708023D01*
X23389421Y106733800D01*
X23413340Y106746237D01*
X23413354Y106746249D01*
X23413579Y106746392D01*
X23416346Y106748011D01*
X23734569Y106915962D01*
X23738069Y106917581D01*
X24056461Y107044937D01*
X24059796Y107046088D01*
X24274174Y107108614D01*
X24276325Y107109170D01*
X24567775Y107174982D01*
X24569549Y107175335D01*
X24841597Y107222239D01*
X24843647Y107222533D01*
X25177296Y107260665D01*
X25178764Y107260803D01*
X25581969Y107290305D01*
X25581969Y107290294D01*
X25582086Y107290314D01*
X25859568Y107310132D01*
X26010718Y107319025D01*
X26014418Y107319056D01*
X26225890Y107310244D01*
G37*
%TD.AperFunction*%
%TD*%
M02*
